{
.appVersion = "1075";
copyright = "Copyright © 2018 by Cadson Demak Co.,Ltd.. All rights reserved.";
customParameters = (
{
name = vendorID;
value = CDK;
},
{
name = description;
value = "Copyright (c) 2018, Cadson Demak (info@cadsondemak.com)";
},
{
name = license;

glyphs = (
{
glyphname = A;
layers = (
{
anchors = (
{
name = bottom;
position = "{294, 0}";
},
{
name = ogonek;
position = "{528, 11}";
},
{
name = top;
position = "{304, 700}";
}
);
layerId = "B248ED2E-FA6D-462F-83C4-0CD4D6FD5656";
paths = (
{
closed = 1;
nodes = (
"36 -5 OFFCURVE",
"52 -8 OFFCURVE",
"65 -8 CURVE SMOOTH",
"95 -8 OFFCURVE",
"113 8 OFFCURVE",
"125 43 CURVE SMOOTH",
"178 195 LINE",
"431 195 LINE",
"502 -6 LINE",
"549 -6 OFFCURVE",
"576 21 OFFCURVE",
"553 85 CURVE SMOOTH",
"335 700 LINE",
"326 704 OFFCURVE",
"318 706 OFFCURVE",
"310 706 CURVE SMOOTH",
"285 706 OFFCURVE",
"266 686 OFFCURVE",
"251 644 CURVE SMOOTH",
"26 0 LINE"
);
},
{
closed = 1;
nodes = (
"304 581 LINE",
"406 269 LINE",
"202 269 LINE"
);
}
);
width = 587;
}
);
leftKerningGroup = A;
note = A;
rightKerningGroup = A;
unicode = 0041;
},
{
glyphname = Aacute;
layers = (
{
anchors = (
{
name = bottom;
position = "{294, 0}";
},
{
name = ogonek;
position = "{528, 11}";
},
{
name = top;
position = "{348, 910}";
}
);
layerId = "B248ED2E-FA6D-462F-83C4-0CD4D6FD5656";
paths = (
{
closed = 1;
nodes = (
"36 -5 OFFCURVE",
"52 -8 OFFCURVE",
"65 -8 CURVE SMOOTH",
"95 -8 OFFCURVE",
"113 8 OFFCURVE",
"125 43 CURVE SMOOTH",
"178 195 LINE",
"431 195 LINE",
"502 -6 LINE",
"549 -6 OFFCURVE",
"576 21 OFFCURVE",
"553 85 CURVE SMOOTH",
"335 700 LINE",
"326 704 OFFCURVE",
"318 706 OFFCURVE",
"310 706 CURVE SMOOTH",
"285 706 OFFCURVE",
"266 686 OFFCURVE",
"251 644 CURVE SMOOTH",
"26 0 LINE"
);
},
{
closed = 1;
nodes = (
"304 581 LINE",
"406 269 LINE",
"202 269 LINE"
);
},
{
closed = 1;
nodes = (
"291 752 LINE",
"398 910 LINE",
"302 910 LINE",
"251 752 LINE"
);
}
);
width = 587;
}
);
leftKerningGroup = A;
note = Aacute;
rightKerningGroup = A;
unicode = 00C1;
},
{
glyphname = Abreve;
layers = (
{
anchors = (
{
name = bottom;
position = "{294, 0}";
},
{
name = ogonek;
position = "{528, 11}";
},
{
name = top;
position = "{304, 890}";
}
);
layerId = "B248ED2E-FA6D-462F-83C4-0CD4D6FD5656";
paths = (
{
closed = 1;
nodes = (
"36 -5 OFFCURVE",
"52 -8 OFFCURVE",
"65 -8 CURVE SMOOTH",
"95 -8 OFFCURVE",
"113 8 OFFCURVE",
"125 43 CURVE SMOOTH",
"178 195 LINE",
"431 195 LINE",
"502 -6 LINE",
"549 -6 OFFCURVE",
"576 21 OFFCURVE",
"553 85 CURVE SMOOTH",
"335 700 LINE",
"326 704 OFFCURVE",
"318 706 OFFCURVE",
"310 706 CURVE SMOOTH",
"285 706 OFFCURVE",
"266 686 OFFCURVE",
"251 644 CURVE SMOOTH",
"26 0 LINE"
);
},
{
closed = 1;
nodes = (
"168 802 OFFCURVE",
"222 746 OFFCURVE",
"304 746 CURVE SMOOTH",
"386 746 OFFCURVE",
"440 802 OFFCURVE",
"444 890 CURVE",
"406 890 LINE",
"401 842 OFFCURVE",
"361 812 OFFCURVE",
"304 812 CURVE SMOOTH",
"247 812 OFFCURVE",
"207 842 OFFCURVE",
"202 890 CURVE",
"164 890 LINE"
);
},
{
closed = 1;
nodes = (
"304 581 LINE",
"406 269 LINE",
"202 269 LINE"
);
}
);
width = 587;
}
);
leftKerningGroup = A;
note = Abreve;
rightKerningGroup = A;
unicode = 0102;
},
{
glyphname = Abreveacute;
layers = (
{
anchors = (
{
name = bottom;
position = "{294, 0}";
},
{
name = ogonek;
position = "{528, 11}";
},
{
name = top;
position = "{304, 1031}";
}
);
layerId = "B248ED2E-FA6D-462F-83C4-0CD4D6FD5656";
paths = (
{
closed = 1;
nodes = (
"36 -5 OFFCURVE",
"52 -8 OFFCURVE",
"65 -8 CURVE SMOOTH",
"95 -8 OFFCURVE",
"113 8 OFFCURVE",
"125 43 CURVE SMOOTH",
"178 195 LINE",
"431 195 LINE",
"502 -6 LINE",
"549 -6 OFFCURVE",
"576 21 OFFCURVE",
"553 85 CURVE SMOOTH",
"335 700 LINE",
"326 704 OFFCURVE",
"318 706 OFFCURVE",
"310 706 CURVE SMOOTH",
"285 706 OFFCURVE",
"266 686 OFFCURVE",
"251 644 CURVE SMOOTH",
"26 0 LINE"
);
},
{
closed = 1;
nodes = (
"168 802 OFFCURVE",
"222 746 OFFCURVE",
"304 746 CURVE SMOOTH",
"386 746 OFFCURVE",
"440 802 OFFCURVE",
"444 890 CURVE",
"406 890 LINE",
"401 842 OFFCURVE",
"361 812 OFFCURVE",
"304 812 CURVE SMOOTH",
"247 812 OFFCURVE",
"207 842 OFFCURVE",
"202 890 CURVE",
"164 890 LINE"
);
},
{
closed = 1;
nodes = (
"304 581 LINE",
"406 269 LINE",
"202 269 LINE"
);
},
{
closed = 1;
nodes = (
"306 904 LINE",
"392 1030 LINE",
"315 1030 LINE",
"274 904 LINE"
);
}
);
width = 587;
}
);
leftKerningGroup = A;
note = Abreveacute;
rightKerningGroup = A;
unicode = 1EAE;
},
{
glyphname = Abrevedotbelow;
layers = (
{
anchors = (
{
name = bottom;
position = "{294, -175}";
},
{
name = ogonek;
position = "{528, 11}";
},
{
name = top;
position = "{304, 890}";
}
);
layerId = "B248ED2E-FA6D-462F-83C4-0CD4D6FD5656";
paths = (
{
closed = 1;
nodes = (
"36 -5 OFFCURVE",
"52 -8 OFFCURVE",
"65 -8 CURVE SMOOTH",
"95 -8 OFFCURVE",
"113 8 OFFCURVE",
"125 43 CURVE SMOOTH",
"178 195 LINE",
"431 195 LINE",
"502 -6 LINE",
"549 -6 OFFCURVE",
"576 21 OFFCURVE",
"553 85 CURVE SMOOTH",
"335 700 LINE",
"326 704 OFFCURVE",
"318 706 OFFCURVE",
"310 706 CURVE SMOOTH",
"285 706 OFFCURVE",
"266 686 OFFCURVE",
"251 644 CURVE SMOOTH",
"26 0 LINE"
);
},
{
closed = 1;
nodes = (
"168 802 OFFCURVE",
"222 746 OFFCURVE",
"304 746 CURVE SMOOTH",
"386 746 OFFCURVE",
"440 802 OFFCURVE",
"444 890 CURVE",
"406 890 LINE",
"401 842 OFFCURVE",
"361 812 OFFCURVE",
"304 812 CURVE SMOOTH",
"247 812 OFFCURVE",
"207 842 OFFCURVE",
"202 890 CURVE",
"164 890 LINE"
);
},
{
closed = 1;
nodes = (
"304 581 LINE",
"406 269 LINE",
"202 269 LINE"
);
},
{
closed = 1;
nodes = (
"232 -150 OFFCURVE",
"256 -175 OFFCURVE",
"295 -175 CURVE SMOOTH",
"332 -175 OFFCURVE",
"356 -150 OFFCURVE",
"356 -114 CURVE SMOOTH",
"356 -76 OFFCURVE",
"332 -51 OFFCURVE",
"295 -51 CURVE SMOOTH",
"256 -51 OFFCURVE",
"232 -76 OFFCURVE",
"232 -114 CURVE SMOOTH"
);
}
);
width = 587;
}
);
leftKerningGroup = A;
note = Abrevedotbelow;
rightKerningGroup = A;
unicode = 1EB6;
},
{
glyphname = Abrevegrave;
layers = (
{
anchors = (
{
name = bottom;
position = "{294, 0}";
},
{
name = ogonek;
position = "{528, 11}";
},
{
name = top;
position = "{304, 1031}";
}
);
layerId = "B248ED2E-FA6D-462F-83C4-0CD4D6FD5656";
paths = (
{
closed = 1;
nodes = (
"36 -5 OFFCURVE",
"52 -8 OFFCURVE",
"65 -8 CURVE SMOOTH",
"95 -8 OFFCURVE",
"113 8 OFFCURVE",
"125 43 CURVE SMOOTH",
"178 195 LINE",
"431 195 LINE",
"502 -6 LINE",
"549 -6 OFFCURVE",
"576 21 OFFCURVE",
"553 85 CURVE SMOOTH",
"335 700 LINE",
"326 704 OFFCURVE",
"318 706 OFFCURVE",
"310 706 CURVE SMOOTH",
"285 706 OFFCURVE",
"266 686 OFFCURVE",
"251 644 CURVE SMOOTH",
"26 0 LINE"
);
},
{
closed = 1;
nodes = (
"168 802 OFFCURVE",
"222 746 OFFCURVE",
"304 746 CURVE SMOOTH",
"386 746 OFFCURVE",
"440 802 OFFCURVE",
"444 890 CURVE",
"406 890 LINE",
"401 842 OFFCURVE",
"361 812 OFFCURVE",
"304 812 CURVE SMOOTH",
"247 812 OFFCURVE",
"207 842 OFFCURVE",
"202 890 CURVE",
"164 890 LINE"
);
},
{
closed = 1;
nodes = (
"304 581 LINE",
"406 269 LINE",
"202 269 LINE"
);
},
{
closed = 1;
nodes = (
"297 904 LINE",
"329 904 LINE",
"288 1030 LINE",
"211 1030 LINE"
);
}
);
width = 587;
}
);
leftKerningGroup = A;
note = Abrevegrave;
rightKerningGroup = A;
unicode = 1EB0;
},
{
glyphname = Abrevehookabove;
layers = (
{
anchors = (
{
name = bottom;
position = "{294, 0}";
},
{
name = ogonek;
position = "{528, 11}";
},
{
name = top;
position = "{304, 1057}";
}
);
layerId = "B248ED2E-FA6D-462F-83C4-0CD4D6FD5656";
paths = (
{
closed = 1;
nodes = (
"36 -5 OFFCURVE",
"52 -8 OFFCURVE",
"65 -8 CURVE SMOOTH",
"95 -8 OFFCURVE",
"113 8 OFFCURVE",
"125 43 CURVE SMOOTH",
"178 195 LINE",
"431 195 LINE",
"502 -6 LINE",
"549 -6 OFFCURVE",
"576 21 OFFCURVE",
"553 85 CURVE SMOOTH",
"335 700 LINE",
"326 704 OFFCURVE",
"318 706 OFFCURVE",
"310 706 CURVE SMOOTH",
"285 706 OFFCURVE",
"266 686 OFFCURVE",
"251 644 CURVE SMOOTH",
"26 0 LINE"
);
},
{
closed = 1;
nodes = (
"168 802 OFFCURVE",
"222 746 OFFCURVE",
"304 746 CURVE SMOOTH",
"386 746 OFFCURVE",
"440 802 OFFCURVE",
"444 890 CURVE",
"406 890 LINE",
"401 842 OFFCURVE",
"361 812 OFFCURVE",
"304 812 CURVE SMOOTH",
"247 812 OFFCURVE",
"207 842 OFFCURVE",
"202 890 CURVE",
"164 890 LINE"
);
},
{
closed = 1;
nodes = (
"304 581 LINE",
"406 269 LINE",
"202 269 LINE"
);
},
{
closed = 1;
nodes = (
"254 1005 OFFCURVE",
"264 1007 OFFCURVE",
"273 1007 CURVE SMOOTH",
"296 1007 OFFCURVE",
"305 996 OFFCURVE",
"305 976 CURVE SMOOTH",
"305 952 OFFCURVE",
"291 922 OFFCURVE",
"263 904 CURVE",
"309 904 LINE",
"345 922 OFFCURVE",
"363 959 OFFCURVE",
"363 993 CURVE SMOOTH",
"363 1033 OFFCURVE",
"338 1052 OFFCURVE",
"297 1052 CURVE SMOOTH",
"278 1052 OFFCURVE",
"261 1048 OFFCURVE",
"246 1040 CURVE",
"246 1002 LINE"
);
}
);
width = 587;
}
);
leftKerningGroup = A;
note = Abrevehookabove;
rightKerningGroup = A;
unicode = 1EB2;
},
{
glyphname = Abrevetilde;
layers = (
{
anchors = (
{
name = bottom;
position = "{294, 0}";
},
{
name = ogonek;
position = "{528, 11}";
},
{
name = top;
position = "{304, 1033}";
}
);
layerId = "B248ED2E-FA6D-462F-83C4-0CD4D6FD5656";
paths = (
{
closed = 1;
nodes = (
"36 -5 OFFCURVE",
"52 -8 OFFCURVE",
"65 -8 CURVE SMOOTH",
"95 -8 OFFCURVE",
"113 8 OFFCURVE",
"125 43 CURVE SMOOTH",
"178 195 LINE",
"431 195 LINE",
"502 -6 LINE",
"549 -6 OFFCURVE",
"576 21 OFFCURVE",
"553 85 CURVE SMOOTH",
"335 700 LINE",
"326 704 OFFCURVE",
"318 706 OFFCURVE",
"310 706 CURVE SMOOTH",
"285 706 OFFCURVE",
"266 686 OFFCURVE",
"251 644 CURVE SMOOTH",
"26 0 LINE"
);
},
{
closed = 1;
nodes = (
"168 802 OFFCURVE",
"222 746 OFFCURVE",
"304 746 CURVE SMOOTH",
"386 746 OFFCURVE",
"440 802 OFFCURVE",
"444 890 CURVE",
"406 890 LINE",
"401 842 OFFCURVE",
"361 812 OFFCURVE",
"304 812 CURVE SMOOTH",
"247 812 OFFCURVE",
"207 842 OFFCURVE",
"202 890 CURVE",
"164 890 LINE"
);
},
{
closed = 1;
nodes = (
"210 938 LINE",
"221 966 OFFCURVE",
"234 981 OFFCURVE",
"256 981 CURVE SMOOTH",
"291 981 OFFCURVE",
"311 938 OFFCURVE",
"357 938 CURVE SMOOTH",
"396 938 OFFCURVE",
"434 968 OFFCURVE",
"438 1038 CURVE",
"401 1038 LINE",
"391 1011 OFFCURVE",
"377 995 OFFCURVE",
"355 995 CURVE SMOOTH",
"319 995 OFFCURVE",
"300 1038 OFFCURVE",
"255 1038 CURVE SMOOTH",
"215 1038 OFFCURVE",
"178 1007 OFFCURVE",
"173 938 CURVE"
);
},
{
closed = 1;
nodes = (
"304 581 LINE",
"406 269 LINE",
"202 269 LINE"
);
}
);
width = 587;
}
);
leftKerningGroup = A;
note = Abrevetilde;
rightKerningGroup = A;
unicode = 1EB4;
},
{
glyphname = Acaron;
layers = (
{
anchors = (
{
name = bottom;
position = "{294, 0}";
},
{
name = ogonek;
position = "{528, 11}";
},
{
name = top;
position = "{304, 910}";
}
);
layerId = "B248ED2E-FA6D-462F-83C4-0CD4D6FD5656";
paths = (
{
closed = 1;
nodes = (
"36 -5 OFFCURVE",
"52 -8 OFFCURVE",
"65 -8 CURVE SMOOTH",
"95 -8 OFFCURVE",
"113 8 OFFCURVE",
"125 43 CURVE SMOOTH",
"178 195 LINE",
"431 195 LINE",
"502 -6 LINE",
"549 -6 OFFCURVE",
"576 21 OFFCURVE",
"553 85 CURVE SMOOTH",
"335 700 LINE",
"326 704 OFFCURVE",
"318 706 OFFCURVE",
"310 706 CURVE SMOOTH",
"285 706 OFFCURVE",
"266 686 OFFCURVE",
"251 644 CURVE SMOOTH",
"26 0 LINE"
);
},
{
closed = 1;
nodes = (
"264 752 LINE",
"344 752 LINE",
"464 900 LINE",
"424 900 LINE",
"304 812 LINE",
"184 900 LINE",
"144 900 LINE"
);
},
{
closed = 1;
nodes = (
"304 581 LINE",
"406 269 LINE",
"202 269 LINE"
);
}
);
width = 587;
}
);
leftKerningGroup = A;
note = Acaron;
rightKerningGroup = A;
unicode = 01CD;
},
{
glyphname = Acircumflex;
layers = (
{
anchors = (
{
name = bottom;
position = "{294, 0}";
},
{
name = ogonek;
position = "{528, 11}";
},
{
name = top;
position = "{304, 900}";
}
);
layerId = "B248ED2E-FA6D-462F-83C4-0CD4D6FD5656";
paths = (
{
closed = 1;
nodes = (
"36 -5 OFFCURVE",
"52 -8 OFFCURVE",
"65 -8 CURVE SMOOTH",
"95 -8 OFFCURVE",
"113 8 OFFCURVE",
"125 43 CURVE SMOOTH",
"178 195 LINE",
"431 195 LINE",
"502 -6 LINE",
"549 -6 OFFCURVE",
"576 21 OFFCURVE",
"553 85 CURVE SMOOTH",
"335 700 LINE",
"326 704 OFFCURVE",
"318 706 OFFCURVE",
"310 706 CURVE SMOOTH",
"285 706 OFFCURVE",
"266 686 OFFCURVE",
"251 644 CURVE SMOOTH",
"26 0 LINE"
);
},
{
closed = 1;
nodes = (
"184 752 LINE",
"304 840 LINE",
"424 752 LINE",
"464 752 LINE",
"344 900 LINE",
"264 900 LINE",
"144 752 LINE"
);
},
{
closed = 1;
nodes = (
"304 581 LINE",
"406 269 LINE",
"202 269 LINE"
);
}
);
width = 587;
}
);
leftKerningGroup = A;
note = Acircumflex;
rightKerningGroup = A;
unicode = 00C2;
},
{
glyphname = Acircumflexacute;
layers = (
{
anchors = (
{
name = bottom;
position = "{294, 0}";
},
{
name = ogonek;
position = "{528, 11}";
},
{
name = top;
position = "{304, 990}";
}
);
layerId = "B248ED2E-FA6D-462F-83C4-0CD4D6FD5656";
paths = (
{
closed = 1;
nodes = (
"36 -5 OFFCURVE",
"52 -8 OFFCURVE",
"65 -8 CURVE SMOOTH",
"95 -8 OFFCURVE",
"113 8 OFFCURVE",
"125 43 CURVE SMOOTH",
"178 195 LINE",
"431 195 LINE",
"502 -6 LINE",
"549 -6 OFFCURVE",
"576 21 OFFCURVE",
"553 85 CURVE SMOOTH",
"335 700 LINE",
"326 704 OFFCURVE",
"318 706 OFFCURVE",
"310 706 CURVE SMOOTH",
"285 706 OFFCURVE",
"266 686 OFFCURVE",
"251 644 CURVE SMOOTH",
"26 0 LINE"
);
},
{
closed = 1;
nodes = (
"184 752 LINE",
"304 840 LINE",
"424 752 LINE",
"464 752 LINE",
"344 900 LINE",
"264 900 LINE",
"144 752 LINE"
);
},
{
closed = 1;
nodes = (
"304 581 LINE",
"406 269 LINE",
"202 269 LINE"
);
},
{
closed = 1;
nodes = (
"447 857 LINE",
"533 983 LINE",
"456 983 LINE",
"415 857 LINE"
);
}
);
width = 587;
}
);
leftKerningGroup = A;
note = Acircumflexacute;
rightKerningGroup = A;
unicode = 1EA4;
},
{
glyphname = Acircumflexdotbelow;
layers = (
{
anchors = (
{
name = bottom;
position = "{294, -175}";
},
{
name = ogonek;
position = "{528, 11}";
},
{
name = top;
position = "{304, 900}";
}
);
layerId = "B248ED2E-FA6D-462F-83C4-0CD4D6FD5656";
paths = (
{
closed = 1;
nodes = (
"36 -5 OFFCURVE",
"52 -8 OFFCURVE",
"65 -8 CURVE SMOOTH",
"95 -8 OFFCURVE",
"113 8 OFFCURVE",
"125 43 CURVE SMOOTH",
"178 195 LINE",
"431 195 LINE",
"502 -6 LINE",
"549 -6 OFFCURVE",
"576 21 OFFCURVE",
"553 85 CURVE SMOOTH",
"335 700 LINE",
"326 704 OFFCURVE",
"318 706 OFFCURVE",
"310 706 CURVE SMOOTH",
"285 706 OFFCURVE",
"266 686 OFFCURVE",
"251 644 CURVE SMOOTH",
"26 0 LINE"
);
},
{
closed = 1;
nodes = (
"184 752 LINE",
"304 840 LINE",
"424 752 LINE",
"464 752 LINE",
"344 900 LINE",
"264 900 LINE",
"144 752 LINE"
);
},
{
closed = 1;
nodes = (
"304 581 LINE",
"406 269 LINE",
"202 269 LINE"
);
},
{
closed = 1;
nodes = (
"232 -150 OFFCURVE",
"256 -175 OFFCURVE",
"295 -175 CURVE SMOOTH",
"332 -175 OFFCURVE",
"356 -150 OFFCURVE",
"356 -114 CURVE SMOOTH",
"356 -76 OFFCURVE",
"332 -51 OFFCURVE",
"295 -51 CURVE SMOOTH",
"256 -51 OFFCURVE",
"232 -76 OFFCURVE",
"232 -114 CURVE SMOOTH"
);
}
);
width = 587;
}
);
leftKerningGroup = A;
note = Acircumflexdotbelow;
rightKerningGroup = A;
unicode = 1EAC;
},
{
glyphname = Acircumflexgrave;
layers = (
{
anchors = (
{
name = bottom;
position = "{294, 0}";
},
{
name = ogonek;
position = "{528, 11}";
},
{
name = top;
position = "{304, 974}";
}
);
layerId = "B248ED2E-FA6D-462F-83C4-0CD4D6FD5656";
paths = (
{
closed = 1;
nodes = (
"36 -5 OFFCURVE",
"52 -8 OFFCURVE",
"65 -8 CURVE SMOOTH",
"95 -8 OFFCURVE",
"113 8 OFFCURVE",
"125 43 CURVE SMOOTH",
"178 195 LINE",
"431 195 LINE",
"502 -6 LINE",
"549 -6 OFFCURVE",
"576 21 OFFCURVE",
"553 85 CURVE SMOOTH",
"335 700 LINE",
"326 704 OFFCURVE",
"318 706 OFFCURVE",
"310 706 CURVE SMOOTH",
"285 706 OFFCURVE",
"266 686 OFFCURVE",
"251 644 CURVE SMOOTH",
"26 0 LINE"
);
},
{
closed = 1;
nodes = (
"184 752 LINE",
"304 840 LINE",
"424 752 LINE",
"464 752 LINE",
"344 900 LINE",
"264 900 LINE",
"144 752 LINE"
);
},
{
closed = 1;
nodes = (
"304 581 LINE",
"406 269 LINE",
"202 269 LINE"
);
},
{
closed = 1;
nodes = (
"453 857 LINE",
"485 857 LINE",
"444 983 LINE",
"367 983 LINE"
);
}
);
width = 587;
}
);
leftKerningGroup = A;
note = Acircumflexgrave;
rightKerningGroup = A;
unicode = 1EA6;
},
{
glyphname = Acircumflexhookabove;
layers = (
{
anchors = (
{
name = bottom;
position = "{294, 0}";
},
{
name = ogonek;
position = "{528, 11}";
},
{
name = top;
position = "{305, 990}";
}
);
layerId = "B248ED2E-FA6D-462F-83C4-0CD4D6FD5656";
paths = (
{
closed = 1;
nodes = (
"36 -5 OFFCURVE",
"52 -8 OFFCURVE",
"65 -8 CURVE SMOOTH",
"95 -8 OFFCURVE",
"113 8 OFFCURVE",
"125 43 CURVE SMOOTH",
"178 195 LINE",
"431 195 LINE",
"502 -6 LINE",
"549 -6 OFFCURVE",
"576 21 OFFCURVE",
"553 85 CURVE SMOOTH",
"335 700 LINE",
"326 704 OFFCURVE",
"318 706 OFFCURVE",
"310 706 CURVE SMOOTH",
"285 706 OFFCURVE",
"266 686 OFFCURVE",
"251 644 CURVE SMOOTH",
"26 0 LINE"
);
},
{
closed = 1;
nodes = (
"184 752 LINE",
"304 840 LINE",
"424 752 LINE",
"464 752 LINE",
"344 900 LINE",
"264 900 LINE",
"144 752 LINE"
);
},
{
closed = 1;
nodes = (
"304 581 LINE",
"406 269 LINE",
"202 269 LINE"
);
},
{
closed = 1;
nodes = (
"415 958 OFFCURVE",
"425 960 OFFCURVE",
"434 960 CURVE SMOOTH",
"457 960 OFFCURVE",
"466 949 OFFCURVE",
"466 929 CURVE SMOOTH",
"466 905 OFFCURVE",
"452 875 OFFCURVE",
"424 857 CURVE",
"470 857 LINE",
"506 875 OFFCURVE",
"524 912 OFFCURVE",
"524 946 CURVE SMOOTH",
"524 986 OFFCURVE",
"499 1005 OFFCURVE",
"458 1005 CURVE SMOOTH",
"439 1005 OFFCURVE",
"422 1001 OFFCURVE",
"407 993 CURVE",
"407 955 LINE"
);
}
);
width = 587;
}
);
leftKerningGroup = A;
note = Acircumflexhookabove;
rightKerningGroup = A;
unicode = 1EA8;
},
{
glyphname = Acircumflextilde;
layers = (
{
anchors = (
{
name = bottom;
position = "{294, 0}";
},
{
name = ogonek;
position = "{528, 11}";
},
{
name = top;
position = "{304, 1091}";
}
);
layerId = "B248ED2E-FA6D-462F-83C4-0CD4D6FD5656";
paths = (
{
closed = 1;
nodes = (
"36 -5 OFFCURVE",
"52 -8 OFFCURVE",
"65 -8 CURVE SMOOTH",
"95 -8 OFFCURVE",
"113 8 OFFCURVE",
"125 43 CURVE SMOOTH",
"178 195 LINE",
"431 195 LINE",
"502 -6 LINE",
"549 -6 OFFCURVE",
"576 21 OFFCURVE",
"553 85 CURVE SMOOTH",
"335 700 LINE",
"326 704 OFFCURVE",
"318 706 OFFCURVE",
"310 706 CURVE SMOOTH",
"285 706 OFFCURVE",
"266 686 OFFCURVE",
"251 644 CURVE SMOOTH",
"26 0 LINE"
);
},
{
closed = 1;
nodes = (
"184 752 LINE",
"304 840 LINE",
"424 752 LINE",
"464 752 LINE",
"344 900 LINE",
"264 900 LINE",
"144 752 LINE"
);
},
{
closed = 1;
nodes = (
"209 944 LINE",
"220 972 OFFCURVE",
"233 987 OFFCURVE",
"255 987 CURVE SMOOTH",
"290 987 OFFCURVE",
"310 944 OFFCURVE",
"356 944 CURVE SMOOTH",
"395 944 OFFCURVE",
"433 974 OFFCURVE",
"437 1044 CURVE",
"400 1044 LINE",
"390 1017 OFFCURVE",
"376 1001 OFFCURVE",
"354 1001 CURVE SMOOTH",
"318 1001 OFFCURVE",
"299 1044 OFFCURVE",
"254 1044 CURVE SMOOTH",
"214 1044 OFFCURVE",
"177 1013 OFFCURVE",
"172 944 CURVE"
);
},
{
closed = 1;
nodes = (
"304 581 LINE",
"406 269 LINE",
"202 269 LINE"
);
}
);
width = 587;
}
);
leftKerningGroup = A;
note = Acircumflextilde;
rightKerningGroup = A;
unicode = 1EAA;
},
{
glyphname = Adieresis;
layers = (
{
anchors = (
{
name = bottom;
position = "{294, 0}";
},
{
name = ogonek;
position = "{528, 11}";
},
{
name = top;
position = "{304, 858}";
}
);
layerId = "B248ED2E-FA6D-462F-83C4-0CD4D6FD5656";
paths = (
{
closed = 1;
nodes = (
"36 -5 OFFCURVE",
"52 -8 OFFCURVE",
"65 -8 CURVE SMOOTH",
"95 -8 OFFCURVE",
"113 8 OFFCURVE",
"125 43 CURVE SMOOTH",
"178 195 LINE",
"431 195 LINE",
"502 -6 LINE",
"549 -6 OFFCURVE",
"576 21 OFFCURVE",
"553 85 CURVE SMOOTH",
"335 700 LINE",
"326 704 OFFCURVE",
"318 706 OFFCURVE",
"310 706 CURVE SMOOTH",
"285 706 OFFCURVE",
"266 686 OFFCURVE",
"251 644 CURVE SMOOTH",
"26 0 LINE"
);
},
{
closed = 1;
nodes = (
"168 773 OFFCURVE",
"189 752 OFFCURVE",
"222 752 CURVE SMOOTH",
"253 752 OFFCURVE",
"274 773 OFFCURVE",
"274 804 CURVE SMOOTH",
"274 837 OFFCURVE",
"253 858 OFFCURVE",
"222 858 CURVE SMOOTH",
"189 858 OFFCURVE",
"168 837 OFFCURVE",
"168 804 CURVE SMOOTH"
);
},
{
closed = 1;
nodes = (
"304 581 LINE",
"406 269 LINE",
"202 269 LINE"
);
},
{
closed = 1;
nodes = (
"334 773 OFFCURVE",
"355 752 OFFCURVE",
"388 752 CURVE SMOOTH",
"419 752 OFFCURVE",
"440 773 OFFCURVE",
"440 804 CURVE SMOOTH",
"440 837 OFFCURVE",
"419 858 OFFCURVE",
"388 858 CURVE SMOOTH",
"355 858 OFFCURVE",
"334 837 OFFCURVE",
"334 804 CURVE SMOOTH"
);
}
);
width = 587;
}
);
leftKerningGroup = A;
note = Adieresis;
rightKerningGroup = A;
unicode = 00C4;
},
{
glyphname = Adotbelow;
layers = (
{
anchors = (
{
name = bottom;
position = "{294, -175}";
},
{
name = ogonek;
position = "{528, 11}";
},
{
name = top;
position = "{304, 700}";
}
);
layerId = "B248ED2E-FA6D-462F-83C4-0CD4D6FD5656";
paths = (
{
closed = 1;
nodes = (
"36 -5 OFFCURVE",
"52 -8 OFFCURVE",
"65 -8 CURVE SMOOTH",
"95 -8 OFFCURVE",
"113 8 OFFCURVE",
"125 43 CURVE SMOOTH",
"178 195 LINE",
"431 195 LINE",
"502 -6 LINE",
"549 -6 OFFCURVE",
"576 21 OFFCURVE",
"553 85 CURVE SMOOTH",
"335 700 LINE",
"326 704 OFFCURVE",
"318 706 OFFCURVE",
"310 706 CURVE SMOOTH",
"285 706 OFFCURVE",
"266 686 OFFCURVE",
"251 644 CURVE SMOOTH",
"26 0 LINE"
);
},
{
closed = 1;
nodes = (
"304 581 LINE",
"406 269 LINE",
"202 269 LINE"
);
},
{
closed = 1;
nodes = (
"232 -150 OFFCURVE",
"256 -175 OFFCURVE",
"295 -175 CURVE SMOOTH",
"332 -175 OFFCURVE",
"356 -150 OFFCURVE",
"356 -114 CURVE SMOOTH",
"356 -76 OFFCURVE",
"332 -51 OFFCURVE",
"295 -51 CURVE SMOOTH",
"256 -51 OFFCURVE",
"232 -76 OFFCURVE",
"232 -114 CURVE SMOOTH"
);
}
);
width = 587;
}
);
leftKerningGroup = A;
note = Adotbelow;
rightKerningGroup = A;
unicode = 1EA0;
},
{
glyphname = Agrave;
layers = (
{
anchors = (
{
name = bottom;
position = "{294, 0}";
},
{
name = ogonek;
position = "{528, 11}";
},
{
name = top;
position = "{274, 910}";
}
);
layerId = "B248ED2E-FA6D-462F-83C4-0CD4D6FD5656";
paths = (
{
closed = 1;
nodes = (
"36 -5 OFFCURVE",
"52 -8 OFFCURVE",
"65 -8 CURVE SMOOTH",
"95 -8 OFFCURVE",
"113 8 OFFCURVE",
"125 43 CURVE SMOOTH",
"178 195 LINE",
"431 195 LINE",
"502 -6 LINE",
"549 -6 OFFCURVE",
"576 21 OFFCURVE",
"553 85 CURVE SMOOTH",
"335 700 LINE",
"326 704 OFFCURVE",
"318 706 OFFCURVE",
"310 706 CURVE SMOOTH",
"285 706 OFFCURVE",
"266 686 OFFCURVE",
"251 644 CURVE SMOOTH",
"26 0 LINE"
);
},
{
closed = 1;
nodes = (
"304 581 LINE",
"406 269 LINE",
"202 269 LINE"
);
},
{
closed = 1;
nodes = (
"323 752 LINE",
"363 752 LINE",
"312 910 LINE",
"216 910 LINE"
);
}
);
width = 587;
}
);
leftKerningGroup = A;
note = Agrave;
rightKerningGroup = A;
unicode = 00C0;
},
{
glyphname = Ahookabove;
layers = (
{
anchors = (
{
name = bottom;
position = "{294, 0}";
},
{
name = ogonek;
position = "{528, 11}";
},
{
name = top;
position = "{308, 937}";
}
);
layerId = "B248ED2E-FA6D-462F-83C4-0CD4D6FD5656";
paths = (
{
closed = 1;
nodes = (
"36 -5 OFFCURVE",
"52 -8 OFFCURVE",
"65 -8 CURVE SMOOTH",
"95 -8 OFFCURVE",
"113 8 OFFCURVE",
"125 43 CURVE SMOOTH",
"178 195 LINE",
"431 195 LINE",
"502 -6 LINE",
"549 -6 OFFCURVE",
"576 21 OFFCURVE",
"553 85 CURVE SMOOTH",
"335 700 LINE",
"326 704 OFFCURVE",
"318 706 OFFCURVE",
"310 706 CURVE SMOOTH",
"285 706 OFFCURVE",
"266 686 OFFCURVE",
"251 644 CURVE SMOOTH",
"26 0 LINE"
);
},
{
closed = 1;
nodes = (
"304 581 LINE",
"406 269 LINE",
"202 269 LINE"
);
},
{
closed = 1;
nodes = (
"247 879 OFFCURVE",
"259 881 OFFCURVE",
"271 881 CURVE SMOOTH",
"299 881 OFFCURVE",
"311 868 OFFCURVE",
"311 843 CURVE SMOOTH",
"311 812 OFFCURVE",
"293 775 OFFCURVE",
"258 752 CURVE",
"316 752 LINE",
"360 775 OFFCURVE",
"383 821 OFFCURVE",
"383 864 CURVE SMOOTH",
"383 914 OFFCURVE",
"352 937 OFFCURVE",
"301 937 CURVE SMOOTH",
"277 937 OFFCURVE",
"255 932 OFFCURVE",
"237 922 CURVE",
"237 875 LINE"
);
}
);
width = 587;
}
);
leftKerningGroup = A;
note = Ahookabove;
rightKerningGroup = A;
unicode = 1EA2;
},
{
glyphname = Amacron;
layers = (
{
anchors = (
{
name = bottom;
position = "{294, 0}";
},
{
name = ogonek;
position = "{528, 11}";
},
{
name = top;
position = "{304, 823}";
}
);
layerId = "B248ED2E-FA6D-462F-83C4-0CD4D6FD5656";
paths = (
{
closed = 1;
nodes = (
"36 -5 OFFCURVE",
"52 -8 OFFCURVE",
"65 -8 CURVE SMOOTH",
"95 -8 OFFCURVE",
"113 8 OFFCURVE",
"125 43 CURVE SMOOTH",
"178 195 LINE",
"431 195 LINE",
"502 -6 LINE",
"549 -6 OFFCURVE",
"576 21 OFFCURVE",
"553 85 CURVE SMOOTH",
"335 700 LINE",
"326 704 OFFCURVE",
"318 706 OFFCURVE",
"310 706 CURVE SMOOTH",
"285 706 OFFCURVE",
"266 686 OFFCURVE",
"251 644 CURVE SMOOTH",
"26 0 LINE"
);
},
{
closed = 1;
nodes = (
"456 772 LINE",
"456 822 LINE",
"152 822 LINE",
"152 772 LINE"
);
},
{
closed = 1;
nodes = (
"304 581 LINE",
"406 269 LINE",
"202 269 LINE"
);
}
);
width = 587;
}
);
leftKerningGroup = A;
note = Amacron;
rightKerningGroup = A;
unicode = 0100;
},
{
glyphname = Aogonek;
lastChange = "2018-03-13 07:04:02 +0000";
layers = (
{
anchors = (
{
name = bottom;
position = "{294, 0}";
},
{
name = ogonek;
position = "{528, 11}";
},
{
name = top;
position = "{304, 700}";
}
);
layerId = "B248ED2E-FA6D-462F-83C4-0CD4D6FD5656";
paths = (
{
closed = 1;
nodes = (
"36 -5 OFFCURVE",
"52 -8 OFFCURVE",
"65 -8 CURVE SMOOTH",
"95 -8 OFFCURVE",
"113 8 OFFCURVE",
"125 43 CURVE SMOOTH",
"178 195 LINE",
"431 195 LINE",
"498 6 LINE",
"470 -9 OFFCURVE",
"421 -43 OFFCURVE",
"421 -98 CURVE SMOOTH",
"421 -142 OFFCURVE",
"454 -174 OFFCURVE",
"505 -174 CURVE SMOOTH",
"532 -174 OFFCURVE",
"550 -168 OFFCURVE",
"567 -159 CURVE",
"567 -112 LINE",
"557 -116 OFFCURVE",
"547 -118 OFFCURVE",
"535 -118 CURVE SMOOTH",
"508 -118 OFFCURVE",
"493 -103 OFFCURVE",
"493 -76 CURVE SMOOTH",
"493 -46 OFFCURVE",
"511 -20 OFFCURVE",
"541 3 CURVE",
"561 16 OFFCURVE",
"568 42 OFFCURVE",
"553 85 CURVE SMOOTH",
"335 700 LINE",
"326 704 OFFCURVE",
"318 706 OFFCURVE",
"310 706 CURVE SMOOTH",
"285 706 OFFCURVE",
"266 686 OFFCURVE",
"251 644 CURVE SMOOTH",
"26 0 LINE"
);
},
{
closed = 1;
nodes = (
"304 581 LINE",
"406 269 LINE",
"202 269 LINE"
);
}
);
width = 587;
}
);
leftKerningGroup = A;
note = Aogonek;
rightKerningGroup = A;
unicode = 0104;
},
{
glyphname = Aring;
layers = (
{
anchors = (
{
name = bottom;
position = "{294, 0}";
},
{
name = ogonek;
position = "{528, 11}";
},
{
name = top;
position = "{304, 910}";
}
);
layerId = "B248ED2E-FA6D-462F-83C4-0CD4D6FD5656";
paths = (
{
closed = 1;
nodes = (
"36 -5 OFFCURVE",
"52 -8 OFFCURVE",
"65 -8 CURVE SMOOTH",
"95 -8 OFFCURVE",
"113 8 OFFCURVE",
"125 43 CURVE SMOOTH",
"178 195 LINE",
"431 195 LINE",
"502 -6 LINE",
"549 -6 OFFCURVE",
"576 21 OFFCURVE",
"553 85 CURVE SMOOTH",
"335 700 LINE",
"326 704 OFFCURVE",
"318 706 OFFCURVE",
"310 706 CURVE SMOOTH",
"285 706 OFFCURVE",
"266 686 OFFCURVE",
"251 644 CURVE SMOOTH",
"26 0 LINE"
);
},
{
closed = 1;
nodes = (
"304 581 LINE",
"406 269 LINE",
"202 269 LINE"
);
},
{
closed = 1;
nodes = (
"216 780 OFFCURVE",
"253 746 OFFCURVE",
"304 746 CURVE SMOOTH",
"354 746 OFFCURVE",
"390 780 OFFCURVE",
"390 828 CURVE SMOOTH",
"390 876 OFFCURVE",
"354 910 OFFCURVE",
"304 910 CURVE SMOOTH",
"253 910 OFFCURVE",
"216 876 OFFCURVE",
"216 828 CURVE SMOOTH"
);
},
{
closed = 1;
nodes = (
"260 855 OFFCURVE",
"278 874 OFFCURVE",
"304 874 CURVE SMOOTH",
"328 874 OFFCURVE",
"346 855 OFFCURVE",
"346 828 CURVE SMOOTH",
"346 801 OFFCURVE",
"328 782 OFFCURVE",
"304 782 CURVE SMOOTH",
"278 782 OFFCURVE",
"260 801 OFFCURVE",
"260 828 CURVE SMOOTH"
);
}
);
width = 587;
}
);
leftKerningGroup = A;
note = Aring;
rightKerningGroup = A;
unicode = 00C5;
},
{
glyphname = Aringacute;
lastChange = "2018-03-13 07:04:02 +0000";
layers = (
{
anchors = (
{
name = bottom;
position = "{294, 0}";
},
{
name = ogonek;
position = "{528, 11}";
},
{
name = top;
position = "{371, 1078}";
}
);
layerId = "B248ED2E-FA6D-462F-83C4-0CD4D6FD5656";
paths = (
{
closed = 1;
nodes = (
"36 -5 OFFCURVE",
"52 -8 OFFCURVE",
"65 -8 CURVE SMOOTH",
"95 -8 OFFCURVE",
"113 8 OFFCURVE",
"125 43 CURVE SMOOTH",
"178 195 LINE",
"431 195 LINE",
"502 -6 LINE",
"549 -6 OFFCURVE",
"576 21 OFFCURVE",
"553 85 CURVE SMOOTH",
"335 700 LINE",
"326 704 OFFCURVE",
"318 706 OFFCURVE",
"310 706 CURVE SMOOTH",
"285 706 OFFCURVE",
"266 686 OFFCURVE",
"251 644 CURVE SMOOTH",
"26 0 LINE"
);
},
{
closed = 1;
nodes = (
"304 581 LINE",
"406 269 LINE",
"202 269 LINE"
);
},
{
closed = 1;
nodes = (
"216 780 OFFCURVE",
"253 746 OFFCURVE",
"304 746 CURVE SMOOTH",
"354 746 OFFCURVE",
"390 780 OFFCURVE",
"390 828 CURVE SMOOTH",
"390 876 OFFCURVE",
"354 910 OFFCURVE",
"304 910 CURVE SMOOTH",
"253 910 OFFCURVE",
"216 876 OFFCURVE",
"216 828 CURVE SMOOTH"
);
},
{
closed = 1;
nodes = (
"260 855 OFFCURVE",
"278 874 OFFCURVE",
"304 874 CURVE SMOOTH",
"328 874 OFFCURVE",
"346 855 OFFCURVE",
"346 828 CURVE SMOOTH",
"346 801 OFFCURVE",
"328 782 OFFCURVE",
"304 782 CURVE SMOOTH",
"278 782 OFFCURVE",
"260 801 OFFCURVE",
"260 828 CURVE SMOOTH"
);
},
{
closed = 1;
nodes = (
"325 952 LINE",
"411 1078 LINE",
"334 1078 LINE",
"293 952 LINE"
);
}
);
width = 587;
}
);
leftKerningGroup = A;
note = Aringacute;
rightKerningGroup = A;
unicode = 01FA;
},
{
glyphname = Atilde;
layers = (
{
anchors = (
{
name = bottom;
position = "{294, 0}";
},
{
name = ogonek;
position = "{528, 11}";
},
{
name = top;
position = "{304, 878}";
}
);
layerId = "B248ED2E-FA6D-462F-83C4-0CD4D6FD5656";
paths = (
{
closed = 1;
nodes = (
"36 -5 OFFCURVE",
"52 -8 OFFCURVE",
"65 -8 CURVE SMOOTH",
"95 -8 OFFCURVE",
"113 8 OFFCURVE",
"125 43 CURVE SMOOTH",
"178 195 LINE",
"431 195 LINE",
"502 -6 LINE",
"549 -6 OFFCURVE",
"576 21 OFFCURVE",
"553 85 CURVE SMOOTH",
"335 700 LINE",
"326 704 OFFCURVE",
"318 706 OFFCURVE",
"310 706 CURVE SMOOTH",
"285 706 OFFCURVE",
"266 686 OFFCURVE",
"251 644 CURVE SMOOTH",
"26 0 LINE"
);
},
{
closed = 1;
nodes = (
"193 752 LINE",
"206 784 OFFCURVE",
"221 802 OFFCURVE",
"246 802 CURVE SMOOTH",
"287 802 OFFCURVE",
"310 752 OFFCURVE",
"364 752 CURVE SMOOTH",
"409 752 OFFCURVE",
"453 786 OFFCURVE",
"458 868 CURVE",
"415 868 LINE",
"403 836 OFFCURVE",
"387 818 OFFCURVE",
"362 818 CURVE SMOOTH",
"320 818 OFFCURVE",
"298 868 OFFCURVE",
"245 868 CURVE SMOOTH",
"199 868 OFFCURVE",
"156 832 OFFCURVE",
"150 752 CURVE"
);
},
{
closed = 1;
nodes = (
"304 581 LINE",
"406 269 LINE",
"202 269 LINE"
);
}
);
width = 587;
}
);
leftKerningGroup = A;
note = Atilde;
rightKerningGroup = A;
unicode = 00C3;
},
{
glyphname = AE;
layers = (
{
anchors = (
{
name = bottom;
position = "{420, 0}";
},
{
name = top;
position = "{494, 700}";
}
);
layerId = "B248ED2E-FA6D-462F-83C4-0CD4D6FD5656";
paths = (
{
closed = 1;
nodes = (
"36 -5 OFFCURVE",
"52 -8 OFFCURVE",
"65 -8 CURVE SMOOTH",
"95 -8 OFFCURVE",
"113 8 OFFCURVE",
"125 43 CURVE SMOOTH",
"178 195 LINE",
"406 195 LINE",
"406 177 LINE SMOOTH",
"406 98 OFFCURVE",
"398 62 OFFCURVE",
"364 21 CURVE",
"372 0 LINE",
"753 0 LINE SMOOTH",
"786 0 OFFCURVE",
"810 17 OFFCURVE",
"810 50 CURVE SMOOTH",
"810 57 OFFCURVE",
"809 67 OFFCURVE",
"806 76 CURVE",
"479 76 LINE",
"493 108 OFFCURVE",
"494 143 OFFCURVE",
"494 177 CURVE SMOOTH",
"494 320 LINE",
"705 320 LINE SMOOTH",
"738 320 OFFCURVE",
"762 337 OFFCURVE",
"762 370 CURVE SMOOTH",
"762 377 OFFCURVE",
"761 387 OFFCURVE",
"758 396 CURVE",
"494 396 LINE",
"494 624 LINE",
"737 624 LINE SMOOTH",
"770 624 OFFCURVE",
"794 641 OFFCURVE",
"794 674 CURVE SMOOTH",
"794 681 OFFCURVE",
"793 691 OFFCURVE",
"790 700 CURVE",
"330 700 LINE SMOOTH",
"292 700 OFFCURVE",
"263 677 OFFCURVE",
"248 635 CURVE SMOOTH",
"26 0 LINE"
);
},
{
closed = 1;
nodes = (
"316 619 LINE",
"406 619 LINE",
"406 269 LINE",
"202 269 LINE"
);
}
);
width = 840;
}
);
leftMetricsKey = A;
note = AE;
rightMetricsKey = E;
unicode = 00C6;
},
{
glyphname = AEacute;
layers = (
{
anchors = (
{
name = bottom;
position = "{420, 0}";
},
{
name = top;
position = "{538, 910}";
}
);
layerId = "B248ED2E-FA6D-462F-83C4-0CD4D6FD5656";
paths = (
{
closed = 1;
nodes = (
"36 -5 OFFCURVE",
"52 -8 OFFCURVE",
"65 -8 CURVE SMOOTH",
"95 -8 OFFCURVE",
"113 8 OFFCURVE",
"125 43 CURVE SMOOTH",
"178 195 LINE",
"406 195 LINE",
"406 177 LINE SMOOTH",
"406 98 OFFCURVE",
"398 62 OFFCURVE",
"364 21 CURVE",
"372 0 LINE",
"753 0 LINE SMOOTH",
"786 0 OFFCURVE",
"810 17 OFFCURVE",
"810 50 CURVE SMOOTH",
"810 57 OFFCURVE",
"809 67 OFFCURVE",
"806 76 CURVE",
"479 76 LINE",
"493 108 OFFCURVE",
"494 143 OFFCURVE",
"494 177 CURVE SMOOTH",
"494 320 LINE",
"705 320 LINE SMOOTH",
"738 320 OFFCURVE",
"762 337 OFFCURVE",
"762 370 CURVE SMOOTH",
"762 377 OFFCURVE",
"761 387 OFFCURVE",
"758 396 CURVE",
"494 396 LINE",
"494 624 LINE",
"737 624 LINE SMOOTH",
"770 624 OFFCURVE",
"794 641 OFFCURVE",
"794 674 CURVE SMOOTH",
"794 681 OFFCURVE",
"793 691 OFFCURVE",
"790 700 CURVE",
"330 700 LINE SMOOTH",
"292 700 OFFCURVE",
"263 677 OFFCURVE",
"248 635 CURVE SMOOTH",
"26 0 LINE"
);
},
{
closed = 1;
nodes = (
"316 619 LINE",
"406 619 LINE",
"406 269 LINE",
"202 269 LINE"
);
},
{
closed = 1;
nodes = (
"481 752 LINE",
"588 910 LINE",
"492 910 LINE",
"441 752 LINE"
);
}
);
width = 840;
}
);
leftKerningGroup = A;
note = AEacute;
unicode = 01FC;
},
{
glyphname = B;
lastChange = "2018-03-13 07:04:02 +0000";
layers = (
{
anchors = (
{
name = bottom;
position = "{290, 0}";
},
{
name = top;
position = "{290, 700}";
}
);
layerId = "B248ED2E-FA6D-462F-83C4-0CD4D6FD5656";
paths = (
{
closed = 1;
nodes = (
"52 -2 LINE",
"121 -2 OFFCURVE",
"200 -12 OFFCURVE",
"264 -12 CURVE SMOOTH",
"444 -12 OFFCURVE",
"538 67 OFFCURVE",
"538 192 CURVE SMOOTH",
"538 288 OFFCURVE",
"483 344 OFFCURVE",
"399 364 CURVE",
"471 395 OFFCURVE",
"504 441 OFFCURVE",
"504 515 CURVE SMOOTH",
"504 636 OFFCURVE",
"415 714 OFFCURVE",
"249 714 CURVE SMOOTH",
"189 714 OFFCURVE",
"122 704 OFFCURVE",
"52 704 CURVE",
"44 683 LINE",
"78 642 OFFCURVE",
"86 602 OFFCURVE",
"86 514 CURVE SMOOTH",
"86 188 LINE SMOOTH",
"86 100 OFFCURVE",
"78 60 OFFCURVE",
"44 19 CURVE"
);
},
{
closed = 1;
nodes = (
"173 105 OFFCURVE",
"174 147 OFFCURVE",
"174 188 CURVE SMOOTH",
"174 324 LINE",
"311 324 LINE SMOOTH",
"399 324 OFFCURVE",
"448 278 OFFCURVE",
"448 198 CURVE SMOOTH",
"448 110 OFFCURVE",
"390 62 OFFCURVE",
"274 62 CURVE SMOOTH",
"239 62 OFFCURVE",
"197 66 OFFCURVE",
"159 69 CURVE"
);
},
{
closed = 1;
nodes = (
"196 636 OFFCURVE",
"231 640 OFFCURVE",
"265 640 CURVE SMOOTH",
"372 640 OFFCURVE",
"414 594 OFFCURVE",
"414 514 CURVE SMOOTH",
"414 437 OFFCURVE",
"375 396 OFFCURVE",
"306 396 CURVE SMOOTH",
"174 396 LINE",
"174 514 LINE SMOOTH",
"174 555 OFFCURVE",
"173 597 OFFCURVE",
"159 633 CURVE"
);
}
);
width = 580;
}
);
leftKerningGroup = E;
leftMetricsKey = E;
note = B;
rightKerningGroup = B;
unicode = 0042;
},
{
glyphname = C;
layers = (
{
anchors = (
{
name = bottom;
position = "{364, 0}";
},
{
name = top;
position = "{366, 700}";
}
);
layerId = "B248ED2E-FA6D-462F-83C4-0CD4D6FD5656";
paths = (
{
closed = 1;
nodes = (
"46 139 OFFCURVE",
"161 -12 OFFCURVE",
"366 -12 CURVE SMOOTH",
"495 -12 OFFCURVE",
"599 48 OFFCURVE",
"599 119 CURVE SMOOTH",
"599 136 OFFCURVE",
"593 160 OFFCURVE",
"562 169 CURVE",
"524 110 OFFCURVE",
"455 62 OFFCURVE",
"365 62 CURVE SMOOTH",
"219 62 OFFCURVE",
"138 189 OFFCURVE",
"138 350 CURVE SMOOTH",
"138 511 OFFCURVE",
"219 640 OFFCURVE",
"365 640 CURVE SMOOTH",
"449 640 OFFCURVE",
"522 597 OFFCURVE",
"562 533 CURVE",
"593 542 OFFCURVE",
"599 566 OFFCURVE",
"599 583 CURVE SMOOTH",
"599 655 OFFCURVE",
"495 714 OFFCURVE",
"367 714 CURVE SMOOTH",
"161 714 OFFCURVE",
"46 561 OFFCURVE",
"46 350 CURVE SMOOTH"
);
}
);
width = 645;
}
);
leftKerningGroup = O;
leftMetricsKey = O;
note = C;
rightKerningGroup = C;
unicode = 0043;
},
{
glyphname = Cacute;
layers = (
{
anchors = (
{
name = bottom;
position = "{364, 0}";
},
{
name = top;
position = "{410, 910}";
}
);
layerId = "B248ED2E-FA6D-462F-83C4-0CD4D6FD5656";
paths = (
{
closed = 1;
nodes = (
"46 139 OFFCURVE",
"161 -12 OFFCURVE",
"366 -12 CURVE SMOOTH",
"495 -12 OFFCURVE",
"599 48 OFFCURVE",
"599 119 CURVE SMOOTH",
"599 136 OFFCURVE",
"593 160 OFFCURVE",
"562 169 CURVE",
"524 110 OFFCURVE",
"455 62 OFFCURVE",
"365 62 CURVE SMOOTH",
"219 62 OFFCURVE",
"138 189 OFFCURVE",
"138 350 CURVE SMOOTH",
"138 511 OFFCURVE",
"219 640 OFFCURVE",
"365 640 CURVE SMOOTH",
"449 640 OFFCURVE",
"522 597 OFFCURVE",
"562 533 CURVE",
"593 542 OFFCURVE",
"599 566 OFFCURVE",
"599 583 CURVE SMOOTH",
"599 655 OFFCURVE",
"495 714 OFFCURVE",
"367 714 CURVE SMOOTH",
"161 714 OFFCURVE",
"46 561 OFFCURVE",
"46 350 CURVE SMOOTH"
);
},
{
closed = 1;
nodes = (
"353 752 LINE",
"460 910 LINE",
"364 910 LINE",
"313 752 LINE"
);
}
);
width = 645;
}
);
leftKerningGroup = C;
note = Cacute;
unicode = 0106;
},
{
glyphname = Ccaron;
layers = (
{
anchors = (
{
name = bottom;
position = "{364, 0}";
},
{
name = top;
position = "{366, 910}";
}
);
layerId = "B248ED2E-FA6D-462F-83C4-0CD4D6FD5656";
paths = (
{
closed = 1;
nodes = (
"46 139 OFFCURVE",
"161 -12 OFFCURVE",
"366 -12 CURVE SMOOTH",
"495 -12 OFFCURVE",
"599 48 OFFCURVE",
"599 119 CURVE SMOOTH",
"599 136 OFFCURVE",
"593 160 OFFCURVE",
"562 169 CURVE",
"524 110 OFFCURVE",
"455 62 OFFCURVE",
"365 62 CURVE SMOOTH",
"219 62 OFFCURVE",
"138 189 OFFCURVE",
"138 350 CURVE SMOOTH",
"138 511 OFFCURVE",
"219 640 OFFCURVE",
"365 640 CURVE SMOOTH",
"449 640 OFFCURVE",
"522 597 OFFCURVE",
"562 533 CURVE",
"593 542 OFFCURVE",
"599 566 OFFCURVE",
"599 583 CURVE SMOOTH",
"599 655 OFFCURVE",
"495 714 OFFCURVE",
"367 714 CURVE SMOOTH",
"161 714 OFFCURVE",
"46 561 OFFCURVE",
"46 350 CURVE SMOOTH"
);
},
{
closed = 1;
nodes = (
"326 752 LINE",
"406 752 LINE",
"526 900 LINE",
"486 900 LINE",
"366 812 LINE",
"246 900 LINE",
"206 900 LINE"
);
}
);
width = 645;
}
);
leftKerningGroup = C;
note = Ccaron;
unicode = 010C;
},
{
glyphname = Ccedilla;
lastChange = "2018-03-13 07:04:02 +0000";
layers = (
{
anchors = (
{
name = bottom;
position = "{342, -195}";
},
{
name = top;
position = "{366, 700}";
}
);
layerId = "B248ED2E-FA6D-462F-83C4-0CD4D6FD5656";
paths = (
{
closed = 1;
nodes = (
"46 149 OFFCURVE",
"150 3 OFFCURVE",
"337 -11 CURVE",
"286 -74 LINE",
"300 -91 LINE",
"312 -88 OFFCURVE",
"323 -86 OFFCURVE",
"335 -86 CURVE SMOOTH",
"364 -86 OFFCURVE",
"378 -98 OFFCURVE",
"378 -116 CURVE SMOOTH",
"378 -138 OFFCURVE",
"357 -151 OFFCURVE",
"323 -151 CURVE SMOOTH",
"300 -151 OFFCURVE",
"281 -145 OFFCURVE",
"262 -138 CURVE",
"262 -173 LINE",
"281 -185 OFFCURVE",
"305 -195 OFFCURVE",
"342 -195 CURVE SMOOTH",
"406 -195 OFFCURVE",
"446 -167 OFFCURVE",
"446 -122 CURVE SMOOTH",
"446 -79 OFFCURVE",
"409 -51 OFFCURVE",
"350 -51 CURVE",
"382 -12 LINE",
"503 -7 OFFCURVE",
"599 51 OFFCURVE",
"599 119 CURVE SMOOTH",
"599 136 OFFCURVE",
"593 160 OFFCURVE",
"562 169 CURVE",
"524 110 OFFCURVE",
"455 62 OFFCURVE",
"365 62 CURVE SMOOTH",
"219 62 OFFCURVE",
"138 189 OFFCURVE",
"138 350 CURVE SMOOTH",
"138 511 OFFCURVE",
"219 640 OFFCURVE",
"365 640 CURVE SMOOTH",
"449 640 OFFCURVE",
"522 597 OFFCURVE",
"562 533 CURVE",
"593 542 OFFCURVE",
"599 566 OFFCURVE",
"599 583 CURVE SMOOTH",
"599 655 OFFCURVE",
"495 714 OFFCURVE",
"367 714 CURVE SMOOTH",
"161 714 OFFCURVE",
"46 561 OFFCURVE",
"46 350 CURVE SMOOTH"
);
}
);
width = 645;
}
);
leftKerningGroup = C;
note = Ccedilla;
unicode = 00C7;
},
{
glyphname = Ccircumflex;
layers = (
{
anchors = (
{
name = bottom;
position = "{364, 0}";
},
{
name = top;
position = "{366, 900}";
}
);
layerId = "B248ED2E-FA6D-462F-83C4-0CD4D6FD5656";
paths = (
{
closed = 1;
nodes = (
"46 139 OFFCURVE",
"161 -12 OFFCURVE",
"366 -12 CURVE SMOOTH",
"495 -12 OFFCURVE",
"599 48 OFFCURVE",
"599 119 CURVE SMOOTH",
"599 136 OFFCURVE",
"593 160 OFFCURVE",
"562 169 CURVE",
"524 110 OFFCURVE",
"455 62 OFFCURVE",
"365 62 CURVE SMOOTH",
"219 62 OFFCURVE",
"138 189 OFFCURVE",
"138 350 CURVE SMOOTH",
"138 511 OFFCURVE",
"219 640 OFFCURVE",
"365 640 CURVE SMOOTH",
"449 640 OFFCURVE",
"522 597 OFFCURVE",
"562 533 CURVE",
"593 542 OFFCURVE",
"599 566 OFFCURVE",
"599 583 CURVE SMOOTH",
"599 655 OFFCURVE",
"495 714 OFFCURVE",
"367 714 CURVE SMOOTH",
"161 714 OFFCURVE",
"46 561 OFFCURVE",
"46 350 CURVE SMOOTH"
);
},
{
closed = 1;
nodes = (
"246 752 LINE",
"366 840 LINE",
"486 752 LINE",
"526 752 LINE",
"406 900 LINE",
"326 900 LINE",
"206 752 LINE"
);
}
);
width = 645;
}
);
leftKerningGroup = C;
note = Ccircumflex;
unicode = 0108;
},
{
glyphname = Cdotaccent;
layers = (
{
anchors = (
{
name = bottom;
position = "{364, 0}";
},
{
name = top;
position = "{367, 877}";
}
);
layerId = "B248ED2E-FA6D-462F-83C4-0CD4D6FD5656";
paths = (
{
closed = 1;
nodes = (
"46 139 OFFCURVE",
"161 -12 OFFCURVE",
"366 -12 CURVE SMOOTH",
"495 -12 OFFCURVE",
"599 48 OFFCURVE",
"599 119 CURVE SMOOTH",
"599 136 OFFCURVE",
"593 160 OFFCURVE",
"562 169 CURVE",
"524 110 OFFCURVE",
"455 62 OFFCURVE",
"365 62 CURVE SMOOTH",
"219 62 OFFCURVE",
"138 189 OFFCURVE",
"138 350 CURVE SMOOTH",
"138 511 OFFCURVE",
"219 640 OFFCURVE",
"365 640 CURVE SMOOTH",
"449 640 OFFCURVE",
"522 597 OFFCURVE",
"562 533 CURVE",
"593 542 OFFCURVE",
"599 566 OFFCURVE",
"599 583 CURVE SMOOTH",
"599 655 OFFCURVE",
"495 714 OFFCURVE",
"367 714 CURVE SMOOTH",
"161 714 OFFCURVE",
"46 561 OFFCURVE",
"46 350 CURVE SMOOTH"
);
},
{
closed = 1;
nodes = (
"304 778 OFFCURVE",
"328 753 OFFCURVE",
"367 753 CURVE SMOOTH",
"404 753 OFFCURVE",
"428 778 OFFCURVE",
"428 814 CURVE SMOOTH",
"428 852 OFFCURVE",
"404 877 OFFCURVE",
"367 877 CURVE SMOOTH",
"328 877 OFFCURVE",
"304 852 OFFCURVE",
"304 814 CURVE SMOOTH"
);
}
);
width = 645;
}
);
leftKerningGroup = C;
note = Cdotaccent;
unicode = 010A;
},
{
glyphname = D;
lastChange = "2018-03-13 07:04:02 +0000";
layers = (
{
anchors = (
{
name = bottom;
position = "{290, 0}";
},
{
name = center;
position = "{320, 350}";
},
{
name = top;
position = "{290, 700}";
}
);
layerId = "B248ED2E-FA6D-462F-83C4-0CD4D6FD5656";
paths = (
{
closed = 1;
nodes = (
"52 -2 LINE",
"118 -2 OFFCURVE",
"196 -12 OFFCURVE",
"253 -12 CURVE SMOOTH",
"469 -12 OFFCURVE",
"594 129 OFFCURVE",
"594 351 CURVE SMOOTH",
"594 573 OFFCURVE",
"469 714 OFFCURVE",
"253 714 CURVE SMOOTH",
"196 714 OFFCURVE",
"118 704 OFFCURVE",
"52 704 CURVE",
"44 683 LINE",
"78 642 OFFCURVE",
"86 602 OFFCURVE",
"86 514 CURVE SMOOTH",
"86 188 LINE SMOOTH",
"86 100 OFFCURVE",
"78 60 OFFCURVE",
"44 19 CURVE"
);
},
{
closed = 1;
nodes = (
"192 636 OFFCURVE",
"223 640 OFFCURVE",
"255 640 CURVE SMOOTH",
"415 640 OFFCURVE",
"502 537 OFFCURVE",
"502 351 CURVE SMOOTH",
"502 165 OFFCURVE",
"415 62 OFFCURVE",
"255 62 CURVE SMOOTH",
"223 62 OFFCURVE",
"192 66 OFFCURVE",
"159 69 CURVE",
"173 105 OFFCURVE",
"174 147 OFFCURVE",
"174 188 CURVE SMOOTH",
"174 514 LINE SMOOTH",
"174 555 OFFCURVE",
"173 597 OFFCURVE",
"159 633 CURVE"
);
}
);
width = 640;
}
);
leftKerningGroup = E;
leftMetricsKey = E;
note = D;
rightKerningGroup = O;
rightMetricsKey = O;
unicode = 0044;
},
{
glyphname = Eth;
lastChange = "2018-03-13 07:04:02 +0000";
layers = (
{
anchors = (
{
name = bottom;
position = "{320, 0}";
},
{
name = center;
position = "{350, 350}";
},
{
name = top;
position = "{320, 700}";
}
);
layerId = "B248ED2E-FA6D-462F-83C4-0CD4D6FD5656";
paths = (
{
closed = 1;
nodes = (
"116 320 LINE",
"116 188 LINE SMOOTH",
"116 100 OFFCURVE",
"108 60 OFFCURVE",
"74 19 CURVE",
"82 -2 LINE",
"148 -2 OFFCURVE",
"226 -12 OFFCURVE",
"283 -12 CURVE SMOOTH",
"499 -12 OFFCURVE",
"624 129 OFFCURVE",
"624 351 CURVE SMOOTH",
"624 573 OFFCURVE",
"499 714 OFFCURVE",
"283 714 CURVE SMOOTH",
"226 714 OFFCURVE",
"148 704 OFFCURVE",
"82 704 CURVE",
"74 683 LINE",
"108 642 OFFCURVE",
"116 602 OFFCURVE",
"116 514 CURVE SMOOTH",
"116 380 LINE",
"30 380 LINE",
"30 320 LINE"
);
},
{
closed = 1;
nodes = (
"203 105 OFFCURVE",
"204 147 OFFCURVE",
"204 188 CURVE SMOOTH",
"204 320 LINE",
"380 320 LINE",
"380 380 LINE",
"204 380 LINE",
"204 514 LINE SMOOTH",
"204 555 OFFCURVE",
"203 597 OFFCURVE",
"189 633 CURVE",
"222 636 OFFCURVE",
"253 640 OFFCURVE",
"285 640 CURVE SMOOTH",
"445 640 OFFCURVE",
"532 537 OFFCURVE",
"532 351 CURVE SMOOTH",
"532 165 OFFCURVE",
"445 62 OFFCURVE",
"285 62 CURVE SMOOTH",
"253 62 OFFCURVE",
"222 66 OFFCURVE",
"189 69 CURVE"
);
}
);
width = 670;
}
);
note = Eth;
rightMetricsKey = D;
unicode = 00D0;
},
{
glyphname = Dcaron;
lastChange = "2018-03-13 07:04:02 +0000";
layers = (
{
anchors = (
{
name = bottom;
position = "{290, 0}";
},
{
name = center;
position = "{320, 350}";
},
{
name = top;
position = "{290, 910}";
}
);
layerId = "B248ED2E-FA6D-462F-83C4-0CD4D6FD5656";
paths = (
{
closed = 1;
nodes = (
"52 -2 LINE",
"118 -2 OFFCURVE",
"196 -12 OFFCURVE",
"253 -12 CURVE SMOOTH",
"469 -12 OFFCURVE",
"594 129 OFFCURVE",
"594 351 CURVE SMOOTH",
"594 573 OFFCURVE",
"469 714 OFFCURVE",
"253 714 CURVE SMOOTH",
"196 714 OFFCURVE",
"118 704 OFFCURVE",
"52 704 CURVE",
"44 683 LINE",
"78 642 OFFCURVE",
"86 602 OFFCURVE",
"86 514 CURVE SMOOTH",
"86 188 LINE SMOOTH",
"86 100 OFFCURVE",
"78 60 OFFCURVE",
"44 19 CURVE"
);
},
{
closed = 1;
nodes = (
"250 752 LINE",
"330 752 LINE",
"450 900 LINE",
"410 900 LINE",
"290 812 LINE",
"170 900 LINE",
"130 900 LINE"
);
},
{
closed = 1;
nodes = (
"192 636 OFFCURVE",
"223 640 OFFCURVE",
"255 640 CURVE SMOOTH",
"415 640 OFFCURVE",
"502 537 OFFCURVE",
"502 351 CURVE SMOOTH",
"502 165 OFFCURVE",
"415 62 OFFCURVE",
"255 62 CURVE SMOOTH",
"223 62 OFFCURVE",
"192 66 OFFCURVE",
"159 69 CURVE",
"173 105 OFFCURVE",
"174 147 OFFCURVE",
"174 188 CURVE SMOOTH",
"174 514 LINE SMOOTH",
"174 555 OFFCURVE",
"173 597 OFFCURVE",
"159 633 CURVE"
);
}
);
width = 640;
}
);
note = Dcaron;
rightKerningGroup = D;
unicode = 010E;
},
{
glyphname = Dcroat;
lastChange = "2018-03-13 07:04:02 +0000";
layers = (
{
anchors = (
{
name = bottom;
position = "{320, 0}";
},
{
name = center;
position = "{350, 350}";
},
{
name = top;
position = "{320, 700}";
}
);
layerId = "B248ED2E-FA6D-462F-83C4-0CD4D6FD5656";
paths = (
{
closed = 1;
nodes = (
"116 320 LINE",
"116 188 LINE SMOOTH",
"116 100 OFFCURVE",
"108 60 OFFCURVE",
"74 19 CURVE",
"82 -2 LINE",
"148 -2 OFFCURVE",
"226 -12 OFFCURVE",
"283 -12 CURVE SMOOTH",
"499 -12 OFFCURVE",
"624 129 OFFCURVE",
"624 351 CURVE SMOOTH",
"624 573 OFFCURVE",
"499 714 OFFCURVE",
"283 714 CURVE SMOOTH",
"226 714 OFFCURVE",
"148 704 OFFCURVE",
"82 704 CURVE",
"74 683 LINE",
"108 642 OFFCURVE",
"116 602 OFFCURVE",
"116 514 CURVE SMOOTH",
"116 380 LINE",
"30 380 LINE",
"30 320 LINE"
);
},
{
closed = 1;
nodes = (
"203 105 OFFCURVE",
"204 147 OFFCURVE",
"204 188 CURVE SMOOTH",
"204 320 LINE",
"380 320 LINE",
"380 380 LINE",
"204 380 LINE",
"204 514 LINE SMOOTH",
"204 555 OFFCURVE",
"203 597 OFFCURVE",
"189 633 CURVE",
"222 636 OFFCURVE",
"253 640 OFFCURVE",
"285 640 CURVE SMOOTH",
"445 640 OFFCURVE",
"532 537 OFFCURVE",
"532 351 CURVE SMOOTH",
"532 165 OFFCURVE",
"445 62 OFFCURVE",
"285 62 CURVE SMOOTH",
"253 62 OFFCURVE",
"222 66 OFFCURVE",
"189 69 CURVE"
);
}
);
width = 670;
}
);
note = Dcroat;
unicode = 0110;
},
{
glyphname = Ddotbelow;
lastChange = "2018-03-13 07:04:02 +0000";
layers = (
{
anchors = (
{
name = bottom;
position = "{290, -175}";
},
{
name = center;
position = "{320, 350}";
},
{
name = top;
position = "{290, 700}";
}
);
layerId = "B248ED2E-FA6D-462F-83C4-0CD4D6FD5656";
paths = (
{
closed = 1;
nodes = (
"52 -2 LINE",
"118 -2 OFFCURVE",
"196 -12 OFFCURVE",
"253 -12 CURVE SMOOTH",
"469 -12 OFFCURVE",
"594 129 OFFCURVE",
"594 351 CURVE SMOOTH",
"594 573 OFFCURVE",
"469 714 OFFCURVE",
"253 714 CURVE SMOOTH",
"196 714 OFFCURVE",
"118 704 OFFCURVE",
"52 704 CURVE",
"44 683 LINE",
"78 642 OFFCURVE",
"86 602 OFFCURVE",
"86 514 CURVE SMOOTH",
"86 188 LINE SMOOTH",
"86 100 OFFCURVE",
"78 60 OFFCURVE",
"44 19 CURVE"
);
},
{
closed = 1;
nodes = (
"192 636 OFFCURVE",
"223 640 OFFCURVE",
"255 640 CURVE SMOOTH",
"415 640 OFFCURVE",
"502 537 OFFCURVE",
"502 351 CURVE SMOOTH",
"502 165 OFFCURVE",
"415 62 OFFCURVE",
"255 62 CURVE SMOOTH",
"223 62 OFFCURVE",
"192 66 OFFCURVE",
"159 69 CURVE",
"173 105 OFFCURVE",
"174 147 OFFCURVE",
"174 188 CURVE SMOOTH",
"174 514 LINE SMOOTH",
"174 555 OFFCURVE",
"173 597 OFFCURVE",
"159 633 CURVE"
);
},
{
closed = 1;
nodes = (
"228 -150 OFFCURVE",
"252 -175 OFFCURVE",
"291 -175 CURVE SMOOTH",
"328 -175 OFFCURVE",
"352 -150 OFFCURVE",
"352 -114 CURVE SMOOTH",
"352 -76 OFFCURVE",
"328 -51 OFFCURVE",
"291 -51 CURVE SMOOTH",
"252 -51 OFFCURVE",
"228 -76 OFFCURVE",
"228 -114 CURVE SMOOTH"
);
}
);
width = 640;
}
);
note = Ddotbelow;
rightKerningGroup = D;
unicode = 1E0C;
},
{
glyphname = Dlinebelow;
lastChange = "2018-03-13 07:04:02 +0000";
layers = (
{
anchors = (
{
name = bottom;
position = "{290, -110}";
},
{
name = center;
position = "{320, 350}";
},
{
name = top;
position = "{290, 700}";
}
);
layerId = "B248ED2E-FA6D-462F-83C4-0CD4D6FD5656";
paths = (
{
closed = 1;
nodes = (
"52 -2 LINE",
"118 -2 OFFCURVE",
"196 -12 OFFCURVE",
"253 -12 CURVE SMOOTH",
"469 -12 OFFCURVE",
"594 129 OFFCURVE",
"594 351 CURVE SMOOTH",
"594 573 OFFCURVE",
"469 714 OFFCURVE",
"253 714 CURVE SMOOTH",
"196 714 OFFCURVE",
"118 704 OFFCURVE",
"52 704 CURVE",
"44 683 LINE",
"78 642 OFFCURVE",
"86 602 OFFCURVE",
"86 514 CURVE SMOOTH",
"86 188 LINE SMOOTH",
"86 100 OFFCURVE",
"78 60 OFFCURVE",
"44 19 CURVE"
);
},
{
closed = 1;
nodes = (
"442 -122 LINE",
"442 -72 LINE",
"138 -72 LINE",
"138 -122 LINE"
);
},
{
closed = 1;
nodes = (
"192 636 OFFCURVE",
"223 640 OFFCURVE",
"255 640 CURVE SMOOTH",
"415 640 OFFCURVE",
"502 537 OFFCURVE",
"502 351 CURVE SMOOTH",
"502 165 OFFCURVE",
"415 62 OFFCURVE",
"255 62 CURVE SMOOTH",
"223 62 OFFCURVE",
"192 66 OFFCURVE",
"159 69 CURVE",
"173 105 OFFCURVE",
"174 147 OFFCURVE",
"174 188 CURVE SMOOTH",
"174 514 LINE SMOOTH",
"174 555 OFFCURVE",
"173 597 OFFCURVE",
"159 633 CURVE"
);
}
);
width = 640;
}
);
note = Dlinebelow;
rightKerningGroup = D;
unicode = 1E0E;
},
{
glyphname = E;
lastChange = "2018-03-13 07:04:02 +0000";
layers = (
{
anchors = (
{
name = bottom;
position = "{276, 0}";
},
{
name = ogonek;
position = "{434, 10}";
},
{
name = top;
position = "{276, 700}";
},
{
name = topleft;
position = "{20, 700}";
}
);
layerId = "B248ED2E-FA6D-462F-83C4-0CD4D6FD5656";
paths = (
{
closed = 1;
nodes = (
"52 0 LINE",
"433 0 LINE SMOOTH",
"466 0 OFFCURVE",
"490 17 OFFCURVE",
"490 50 CURVE SMOOTH",
"490 57 OFFCURVE",
"489 67 OFFCURVE",
"486 76 CURVE",
"159 76 LINE",
"173 108 OFFCURVE",
"174 143 OFFCURVE",
"174 177 CURVE SMOOTH",
"174 320 LINE",
"385 320 LINE SMOOTH",
"418 320 OFFCURVE",
"442 337 OFFCURVE",
"442 370 CURVE SMOOTH",
"442 377 OFFCURVE",
"441 387 OFFCURVE",
"438 396 CURVE",
"174 396 LINE",
"174 523 LINE SMOOTH",
"174 557 OFFCURVE",
"173 592 OFFCURVE",
"159 624 CURVE",
"417 624 LINE SMOOTH",
"450 624 OFFCURVE",
"474 641 OFFCURVE",
"474 674 CURVE SMOOTH",
"474 681 OFFCURVE",
"473 691 OFFCURVE",
"470 700 CURVE",
"52 700 LINE",
"44 679 LINE",
"78 638 OFFCURVE",
"86 602 OFFCURVE",
"86 523 CURVE SMOOTH",
"86 177 LINE SMOOTH",
"86 98 OFFCURVE",
"78 62 OFFCURVE",
"44 21 CURVE"
);
}
);
width = 520;
}
);
leftKerningGroup = E;
note = E;
rightKerningGroup = E;
unicode = 0045;
},
{
glyphname = Eacute;
lastChange = "2018-03-13 07:04:02 +0000";
layers = (
{
anchors = (
{
name = bottom;
position = "{276, 0}";
},
{
name = ogonek;
position = "{434, 10}";
},
{
name = top;
position = "{320, 910}";
},
{
name = topleft;
position = "{20, 700}";
}
);
layerId = "B248ED2E-FA6D-462F-83C4-0CD4D6FD5656";
paths = (
{
closed = 1;
nodes = (
"52 0 LINE",
"433 0 LINE SMOOTH",
"466 0 OFFCURVE",
"490 17 OFFCURVE",
"490 50 CURVE SMOOTH",
"490 57 OFFCURVE",
"489 67 OFFCURVE",
"486 76 CURVE",
"159 76 LINE",
"173 108 OFFCURVE",
"174 143 OFFCURVE",
"174 177 CURVE SMOOTH",
"174 320 LINE",
"385 320 LINE SMOOTH",
"418 320 OFFCURVE",
"442 337 OFFCURVE",
"442 370 CURVE SMOOTH",
"442 377 OFFCURVE",
"441 387 OFFCURVE",
"438 396 CURVE",
"174 396 LINE",
"174 523 LINE SMOOTH",
"174 557 OFFCURVE",
"173 592 OFFCURVE",
"159 624 CURVE",
"417 624 LINE SMOOTH",
"450 624 OFFCURVE",
"474 641 OFFCURVE",
"474 674 CURVE SMOOTH",
"474 681 OFFCURVE",
"473 691 OFFCURVE",
"470 700 CURVE",
"52 700 LINE",
"44 679 LINE",
"78 638 OFFCURVE",
"86 602 OFFCURVE",
"86 523 CURVE SMOOTH",
"86 177 LINE SMOOTH",
"86 98 OFFCURVE",
"78 62 OFFCURVE",
"44 21 CURVE"
);
},
{
closed = 1;
nodes = (
"263 752 LINE",
"370 910 LINE",
"274 910 LINE",
"223 752 LINE"
);
}
);
width = 520;
}
);
note = Eacute;
unicode = 00C9;
},
{
glyphname = Ebreve;
lastChange = "2018-03-13 07:04:02 +0000";
layers = (
{
anchors = (
{
name = bottom;
position = "{276, 0}";
},
{
name = ogonek;
position = "{434, 10}";
},
{
name = top;
position = "{276, 890}";
},
{
name = topleft;
position = "{20, 700}";
}
);
layerId = "B248ED2E-FA6D-462F-83C4-0CD4D6FD5656";
paths = (
{
closed = 1;
nodes = (
"52 0 LINE",
"433 0 LINE SMOOTH",
"466 0 OFFCURVE",
"490 17 OFFCURVE",
"490 50 CURVE SMOOTH",
"490 57 OFFCURVE",
"489 67 OFFCURVE",
"486 76 CURVE",
"159 76 LINE",
"173 108 OFFCURVE",
"174 143 OFFCURVE",
"174 177 CURVE SMOOTH",
"174 320 LINE",
"385 320 LINE SMOOTH",
"418 320 OFFCURVE",
"442 337 OFFCURVE",
"442 370 CURVE SMOOTH",
"442 377 OFFCURVE",
"441 387 OFFCURVE",
"438 396 CURVE",
"174 396 LINE",
"174 523 LINE SMOOTH",
"174 557 OFFCURVE",
"173 592 OFFCURVE",
"159 624 CURVE",
"417 624 LINE SMOOTH",
"450 624 OFFCURVE",
"474 641 OFFCURVE",
"474 674 CURVE SMOOTH",
"474 681 OFFCURVE",
"473 691 OFFCURVE",
"470 700 CURVE",
"52 700 LINE",
"44 679 LINE",
"78 638 OFFCURVE",
"86 602 OFFCURVE",
"86 523 CURVE SMOOTH",
"86 177 LINE SMOOTH",
"86 98 OFFCURVE",
"78 62 OFFCURVE",
"44 21 CURVE"
);
},
{
closed = 1;
nodes = (
"140 802 OFFCURVE",
"194 746 OFFCURVE",
"276 746 CURVE SMOOTH",
"358 746 OFFCURVE",
"412 802 OFFCURVE",
"416 890 CURVE",
"378 890 LINE",
"373 842 OFFCURVE",
"333 812 OFFCURVE",
"276 812 CURVE SMOOTH",
"219 812 OFFCURVE",
"179 842 OFFCURVE",
"174 890 CURVE",
"136 890 LINE"
);
}
);
width = 520;
}
);
note = Ebreve;
unicode = 0114;
},
{
glyphname = Ecaron;
lastChange = "2018-03-13 07:04:02 +0000";
layers = (
{
anchors = (
{
name = bottom;
position = "{276, 0}";
},
{
name = ogonek;
position = "{434, 10}";
},
{
name = top;
position = "{276, 910}";
},
{
name = topleft;
position = "{20, 700}";
}
);
layerId = "B248ED2E-FA6D-462F-83C4-0CD4D6FD5656";
paths = (
{
closed = 1;
nodes = (
"52 0 LINE",
"433 0 LINE SMOOTH",
"466 0 OFFCURVE",
"490 17 OFFCURVE",
"490 50 CURVE SMOOTH",
"490 57 OFFCURVE",
"489 67 OFFCURVE",
"486 76 CURVE",
"159 76 LINE",
"173 108 OFFCURVE",
"174 143 OFFCURVE",
"174 177 CURVE SMOOTH",
"174 320 LINE",
"385 320 LINE SMOOTH",
"418 320 OFFCURVE",
"442 337 OFFCURVE",
"442 370 CURVE SMOOTH",
"442 377 OFFCURVE",
"441 387 OFFCURVE",
"438 396 CURVE",
"174 396 LINE",
"174 523 LINE SMOOTH",
"174 557 OFFCURVE",
"173 592 OFFCURVE",
"159 624 CURVE",
"417 624 LINE SMOOTH",
"450 624 OFFCURVE",
"474 641 OFFCURVE",
"474 674 CURVE SMOOTH",
"474 681 OFFCURVE",
"473 691 OFFCURVE",
"470 700 CURVE",
"52 700 LINE",
"44 679 LINE",
"78 638 OFFCURVE",
"86 602 OFFCURVE",
"86 523 CURVE SMOOTH",
"86 177 LINE SMOOTH",
"86 98 OFFCURVE",
"78 62 OFFCURVE",
"44 21 CURVE"
);
},
{
closed = 1;
nodes = (
"236 752 LINE",
"316 752 LINE",
"436 900 LINE",
"396 900 LINE",
"276 812 LINE",
"156 900 LINE",
"116 900 LINE"
);
}
);
width = 520;
}
);
note = Ecaron;
unicode = 011A;
},
{
glyphname = Ecircumflex;
lastChange = "2018-03-13 07:04:02 +0000";
layers = (
{
anchors = (
{
name = bottom;
position = "{276, 0}";
},
{
name = ogonek;
position = "{434, 10}";
},
{
name = top;
position = "{276, 900}";
},
{
name = topleft;
position = "{20, 700}";
}
);
layerId = "B248ED2E-FA6D-462F-83C4-0CD4D6FD5656";
paths = (
{
closed = 1;
nodes = (
"52 0 LINE",
"433 0 LINE SMOOTH",
"466 0 OFFCURVE",
"490 17 OFFCURVE",
"490 50 CURVE SMOOTH",
"490 57 OFFCURVE",
"489 67 OFFCURVE",
"486 76 CURVE",
"159 76 LINE",
"173 108 OFFCURVE",
"174 143 OFFCURVE",
"174 177 CURVE SMOOTH",
"174 320 LINE",
"385 320 LINE SMOOTH",
"418 320 OFFCURVE",
"442 337 OFFCURVE",
"442 370 CURVE SMOOTH",
"442 377 OFFCURVE",
"441 387 OFFCURVE",
"438 396 CURVE",
"174 396 LINE",
"174 523 LINE SMOOTH",
"174 557 OFFCURVE",
"173 592 OFFCURVE",
"159 624 CURVE",
"417 624 LINE SMOOTH",
"450 624 OFFCURVE",
"474 641 OFFCURVE",
"474 674 CURVE SMOOTH",
"474 681 OFFCURVE",
"473 691 OFFCURVE",
"470 700 CURVE",
"52 700 LINE",
"44 679 LINE",
"78 638 OFFCURVE",
"86 602 OFFCURVE",
"86 523 CURVE SMOOTH",
"86 177 LINE SMOOTH",
"86 98 OFFCURVE",
"78 62 OFFCURVE",
"44 21 CURVE"
);
},
{
closed = 1;
nodes = (
"156 752 LINE",
"276 840 LINE",
"396 752 LINE",
"436 752 LINE",
"316 900 LINE",
"236 900 LINE",
"116 752 LINE"
);
}
);
width = 520;
}
);
note = Ecircumflex;
unicode = 00CA;
},
{
glyphname = Ecircumflexacute;
lastChange = "2018-03-13 07:04:02 +0000";
layers = (
{
anchors = (
{
name = bottom;
position = "{276, 0}";
},
{
name = ogonek;
position = "{434, 10}";
},
{
name = top;
position = "{276, 990}";
},
{
name = topleft;
position = "{20, 700}";
}
);
layerId = "B248ED2E-FA6D-462F-83C4-0CD4D6FD5656";
paths = (
{
closed = 1;
nodes = (
"52 0 LINE",
"433 0 LINE SMOOTH",
"466 0 OFFCURVE",
"490 17 OFFCURVE",
"490 50 CURVE SMOOTH",
"490 57 OFFCURVE",
"489 67 OFFCURVE",
"486 76 CURVE",
"159 76 LINE",
"173 108 OFFCURVE",
"174 143 OFFCURVE",
"174 177 CURVE SMOOTH",
"174 320 LINE",
"385 320 LINE SMOOTH",
"418 320 OFFCURVE",
"442 337 OFFCURVE",
"442 370 CURVE SMOOTH",
"442 377 OFFCURVE",
"441 387 OFFCURVE",
"438 396 CURVE",
"174 396 LINE",
"174 523 LINE SMOOTH",
"174 557 OFFCURVE",
"173 592 OFFCURVE",
"159 624 CURVE",
"417 624 LINE SMOOTH",
"450 624 OFFCURVE",
"474 641 OFFCURVE",
"474 674 CURVE SMOOTH",
"474 681 OFFCURVE",
"473 691 OFFCURVE",
"470 700 CURVE",
"52 700 LINE",
"44 679 LINE",
"78 638 OFFCURVE",
"86 602 OFFCURVE",
"86 523 CURVE SMOOTH",
"86 177 LINE SMOOTH",
"86 98 OFFCURVE",
"78 62 OFFCURVE",
"44 21 CURVE"
);
},
{
closed = 1;
nodes = (
"156 752 LINE",
"276 840 LINE",
"396 752 LINE",
"436 752 LINE",
"316 900 LINE",
"236 900 LINE",
"116 752 LINE"
);
},
{
closed = 1;
nodes = (
"419 857 LINE",
"505 983 LINE",
"428 983 LINE",
"387 857 LINE"
);
}
);
width = 520;
}
);
note = Ecircumflexacute;
unicode = 1EBE;
},
{
glyphname = Ecircumflexdotbelow;
lastChange = "2018-03-13 07:04:02 +0000";
layers = (
{
anchors = (
{
name = bottom;
position = "{276, -175}";
},
{
name = ogonek;
position = "{434, 10}";
},
{
name = top;
position = "{276, 900}";
},
{
name = topleft;
position = "{20, 700}";
}
);
layerId = "B248ED2E-FA6D-462F-83C4-0CD4D6FD5656";
paths = (
{
closed = 1;
nodes = (
"52 0 LINE",
"433 0 LINE SMOOTH",
"466 0 OFFCURVE",
"490 17 OFFCURVE",
"490 50 CURVE SMOOTH",
"490 57 OFFCURVE",
"489 67 OFFCURVE",
"486 76 CURVE",
"159 76 LINE",
"173 108 OFFCURVE",
"174 143 OFFCURVE",
"174 177 CURVE SMOOTH",
"174 320 LINE",
"385 320 LINE SMOOTH",
"418 320 OFFCURVE",
"442 337 OFFCURVE",
"442 370 CURVE SMOOTH",
"442 377 OFFCURVE",
"441 387 OFFCURVE",
"438 396 CURVE",
"174 396 LINE",
"174 523 LINE SMOOTH",
"174 557 OFFCURVE",
"173 592 OFFCURVE",
"159 624 CURVE",
"417 624 LINE SMOOTH",
"450 624 OFFCURVE",
"474 641 OFFCURVE",
"474 674 CURVE SMOOTH",
"474 681 OFFCURVE",
"473 691 OFFCURVE",
"470 700 CURVE",
"52 700 LINE",
"44 679 LINE",
"78 638 OFFCURVE",
"86 602 OFFCURVE",
"86 523 CURVE SMOOTH",
"86 177 LINE SMOOTH",
"86 98 OFFCURVE",
"78 62 OFFCURVE",
"44 21 CURVE"
);
},
{
closed = 1;
nodes = (
"156 752 LINE",
"276 840 LINE",
"396 752 LINE",
"436 752 LINE",
"316 900 LINE",
"236 900 LINE",
"116 752 LINE"
);
},
{
closed = 1;
nodes = (
"214 -150 OFFCURVE",
"238 -175 OFFCURVE",
"277 -175 CURVE SMOOTH",
"314 -175 OFFCURVE",
"338 -150 OFFCURVE",
"338 -114 CURVE SMOOTH",
"338 -76 OFFCURVE",
"314 -51 OFFCURVE",
"277 -51 CURVE SMOOTH",
"238 -51 OFFCURVE",
"214 -76 OFFCURVE",
"214 -114 CURVE SMOOTH"
);
}
);
width = 520;
}
);
note = Ecircumflexdotbelow;
unicode = 1EC6;
},
{
glyphname = Ecircumflexgrave;
lastChange = "2018-03-13 07:04:02 +0000";
layers = (
{
anchors = (
{
name = bottom;
position = "{276, 0}";
},
{
name = ogonek;
position = "{434, 10}";
},
{
name = top;
position = "{276, 974}";
},
{
name = topleft;
position = "{20, 700}";
}
);
layerId = "B248ED2E-FA6D-462F-83C4-0CD4D6FD5656";
paths = (
{
closed = 1;
nodes = (
"52 0 LINE",
"433 0 LINE SMOOTH",
"466 0 OFFCURVE",
"490 17 OFFCURVE",
"490 50 CURVE SMOOTH",
"490 57 OFFCURVE",
"489 67 OFFCURVE",
"486 76 CURVE",
"159 76 LINE",
"173 108 OFFCURVE",
"174 143 OFFCURVE",
"174 177 CURVE SMOOTH",
"174 320 LINE",
"385 320 LINE SMOOTH",
"418 320 OFFCURVE",
"442 337 OFFCURVE",
"442 370 CURVE SMOOTH",
"442 377 OFFCURVE",
"441 387 OFFCURVE",
"438 396 CURVE",
"174 396 LINE",
"174 523 LINE SMOOTH",
"174 557 OFFCURVE",
"173 592 OFFCURVE",
"159 624 CURVE",
"417 624 LINE SMOOTH",
"450 624 OFFCURVE",
"474 641 OFFCURVE",
"474 674 CURVE SMOOTH",
"474 681 OFFCURVE",
"473 691 OFFCURVE",
"470 700 CURVE",
"52 700 LINE",
"44 679 LINE",
"78 638 OFFCURVE",
"86 602 OFFCURVE",
"86 523 CURVE SMOOTH",
"86 177 LINE SMOOTH",
"86 98 OFFCURVE",
"78 62 OFFCURVE",
"44 21 CURVE"
);
},
{
closed = 1;
nodes = (
"156 752 LINE",
"276 840 LINE",
"396 752 LINE",
"436 752 LINE",
"316 900 LINE",
"236 900 LINE",
"116 752 LINE"
);
},
{
closed = 1;
nodes = (
"425 857 LINE",
"457 857 LINE",
"416 983 LINE",
"339 983 LINE"
);
}
);
width = 520;
}
);
note = Ecircumflexgrave;
unicode = 1EC0;
},
{
glyphname = Ecircumflexhookabove;
lastChange = "2018-03-13 07:04:02 +0000";
layers = (
{
anchors = (
{
name = bottom;
position = "{276, 0}";
},
{
name = ogonek;
position = "{434, 10}";
},
{
name = top;
position = "{277, 990}";
},
{
name = topleft;
position = "{20, 700}";
}
);
layerId = "B248ED2E-FA6D-462F-83C4-0CD4D6FD5656";
paths = (
{
closed = 1;
nodes = (
"52 0 LINE",
"433 0 LINE SMOOTH",
"466 0 OFFCURVE",
"490 17 OFFCURVE",
"490 50 CURVE SMOOTH",
"490 57 OFFCURVE",
"489 67 OFFCURVE",
"486 76 CURVE",
"159 76 LINE",
"173 108 OFFCURVE",
"174 143 OFFCURVE",
"174 177 CURVE SMOOTH",
"174 320 LINE",
"385 320 LINE SMOOTH",
"418 320 OFFCURVE",
"442 337 OFFCURVE",
"442 370 CURVE SMOOTH",
"442 377 OFFCURVE",
"441 387 OFFCURVE",
"438 396 CURVE",
"174 396 LINE",
"174 523 LINE SMOOTH",
"174 557 OFFCURVE",
"173 592 OFFCURVE",
"159 624 CURVE",
"417 624 LINE SMOOTH",
"450 624 OFFCURVE",
"474 641 OFFCURVE",
"474 674 CURVE SMOOTH",
"474 681 OFFCURVE",
"473 691 OFFCURVE",
"470 700 CURVE",
"52 700 LINE",
"44 679 LINE",
"78 638 OFFCURVE",
"86 602 OFFCURVE",
"86 523 CURVE SMOOTH",
"86 177 LINE SMOOTH",
"86 98 OFFCURVE",
"78 62 OFFCURVE",
"44 21 CURVE"
);
},
{
closed = 1;
nodes = (
"156 752 LINE",
"276 840 LINE",
"396 752 LINE",
"436 752 LINE",
"316 900 LINE",
"236 900 LINE",
"116 752 LINE"
);
},
{
closed = 1;
nodes = (
"387 958 OFFCURVE",
"397 960 OFFCURVE",
"406 960 CURVE SMOOTH",
"429 960 OFFCURVE",
"438 949 OFFCURVE",
"438 929 CURVE SMOOTH",
"438 905 OFFCURVE",
"424 875 OFFCURVE",
"396 857 CURVE",
"442 857 LINE",
"478 875 OFFCURVE",
"496 912 OFFCURVE",
"496 946 CURVE SMOOTH",
"496 986 OFFCURVE",
"471 1005 OFFCURVE",
"430 1005 CURVE SMOOTH",
"411 1005 OFFCURVE",
"394 1001 OFFCURVE",
"379 993 CURVE",
"379 955 LINE"
);
}
);
width = 520;
}
);
note = Ecircumflexhookabove;
unicode = 1EC2;
},
{
glyphname = Ecircumflextilde;
lastChange = "2018-03-13 07:04:02 +0000";
layers = (
{
anchors = (
{
name = bottom;
position = "{276, 0}";
},
{
name = ogonek;
position = "{434, 10}";
},
{
name = top;
position = "{276, 1091}";
},
{
name = topleft;
position = "{20, 700}";
}
);
layerId = "B248ED2E-FA6D-462F-83C4-0CD4D6FD5656";
paths = (
{
closed = 1;
nodes = (
"52 0 LINE",
"433 0 LINE SMOOTH",
"466 0 OFFCURVE",
"490 17 OFFCURVE",
"490 50 CURVE SMOOTH",
"490 57 OFFCURVE",
"489 67 OFFCURVE",
"486 76 CURVE",
"159 76 LINE",
"173 108 OFFCURVE",
"174 143 OFFCURVE",
"174 177 CURVE SMOOTH",
"174 320 LINE",
"385 320 LINE SMOOTH",
"418 320 OFFCURVE",
"442 337 OFFCURVE",
"442 370 CURVE SMOOTH",
"442 377 OFFCURVE",
"441 387 OFFCURVE",
"438 396 CURVE",
"174 396 LINE",
"174 523 LINE SMOOTH",
"174 557 OFFCURVE",
"173 592 OFFCURVE",
"159 624 CURVE",
"417 624 LINE SMOOTH",
"450 624 OFFCURVE",
"474 641 OFFCURVE",
"474 674 CURVE SMOOTH",
"474 681 OFFCURVE",
"473 691 OFFCURVE",
"470 700 CURVE",
"52 700 LINE",
"44 679 LINE",
"78 638 OFFCURVE",
"86 602 OFFCURVE",
"86 523 CURVE SMOOTH",
"86 177 LINE SMOOTH",
"86 98 OFFCURVE",
"78 62 OFFCURVE",
"44 21 CURVE"
);
},
{
closed = 1;
nodes = (
"156 752 LINE",
"276 840 LINE",
"396 752 LINE",
"436 752 LINE",
"316 900 LINE",
"236 900 LINE",
"116 752 LINE"
);
},
{
closed = 1;
nodes = (
"181 944 LINE",
"192 972 OFFCURVE",
"205 987 OFFCURVE",
"227 987 CURVE SMOOTH",
"262 987 OFFCURVE",
"282 944 OFFCURVE",
"328 944 CURVE SMOOTH",
"367 944 OFFCURVE",
"405 974 OFFCURVE",
"409 1044 CURVE",
"372 1044 LINE",
"362 1017 OFFCURVE",
"348 1001 OFFCURVE",
"326 1001 CURVE SMOOTH",
"290 1001 OFFCURVE",
"271 1044 OFFCURVE",
"226 1044 CURVE SMOOTH",
"186 1044 OFFCURVE",
"149 1013 OFFCURVE",
"144 944 CURVE"
);
}
);
width = 520;
}
);
note = Ecircumflextilde;
unicode = 1EC4;
},
{
glyphname = Edieresis;
lastChange = "2018-03-13 07:04:02 +0000";
layers = (
{
anchors = (
{
name = bottom;
position = "{276, 0}";
},
{
name = ogonek;
position = "{434, 10}";
},
{
name = top;
position = "{276, 858}";
},
{
name = topleft;
position = "{20, 700}";
}
);
layerId = "B248ED2E-FA6D-462F-83C4-0CD4D6FD5656";
paths = (
{
closed = 1;
nodes = (
"52 0 LINE",
"433 0 LINE SMOOTH",
"466 0 OFFCURVE",
"490 17 OFFCURVE",
"490 50 CURVE SMOOTH",
"490 57 OFFCURVE",
"489 67 OFFCURVE",
"486 76 CURVE",
"159 76 LINE",
"173 108 OFFCURVE",
"174 143 OFFCURVE",
"174 177 CURVE SMOOTH",
"174 320 LINE",
"385 320 LINE SMOOTH",
"418 320 OFFCURVE",
"442 337 OFFCURVE",
"442 370 CURVE SMOOTH",
"442 377 OFFCURVE",
"441 387 OFFCURVE",
"438 396 CURVE",
"174 396 LINE",
"174 523 LINE SMOOTH",
"174 557 OFFCURVE",
"173 592 OFFCURVE",
"159 624 CURVE",
"417 624 LINE SMOOTH",
"450 624 OFFCURVE",
"474 641 OFFCURVE",
"474 674 CURVE SMOOTH",
"474 681 OFFCURVE",
"473 691 OFFCURVE",
"470 700 CURVE",
"52 700 LINE",
"44 679 LINE",
"78 638 OFFCURVE",
"86 602 OFFCURVE",
"86 523 CURVE SMOOTH",
"86 177 LINE SMOOTH",
"86 98 OFFCURVE",
"78 62 OFFCURVE",
"44 21 CURVE"
);
},
{
closed = 1;
nodes = (
"140 773 OFFCURVE",
"161 752 OFFCURVE",
"194 752 CURVE SMOOTH",
"225 752 OFFCURVE",
"246 773 OFFCURVE",
"246 804 CURVE SMOOTH",
"246 837 OFFCURVE",
"225 858 OFFCURVE",
"194 858 CURVE SMOOTH",
"161 858 OFFCURVE",
"140 837 OFFCURVE",
"140 804 CURVE SMOOTH"
);
},
{
closed = 1;
nodes = (
"306 773 OFFCURVE",
"327 752 OFFCURVE",
"360 752 CURVE SMOOTH",
"391 752 OFFCURVE",
"412 773 OFFCURVE",
"412 804 CURVE SMOOTH",
"412 837 OFFCURVE",
"391 858 OFFCURVE",
"360 858 CURVE SMOOTH",
"327 858 OFFCURVE",
"306 837 OFFCURVE",
"306 804 CURVE SMOOTH"
);
}
);
width = 520;
}
);
note = Edieresis;
unicode = 00CB;
},
{
glyphname = Edotaccent;
lastChange = "2018-03-13 07:04:02 +0000";
layers = (
{
anchors = (
{
name = bottom;
position = "{276, 0}";
},
{
name = ogonek;
position = "{434, 10}";
},
{
name = top;
position = "{277, 877}";
},
{
name = topleft;
position = "{20, 700}";
}
);
layerId = "B248ED2E-FA6D-462F-83C4-0CD4D6FD5656";
paths = (
{
closed = 1;
nodes = (
"52 0 LINE",
"433 0 LINE SMOOTH",
"466 0 OFFCURVE",
"490 17 OFFCURVE",
"490 50 CURVE SMOOTH",
"490 57 OFFCURVE",
"489 67 OFFCURVE",
"486 76 CURVE",
"159 76 LINE",
"173 108 OFFCURVE",
"174 143 OFFCURVE",
"174 177 CURVE SMOOTH",
"174 320 LINE",
"385 320 LINE SMOOTH",
"418 320 OFFCURVE",
"442 337 OFFCURVE",
"442 370 CURVE SMOOTH",
"442 377 OFFCURVE",
"441 387 OFFCURVE",
"438 396 CURVE",
"174 396 LINE",
"174 523 LINE SMOOTH",
"174 557 OFFCURVE",
"173 592 OFFCURVE",
"159 624 CURVE",
"417 624 LINE SMOOTH",
"450 624 OFFCURVE",
"474 641 OFFCURVE",
"474 674 CURVE SMOOTH",
"474 681 OFFCURVE",
"473 691 OFFCURVE",
"470 700 CURVE",
"52 700 LINE",
"44 679 LINE",
"78 638 OFFCURVE",
"86 602 OFFCURVE",
"86 523 CURVE SMOOTH",
"86 177 LINE SMOOTH",
"86 98 OFFCURVE",
"78 62 OFFCURVE",
"44 21 CURVE"
);
},
{
closed = 1;
nodes = (
"214 778 OFFCURVE",
"238 753 OFFCURVE",
"277 753 CURVE SMOOTH",
"314 753 OFFCURVE",
"338 778 OFFCURVE",
"338 814 CURVE SMOOTH",
"338 852 OFFCURVE",
"314 877 OFFCURVE",
"277 877 CURVE SMOOTH",
"238 877 OFFCURVE",
"214 852 OFFCURVE",
"214 814 CURVE SMOOTH"
);
}
);
width = 520;
}
);
note = Edotaccent;
unicode = 0116;
},
{
glyphname = Edotbelow;
lastChange = "2018-03-13 07:04:02 +0000";
layers = (
{
anchors = (
{
name = bottom;
position = "{276, -175}";
},
{
name = ogonek;
position = "{434, 10}";
},
{
name = top;
position = "{276, 700}";
},
{
name = topleft;
position = "{20, 700}";
}
);
layerId = "B248ED2E-FA6D-462F-83C4-0CD4D6FD5656";
paths = (
{
closed = 1;
nodes = (
"52 0 LINE",
"433 0 LINE SMOOTH",
"466 0 OFFCURVE",
"490 17 OFFCURVE",
"490 50 CURVE SMOOTH",
"490 57 OFFCURVE",
"489 67 OFFCURVE",
"486 76 CURVE",
"159 76 LINE",
"173 108 OFFCURVE",
"174 143 OFFCURVE",
"174 177 CURVE SMOOTH",
"174 320 LINE",
"385 320 LINE SMOOTH",
"418 320 OFFCURVE",
"442 337 OFFCURVE",
"442 370 CURVE SMOOTH",
"442 377 OFFCURVE",
"441 387 OFFCURVE",
"438 396 CURVE",
"174 396 LINE",
"174 523 LINE SMOOTH",
"174 557 OFFCURVE",
"173 592 OFFCURVE",
"159 624 CURVE",
"417 624 LINE SMOOTH",
"450 624 OFFCURVE",
"474 641 OFFCURVE",
"474 674 CURVE SMOOTH",
"474 681 OFFCURVE",
"473 691 OFFCURVE",
"470 700 CURVE",
"52 700 LINE",
"44 679 LINE",
"78 638 OFFCURVE",
"86 602 OFFCURVE",
"86 523 CURVE SMOOTH",
"86 177 LINE SMOOTH",
"86 98 OFFCURVE",
"78 62 OFFCURVE",
"44 21 CURVE"
);
},
{
closed = 1;
nodes = (
"214 -150 OFFCURVE",
"238 -175 OFFCURVE",
"277 -175 CURVE SMOOTH",
"314 -175 OFFCURVE",
"338 -150 OFFCURVE",
"338 -114 CURVE SMOOTH",
"338 -76 OFFCURVE",
"314 -51 OFFCURVE",
"277 -51 CURVE SMOOTH",
"238 -51 OFFCURVE",
"214 -76 OFFCURVE",
"214 -114 CURVE SMOOTH"
);
}
);
width = 520;
}
);
note = Edotbelow;
unicode = 1EB8;
},
{
glyphname = Egrave;
lastChange = "2018-03-13 07:04:02 +0000";
layers = (
{
anchors = (
{
name = bottom;
position = "{276, 0}";
},
{
name = ogonek;
position = "{434, 10}";
},
{
name = top;
position = "{246, 910}";
},
{
name = topleft;
position = "{20, 700}";
}
);
layerId = "B248ED2E-FA6D-462F-83C4-0CD4D6FD5656";
paths = (
{
closed = 1;
nodes = (
"52 0 LINE",
"433 0 LINE SMOOTH",
"466 0 OFFCURVE",
"490 17 OFFCURVE",
"490 50 CURVE SMOOTH",
"490 57 OFFCURVE",
"489 67 OFFCURVE",
"486 76 CURVE",
"159 76 LINE",
"173 108 OFFCURVE",
"174 143 OFFCURVE",
"174 177 CURVE SMOOTH",
"174 320 LINE",
"385 320 LINE SMOOTH",
"418 320 OFFCURVE",
"442 337 OFFCURVE",
"442 370 CURVE SMOOTH",
"442 377 OFFCURVE",
"441 387 OFFCURVE",
"438 396 CURVE",
"174 396 LINE",
"174 523 LINE SMOOTH",
"174 557 OFFCURVE",
"173 592 OFFCURVE",
"159 624 CURVE",
"417 624 LINE SMOOTH",
"450 624 OFFCURVE",
"474 641 OFFCURVE",
"474 674 CURVE SMOOTH",
"474 681 OFFCURVE",
"473 691 OFFCURVE",
"470 700 CURVE",
"52 700 LINE",
"44 679 LINE",
"78 638 OFFCURVE",
"86 602 OFFCURVE",
"86 523 CURVE SMOOTH",
"86 177 LINE SMOOTH",
"86 98 OFFCURVE",
"78 62 OFFCURVE",
"44 21 CURVE"
);
},
{
closed = 1;
nodes = (
"295 752 LINE",
"335 752 LINE",
"284 910 LINE",
"188 910 LINE"
);
}
);
width = 520;
}
);
note = Egrave;
unicode = 00C8;
},
{
glyphname = Ehookabove;
lastChange = "2018-03-13 07:04:02 +0000";
layers = (
{
anchors = (
{
name = bottom;
position = "{276, 0}";
},
{
name = ogonek;
position = "{434, 10}";
},
{
name = top;
position = "{280, 937}";
},
{
name = topleft;
position = "{20, 700}";
}
);
layerId = "B248ED2E-FA6D-462F-83C4-0CD4D6FD5656";
paths = (
{
closed = 1;
nodes = (
"52 0 LINE",
"433 0 LINE SMOOTH",
"466 0 OFFCURVE",
"490 17 OFFCURVE",
"490 50 CURVE SMOOTH",
"490 57 OFFCURVE",
"489 67 OFFCURVE",
"486 76 CURVE",
"159 76 LINE",
"173 108 OFFCURVE",
"174 143 OFFCURVE",
"174 177 CURVE SMOOTH",
"174 320 LINE",
"385 320 LINE SMOOTH",
"418 320 OFFCURVE",
"442 337 OFFCURVE",
"442 370 CURVE SMOOTH",
"442 377 OFFCURVE",
"441 387 OFFCURVE",
"438 396 CURVE",
"174 396 LINE",
"174 523 LINE SMOOTH",
"174 557 OFFCURVE",
"173 592 OFFCURVE",
"159 624 CURVE",
"417 624 LINE SMOOTH",
"450 624 OFFCURVE",
"474 641 OFFCURVE",
"474 674 CURVE SMOOTH",
"474 681 OFFCURVE",
"473 691 OFFCURVE",
"470 700 CURVE",
"52 700 LINE",
"44 679 LINE",
"78 638 OFFCURVE",
"86 602 OFFCURVE",
"86 523 CURVE SMOOTH",
"86 177 LINE SMOOTH",
"86 98 OFFCURVE",
"78 62 OFFCURVE",
"44 21 CURVE"
);
},
{
closed = 1;
nodes = (
"219 879 OFFCURVE",
"231 881 OFFCURVE",
"243 881 CURVE SMOOTH",
"271 881 OFFCURVE",
"283 868 OFFCURVE",
"283 843 CURVE SMOOTH",
"283 812 OFFCURVE",
"265 775 OFFCURVE",
"230 752 CURVE",
"288 752 LINE",
"332 775 OFFCURVE",
"355 821 OFFCURVE",
"355 864 CURVE SMOOTH",
"355 914 OFFCURVE",
"324 937 OFFCURVE",
"273 937 CURVE SMOOTH",
"249 937 OFFCURVE",
"227 932 OFFCURVE",
"209 922 CURVE",
"209 875 LINE"
);
}
);
width = 520;
}
);
note = Ehookabove;
unicode = 1EBA;
},
{
glyphname = Emacron;
lastChange = "2018-03-13 07:04:02 +0000";
layers = (
{
anchors = (
{
name = bottom;
position = "{276, 0}";
},
{
name = ogonek;
position = "{434, 10}";
},
{
name = top;
position = "{276, 823}";
},
{
name = topleft;
position = "{20, 700}";
}
);
layerId = "B248ED2E-FA6D-462F-83C4-0CD4D6FD5656";
paths = (
{
closed = 1;
nodes = (
"52 0 LINE",
"433 0 LINE SMOOTH",
"466 0 OFFCURVE",
"490 17 OFFCURVE",
"490 50 CURVE SMOOTH",
"490 57 OFFCURVE",
"489 67 OFFCURVE",
"486 76 CURVE",
"159 76 LINE",
"173 108 OFFCURVE",
"174 143 OFFCURVE",
"174 177 CURVE SMOOTH",
"174 320 LINE",
"385 320 LINE SMOOTH",
"418 320 OFFCURVE",
"442 337 OFFCURVE",
"442 370 CURVE SMOOTH",
"442 377 OFFCURVE",
"441 387 OFFCURVE",
"438 396 CURVE",
"174 396 LINE",
"174 523 LINE SMOOTH",
"174 557 OFFCURVE",
"173 592 OFFCURVE",
"159 624 CURVE",
"417 624 LINE SMOOTH",
"450 624 OFFCURVE",
"474 641 OFFCURVE",
"474 674 CURVE SMOOTH",
"474 681 OFFCURVE",
"473 691 OFFCURVE",
"470 700 CURVE",
"52 700 LINE",
"44 679 LINE",
"78 638 OFFCURVE",
"86 602 OFFCURVE",
"86 523 CURVE SMOOTH",
"86 177 LINE SMOOTH",
"86 98 OFFCURVE",
"78 62 OFFCURVE",
"44 21 CURVE"
);
},
{
closed = 1;
nodes = (
"428 772 LINE",
"428 822 LINE",
"124 822 LINE",
"124 772 LINE"
);
}
);
width = 520;
}
);
note = Emacron;
unicode = 0112;
},
{
glyphname = Eogonek;
lastChange = "2018-03-13 07:04:02 +0000";
layers = (
{
anchors = (
{
name = bottom;
position = "{276, 0}";
},
{
name = ogonek;
position = "{434, 10}";
},
{
name = top;
position = "{276, 700}";
},
{
name = topleft;
position = "{20, 700}";
}
);
layerId = "B248ED2E-FA6D-462F-83C4-0CD4D6FD5656";
paths = (
{
closed = 1;
nodes = (
"52 0 LINE",
"395 0 LINE",
"367 -17 OFFCURVE",
"327 -50 OFFCURVE",
"327 -99 CURVE SMOOTH",
"327 -143 OFFCURVE",
"360 -175 OFFCURVE",
"411 -175 CURVE SMOOTH",
"438 -175 OFFCURVE",
"456 -169 OFFCURVE",
"473 -160 CURVE",
"473 -113 LINE",
"463 -117 OFFCURVE",
"453 -119 OFFCURVE",
"441 -119 CURVE SMOOTH",
"414 -119 OFFCURVE",
"399 -104 OFFCURVE",
"399 -77 CURVE SMOOTH",
"399 -48 OFFCURVE",
"416 -22 OFFCURVE",
"445 1 CURVE",
"472 5 OFFCURVE",
"490 21 OFFCURVE",
"490 50 CURVE SMOOTH",
"490 57 OFFCURVE",
"489 67 OFFCURVE",
"486 76 CURVE",
"159 76 LINE",
"173 108 OFFCURVE",
"174 143 OFFCURVE",
"174 177 CURVE SMOOTH",
"174 320 LINE",
"385 320 LINE SMOOTH",
"418 320 OFFCURVE",
"442 337 OFFCURVE",
"442 370 CURVE SMOOTH",
"442 377 OFFCURVE",
"441 387 OFFCURVE",
"438 396 CURVE",
"174 396 LINE",
"174 523 LINE SMOOTH",
"174 557 OFFCURVE",
"173 592 OFFCURVE",
"159 624 CURVE",
"417 624 LINE SMOOTH",
"450 624 OFFCURVE",
"474 641 OFFCURVE",
"474 674 CURVE SMOOTH",
"474 681 OFFCURVE",
"473 691 OFFCURVE",
"470 700 CURVE",
"52 700 LINE",
"44 679 LINE",
"78 638 OFFCURVE",
"86 602 OFFCURVE",
"86 523 CURVE SMOOTH",
"86 177 LINE SMOOTH",
"86 98 OFFCURVE",
"78 62 OFFCURVE",
"44 21 CURVE"
);
}
);
width = 520;
}
);
note = Eogonek;
unicode = 0118;
},
{
glyphname = Etilde;
lastChange = "2018-03-13 07:04:02 +0000";
layers = (
{
anchors = (
{
name = bottom;
position = "{276, 0}";
},
{
name = ogonek;
position = "{434, 10}";
},
{
name = top;
position = "{276, 878}";
},
{
name = topleft;
position = "{20, 700}";
}
);
layerId = "B248ED2E-FA6D-462F-83C4-0CD4D6FD5656";
paths = (
{
closed = 1;
nodes = (
"52 0 LINE",
"433 0 LINE SMOOTH",
"466 0 OFFCURVE",
"490 17 OFFCURVE",
"490 50 CURVE SMOOTH",
"490 57 OFFCURVE",
"489 67 OFFCURVE",
"486 76 CURVE",
"159 76 LINE",
"173 108 OFFCURVE",
"174 143 OFFCURVE",
"174 177 CURVE SMOOTH",
"174 320 LINE",
"385 320 LINE SMOOTH",
"418 320 OFFCURVE",
"442 337 OFFCURVE",
"442 370 CURVE SMOOTH",
"442 377 OFFCURVE",
"441 387 OFFCURVE",
"438 396 CURVE",
"174 396 LINE",
"174 523 LINE SMOOTH",
"174 557 OFFCURVE",
"173 592 OFFCURVE",
"159 624 CURVE",
"417 624 LINE SMOOTH",
"450 624 OFFCURVE",
"474 641 OFFCURVE",
"474 674 CURVE SMOOTH",
"474 681 OFFCURVE",
"473 691 OFFCURVE",
"470 700 CURVE",
"52 700 LINE",
"44 679 LINE",
"78 638 OFFCURVE",
"86 602 OFFCURVE",
"86 523 CURVE SMOOTH",
"86 177 LINE SMOOTH",
"86 98 OFFCURVE",
"78 62 OFFCURVE",
"44 21 CURVE"
);
},
{
closed = 1;
nodes = (
"165 752 LINE",
"178 784 OFFCURVE",
"193 802 OFFCURVE",
"218 802 CURVE SMOOTH",
"259 802 OFFCURVE",
"282 752 OFFCURVE",
"336 752 CURVE SMOOTH",
"381 752 OFFCURVE",
"425 786 OFFCURVE",
"430 868 CURVE",
"387 868 LINE",
"375 836 OFFCURVE",
"359 818 OFFCURVE",
"334 818 CURVE SMOOTH",
"292 818 OFFCURVE",
"270 868 OFFCURVE",
"217 868 CURVE SMOOTH",
"171 868 OFFCURVE",
"128 832 OFFCURVE",
"122 752 CURVE"
);
}
);
width = 520;
}
);
note = Etilde;
unicode = 1EBC;
},
{
glyphname = F;
lastChange = "2018-03-13 07:04:02 +0000";
layers = (
{
anchors = (
{
name = bottom;
position = "{126, 0}";
},
{
name = top;
position = "{259, 700}";
}
);
layerId = "B248ED2E-FA6D-462F-83C4-0CD4D6FD5656";
paths = (
{
closed = 1;
nodes = (
"76 638 OFFCURVE",
"84 602 OFFCURVE",
"84 523 CURVE SMOOTH",
"84 -2 LINE",
"95 -5 OFFCURVE",
"105 -6 OFFCURVE",
"113 -6 CURVE SMOOTH",
"151 -6 OFFCURVE",
"172 20 OFFCURVE",
"172 59 CURVE SMOOTH",
"172 310 LINE",
"367 310 LINE SMOOTH",
"400 310 OFFCURVE",
"424 327 OFFCURVE",
"424 360 CURVE SMOOTH",
"424 367 OFFCURVE",
"423 377 OFFCURVE",
"420 386 CURVE",
"172 386 LINE",
"172 523 LINE SMOOTH",
"172 557 OFFCURVE",
"171 592 OFFCURVE",
"157 624 CURVE",
"415 624 LINE SMOOTH",
"448 624 OFFCURVE",
"472 641 OFFCURVE",
"472 674 CURVE SMOOTH",
"472 681 OFFCURVE",
"471 691 OFFCURVE",
"468 700 CURVE",
"50 700 LINE",
"42 679 LINE"
);
}
);
width = 498;
}
);
leftKerningGroup = F;
note = F;
rightKerningGroup = F;
unicode = 0046;
},
{
glyphname = G;
layers = (
{
anchors = (
{
name = bottom;
position = "{354, 0}";
},
{
name = top;
position = "{364, 700}";
}
);
layerId = "B248ED2E-FA6D-462F-83C4-0CD4D6FD5656";
paths = (
{
closed = 1;
nodes = (
"46 129 OFFCURVE",
"166 -12 OFFCURVE",
"359 -12 CURVE SMOOTH",
"531 -12 OFFCURVE",
"641 99 OFFCURVE",
"641 276 CURVE SMOOTH",
"641 300 OFFCURVE",
"639 329 OFFCURVE",
"631 356 CURVE",
"425 356 LINE SMOOTH",
"392 356 OFFCURVE",
"368 339 OFFCURVE",
"368 306 CURVE SMOOTH",
"368 299 OFFCURVE",
"369 289 OFFCURVE",
"372 280 CURVE",
"557 280 LINE",
"557 147 OFFCURVE",
"475 62 OFFCURVE",
"356 62 CURVE SMOOTH",
"220 62 OFFCURVE",
"138 173 OFFCURVE",
"138 349 CURVE SMOOTH",
"138 529 OFFCURVE",
"223 640 OFFCURVE",
"362 640 CURVE SMOOTH",
"448 640 OFFCURVE",
"524 597 OFFCURVE",
"572 527 CURVE",
"603 536 OFFCURVE",
"609 560 OFFCURVE",
"609 577 CURVE SMOOTH",
"609 651 OFFCURVE",
"495 714 OFFCURVE",
"364 714 CURVE SMOOTH",
"168 714 OFFCURVE",
"46 573 OFFCURVE",
"46 350 CURVE SMOOTH"
);
}
);
width = 687;
}
);
leftKerningGroup = O;
leftMetricsKey = O;
note = G;
rightKerningGroup = G;
unicode = 0047;
},
{
glyphname = Gbreve;
layers = (
{
anchors = (
{
name = bottom;
position = "{354, 0}";
},
{
name = top;
position = "{364, 890}";
}
);
layerId = "B248ED2E-FA6D-462F-83C4-0CD4D6FD5656";
paths = (
{
closed = 1;
nodes = (
"46 129 OFFCURVE",
"166 -12 OFFCURVE",
"359 -12 CURVE SMOOTH",
"531 -12 OFFCURVE",
"641 99 OFFCURVE",
"641 276 CURVE SMOOTH",
"641 300 OFFCURVE",
"639 329 OFFCURVE",
"631 356 CURVE",
"425 356 LINE SMOOTH",
"392 356 OFFCURVE",
"368 339 OFFCURVE",
"368 306 CURVE SMOOTH",
"368 299 OFFCURVE",
"369 289 OFFCURVE",
"372 280 CURVE",
"557 280 LINE",
"557 147 OFFCURVE",
"475 62 OFFCURVE",
"356 62 CURVE SMOOTH",
"220 62 OFFCURVE",
"138 173 OFFCURVE",
"138 349 CURVE SMOOTH",
"138 529 OFFCURVE",
"223 640 OFFCURVE",
"362 640 CURVE SMOOTH",
"448 640 OFFCURVE",
"524 597 OFFCURVE",
"572 527 CURVE",
"603 536 OFFCURVE",
"609 560 OFFCURVE",
"609 577 CURVE SMOOTH",
"609 651 OFFCURVE",
"495 714 OFFCURVE",
"364 714 CURVE SMOOTH",
"168 714 OFFCURVE",
"46 573 OFFCURVE",
"46 350 CURVE SMOOTH"
);
},
{
closed = 1;
nodes = (
"228 802 OFFCURVE",
"282 746 OFFCURVE",
"364 746 CURVE SMOOTH",
"446 746 OFFCURVE",
"500 802 OFFCURVE",
"504 890 CURVE",
"466 890 LINE",
"461 842 OFFCURVE",
"421 812 OFFCURVE",
"364 812 CURVE SMOOTH",
"307 812 OFFCURVE",
"267 842 OFFCURVE",
"262 890 CURVE",
"224 890 LINE"
);
}
);
width = 687;
}
);
leftKerningGroup = G;
note = Gbreve;
unicode = 011E;
},
{
glyphname = Gcaron;
layers = (
{
anchors = (
{
name = bottom;
position = "{354, 0}";
},
{
name = top;
position = "{364, 910}";
}
);
layerId = "B248ED2E-FA6D-462F-83C4-0CD4D6FD5656";
paths = (
{
closed = 1;
nodes = (
"46 129 OFFCURVE",
"166 -12 OFFCURVE",
"359 -12 CURVE SMOOTH",
"531 -12 OFFCURVE",
"641 99 OFFCURVE",
"641 276 CURVE SMOOTH",
"641 300 OFFCURVE",
"639 329 OFFCURVE",
"631 356 CURVE",
"425 356 LINE SMOOTH",
"392 356 OFFCURVE",
"368 339 OFFCURVE",
"368 306 CURVE SMOOTH",
"368 299 OFFCURVE",
"369 289 OFFCURVE",
"372 280 CURVE",
"557 280 LINE",
"557 147 OFFCURVE",
"475 62 OFFCURVE",
"356 62 CURVE SMOOTH",
"220 62 OFFCURVE",
"138 173 OFFCURVE",
"138 349 CURVE SMOOTH",
"138 529 OFFCURVE",
"223 640 OFFCURVE",
"362 640 CURVE SMOOTH",
"448 640 OFFCURVE",
"524 597 OFFCURVE",
"572 527 CURVE",
"603 536 OFFCURVE",
"609 560 OFFCURVE",
"609 577 CURVE SMOOTH",
"609 651 OFFCURVE",
"495 714 OFFCURVE",
"364 714 CURVE SMOOTH",
"168 714 OFFCURVE",
"46 573 OFFCURVE",
"46 350 CURVE SMOOTH"
);
},
{
closed = 1;
nodes = (
"324 752 LINE",
"404 752 LINE",
"524 900 LINE",
"484 900 LINE",
"364 812 LINE",
"244 900 LINE",
"204 900 LINE"
);
}
);
width = 687;
}
);
leftKerningGroup = G;
note = Gcaron;
unicode = 01E6;
},
{
glyphname = Gcircumflex;
layers = (
{
anchors = (
{
name = bottom;
position = "{354, 0}";
},
{
name = top;
position = "{364, 900}";
}
);
layerId = "B248ED2E-FA6D-462F-83C4-0CD4D6FD5656";
paths = (
{
closed = 1;
nodes = (
"46 129 OFFCURVE",
"166 -12 OFFCURVE",
"359 -12 CURVE SMOOTH",
"531 -12 OFFCURVE",
"641 99 OFFCURVE",
"641 276 CURVE SMOOTH",
"641 300 OFFCURVE",
"639 329 OFFCURVE",
"631 356 CURVE",
"425 356 LINE SMOOTH",
"392 356 OFFCURVE",
"368 339 OFFCURVE",
"368 306 CURVE SMOOTH",
"368 299 OFFCURVE",
"369 289 OFFCURVE",
"372 280 CURVE",
"557 280 LINE",
"557 147 OFFCURVE",
"475 62 OFFCURVE",
"356 62 CURVE SMOOTH",
"220 62 OFFCURVE",
"138 173 OFFCURVE",
"138 349 CURVE SMOOTH",
"138 529 OFFCURVE",
"223 640 OFFCURVE",
"362 640 CURVE SMOOTH",
"448 640 OFFCURVE",
"524 597 OFFCURVE",
"572 527 CURVE",
"603 536 OFFCURVE",
"609 560 OFFCURVE",
"609 577 CURVE SMOOTH",
"609 651 OFFCURVE",
"495 714 OFFCURVE",
"364 714 CURVE SMOOTH",
"168 714 OFFCURVE",
"46 573 OFFCURVE",
"46 350 CURVE SMOOTH"
);
},
{
closed = 1;
nodes = (
"244 752 LINE",
"364 840 LINE",
"484 752 LINE",
"524 752 LINE",
"404 900 LINE",
"324 900 LINE",
"204 752 LINE"
);
}
);
width = 687;
}
);
leftKerningGroup = G;
note = Gcircumflex;
unicode = 011C;
},
{
glyphname = Gcommaaccent;
layers = (
{
anchors = (
{
name = bottom;
position = "{354, -299}";
},
{
name = top;
position = "{364, 700}";
}
);
layerId = "B248ED2E-FA6D-462F-83C4-0CD4D6FD5656";
paths = (
{
closed = 1;
nodes = (
"46 129 OFFCURVE",
"166 -12 OFFCURVE",
"359 -12 CURVE SMOOTH",
"531 -12 OFFCURVE",
"641 99 OFFCURVE",
"641 276 CURVE SMOOTH",
"641 300 OFFCURVE",
"639 329 OFFCURVE",
"631 356 CURVE",
"425 356 LINE SMOOTH",
"392 356 OFFCURVE",
"368 339 OFFCURVE",
"368 306 CURVE SMOOTH",
"368 299 OFFCURVE",
"369 289 OFFCURVE",
"372 280 CURVE",
"557 280 LINE",
"557 147 OFFCURVE",
"475 62 OFFCURVE",
"356 62 CURVE SMOOTH",
"220 62 OFFCURVE",
"138 173 OFFCURVE",
"138 349 CURVE SMOOTH",
"138 529 OFFCURVE",
"223 640 OFFCURVE",
"362 640 CURVE SMOOTH",
"448 640 OFFCURVE",
"524 597 OFFCURVE",
"572 527 CURVE",
"603 536 OFFCURVE",
"609 560 OFFCURVE",
"609 577 CURVE SMOOTH",
"609 651 OFFCURVE",
"495 714 OFFCURVE",
"364 714 CURVE SMOOTH",
"168 714 OFFCURVE",
"46 573 OFFCURVE",
"46 350 CURVE SMOOTH"
);
},
{
closed = 1;
nodes = (
"289 -157 OFFCURVE",
"316 -184 OFFCURVE",
"352 -184 CURVE",
"356 -221 OFFCURVE",
"338 -248 OFFCURVE",
"307 -272 CURVE",
"332 -306 LINE",
"391 -268 OFFCURVE",
"419 -202 OFFCURVE",
"419 -146 CURVE SMOOTH",
"419 -87 OFFCURVE",
"388 -60 OFFCURVE",
"352 -60 CURVE SMOOTH",
"316 -60 OFFCURVE",
"289 -87 OFFCURVE",
"289 -122 CURVE SMOOTH"
);
}
);
width = 687;
}
);
leftKerningGroup = G;
note = Gcommaaccent;
unicode = 0122;
},
{
glyphname = Gdotaccent;
layers = (
{
anchors = (
{
name = bottom;
position = "{354, 0}";
},
{
name = top;
position = "{365, 877}";
}
);
layerId = "B248ED2E-FA6D-462F-83C4-0CD4D6FD5656";
paths = (
{
closed = 1;
nodes = (
"46 129 OFFCURVE",
"166 -12 OFFCURVE",
"359 -12 CURVE SMOOTH",
"531 -12 OFFCURVE",
"641 99 OFFCURVE",
"641 276 CURVE SMOOTH",
"641 300 OFFCURVE",
"639 329 OFFCURVE",
"631 356 CURVE",
"425 356 LINE SMOOTH",
"392 356 OFFCURVE",
"368 339 OFFCURVE",
"368 306 CURVE SMOOTH",
"368 299 OFFCURVE",
"369 289 OFFCURVE",
"372 280 CURVE",
"557 280 LINE",
"557 147 OFFCURVE",
"475 62 OFFCURVE",
"356 62 CURVE SMOOTH",
"220 62 OFFCURVE",
"138 173 OFFCURVE",
"138 349 CURVE SMOOTH",
"138 529 OFFCURVE",
"223 640 OFFCURVE",
"362 640 CURVE SMOOTH",
"448 640 OFFCURVE",
"524 597 OFFCURVE",
"572 527 CURVE",
"603 536 OFFCURVE",
"609 560 OFFCURVE",
"609 577 CURVE SMOOTH",
"609 651 OFFCURVE",
"495 714 OFFCURVE",
"364 714 CURVE SMOOTH",
"168 714 OFFCURVE",
"46 573 OFFCURVE",
"46 350 CURVE SMOOTH"
);
},
{
closed = 1;
nodes = (
"302 778 OFFCURVE",
"326 753 OFFCURVE",
"365 753 CURVE SMOOTH",
"402 753 OFFCURVE",
"426 778 OFFCURVE",
"426 814 CURVE SMOOTH",
"426 852 OFFCURVE",
"402 877 OFFCURVE",
"365 877 CURVE SMOOTH",
"326 877 OFFCURVE",
"302 852 OFFCURVE",
"302 814 CURVE SMOOTH"
);
}
);
width = 687;
}
);
leftKerningGroup = G;
note = Gdotaccent;
unicode = 0120;
},
{
glyphname = Gmacron;
layers = (
{
anchors = (
{
name = bottom;
position = "{354, 0}";
},
{
name = top;
position = "{364, 823}";
}
);
layerId = "B248ED2E-FA6D-462F-83C4-0CD4D6FD5656";
paths = (
{
closed = 1;
nodes = (
"46 129 OFFCURVE",
"166 -12 OFFCURVE",
"359 -12 CURVE SMOOTH",
"531 -12 OFFCURVE",
"641 99 OFFCURVE",
"641 276 CURVE SMOOTH",
"641 300 OFFCURVE",
"639 329 OFFCURVE",
"631 356 CURVE",
"425 356 LINE SMOOTH",
"392 356 OFFCURVE",
"368 339 OFFCURVE",
"368 306 CURVE SMOOTH",
"368 299 OFFCURVE",
"369 289 OFFCURVE",
"372 280 CURVE",
"557 280 LINE",
"557 147 OFFCURVE",
"475 62 OFFCURVE",
"356 62 CURVE SMOOTH",
"220 62 OFFCURVE",
"138 173 OFFCURVE",
"138 349 CURVE SMOOTH",
"138 529 OFFCURVE",
"223 640 OFFCURVE",
"362 640 CURVE SMOOTH",
"448 640 OFFCURVE",
"524 597 OFFCURVE",
"572 527 CURVE",
"603 536 OFFCURVE",
"609 560 OFFCURVE",
"609 577 CURVE SMOOTH",
"609 651 OFFCURVE",
"495 714 OFFCURVE",
"364 714 CURVE SMOOTH",
"168 714 OFFCURVE",
"46 573 OFFCURVE",
"46 350 CURVE SMOOTH"
);
},
{
closed = 1;
nodes = (
"516 772 LINE",
"516 822 LINE",
"212 822 LINE",
"212 772 LINE"
);
}
);
width = 687;
}
);
leftKerningGroup = G;
note = Gmacron;
unicode = 1E20;
},
{
glyphname = H;
layers = (
{
anchors = (
{
name = bottom;
position = "{334, 0}";
},
{
name = center;
position = "{334, 350}";
},
{
name = top;
position = "{334, 700}";
},
{
name = topleft;
position = "{20, 700}";
}
);
layerId = "B248ED2E-FA6D-462F-83C4-0CD4D6FD5656";
paths = (
{
closed = 1;
nodes = (
"91 -5 OFFCURVE",
"101 -6 OFFCURVE",
"109 -6 CURVE SMOOTH",
"147 -6 OFFCURVE",
"168 20 OFFCURVE",
"168 59 CURVE SMOOTH",
"168 310 LINE",
"500 310 LINE",
"500 -2 LINE",
"511 -5 OFFCURVE",
"521 -6 OFFCURVE",
"529 -6 CURVE SMOOTH",
"567 -6 OFFCURVE",
"588 20 OFFCURVE",
"588 59 CURVE SMOOTH",
"588 702 LINE",
"577 705 OFFCURVE",
"566 706 OFFCURVE",
"558 706 CURVE SMOOTH",
"520 706 OFFCURVE",
"500 679 OFFCURVE",
"500 641 CURVE SMOOTH",
"500 386 LINE",
"168 386 LINE",
"168 702 LINE",
"157 705 OFFCURVE",
"146 706 OFFCURVE",
"138 706 CURVE SMOOTH",
"100 706 OFFCURVE",
"80 679 OFFCURVE",
"80 641 CURVE SMOOTH",
"80 -2 LINE"
);
}
);
width = 668;
}
);
leftKerningGroup = H;
leftMetricsKey = "=|";
note = H;
rightKerningGroup = H;
unicode = 0048;
},
{
glyphname = Hbar;
layers = (
{
anchors = (
{
name = bottom;
position = "{334, 0}";
},
{
name = center;
position = "{334, 350}";
},
{
name = top;
position = "{334, 700}";
},
{
name = topleft;
position = "{20, 700}";
}
);
layerId = "B248ED2E-FA6D-462F-83C4-0CD4D6FD5656";
paths = (
{
closed = 1;
nodes = (
"80 500 LINE",
"80 -2 LINE",
"91 -5 OFFCURVE",
"101 -6 OFFCURVE",
"109 -6 CURVE SMOOTH",
"147 -6 OFFCURVE",
"168 20 OFFCURVE",
"168 59 CURVE SMOOTH",
"168 310 LINE",
"500 310 LINE",
"500 -2 LINE",
"511 -5 OFFCURVE",
"521 -6 OFFCURVE",
"529 -6 CURVE SMOOTH",
"567 -6 OFFCURVE",
"588 20 OFFCURVE",
"588 59 CURVE SMOOTH",
"588 500 LINE",
"652 500 LINE",
"652 576 LINE",
"588 576 LINE",
"588 702 LINE",
"577 705 OFFCURVE",
"566 706 OFFCURVE",
"558 706 CURVE SMOOTH",
"520 706 OFFCURVE",
"500 679 OFFCURVE",
"500 641 CURVE SMOOTH",
"500 576 LINE",
"168 576 LINE",
"168 702 LINE",
"157 705 OFFCURVE",
"146 706 OFFCURVE",
"138 706 CURVE SMOOTH",
"100 706 OFFCURVE",
"80 679 OFFCURVE",
"80 641 CURVE SMOOTH",
"80 576 LINE",
"16 576 LINE",
"16 500 LINE"
);
},
{
closed = 1;
nodes = (
"168 500 LINE",
"500 500 LINE",
"500 386 LINE",
"168 386 LINE"
);
}
);
width = 668;
}
);
note = Hbar;
unicode = 0126;
},
{
glyphname = Hbrevebelow;
layers = (
{
anchors = (
{
name = bottom;
position = "{334, -183}";
},
{
name = center;
position = "{334, 350}";
},
{
name = top;
position = "{334, 700}";
},
{
name = topleft;
position = "{20, 700}";
}
);
layerId = "B248ED2E-FA6D-462F-83C4-0CD4D6FD5656";
paths = (
{
closed = 1;
nodes = (
"91 -5 OFFCURVE",
"101 -6 OFFCURVE",
"109 -6 CURVE SMOOTH",
"147 -6 OFFCURVE",
"168 20 OFFCURVE",
"168 59 CURVE SMOOTH",
"168 310 LINE",
"500 310 LINE",
"500 -2 LINE",
"511 -5 OFFCURVE",
"521 -6 OFFCURVE",
"529 -6 CURVE SMOOTH",
"567 -6 OFFCURVE",
"588 20 OFFCURVE",
"588 59 CURVE SMOOTH",
"588 702 LINE",
"577 705 OFFCURVE",
"566 706 OFFCURVE",
"558 706 CURVE SMOOTH",
"520 706 OFFCURVE",
"500 679 OFFCURVE",
"500 641 CURVE SMOOTH",
"500 386 LINE",
"168 386 LINE",
"168 702 LINE",
"157 705 OFFCURVE",
"146 706 OFFCURVE",
"138 706 CURVE SMOOTH",
"100 706 OFFCURVE",
"80 679 OFFCURVE",
"80 641 CURVE SMOOTH",
"80 -2 LINE"
);
},
{
closed = 1;
nodes = (
"198 -148 OFFCURVE",
"252 -204 OFFCURVE",
"334 -204 CURVE SMOOTH",
"416 -204 OFFCURVE",
"470 -148 OFFCURVE",
"474 -60 CURVE",
"436 -60 LINE",
"431 -108 OFFCURVE",
"391 -138 OFFCURVE",
"334 -138 CURVE SMOOTH",
"277 -138 OFFCURVE",
"237 -108 OFFCURVE",
"232 -60 CURVE",
"194 -60 LINE"
);
}
);
width = 668;
}
);
note = Hbrevebelow;
unicode = 1E2A;
},
{
glyphname = Hcircumflex;
layers = (
{
anchors = (
{
name = bottom;
position = "{334, 0}";
},
{
name = center;
position = "{334, 350}";
},
{
name = top;
position = "{334, 900}";
},
{
name = topleft;
position = "{20, 700}";
}
);
layerId = "B248ED2E-FA6D-462F-83C4-0CD4D6FD5656";
paths = (
{
closed = 1;
nodes = (
"91 -5 OFFCURVE",
"101 -6 OFFCURVE",
"109 -6 CURVE SMOOTH",
"147 -6 OFFCURVE",
"168 20 OFFCURVE",
"168 59 CURVE SMOOTH",
"168 310 LINE",
"500 310 LINE",
"500 -2 LINE",
"511 -5 OFFCURVE",
"521 -6 OFFCURVE",
"529 -6 CURVE SMOOTH",
"567 -6 OFFCURVE",
"588 20 OFFCURVE",
"588 59 CURVE SMOOTH",
"588 702 LINE",
"577 705 OFFCURVE",
"566 706 OFFCURVE",
"558 706 CURVE SMOOTH",
"520 706 OFFCURVE",
"500 679 OFFCURVE",
"500 641 CURVE SMOOTH",
"500 386 LINE",
"168 386 LINE",
"168 702 LINE",
"157 705 OFFCURVE",
"146 706 OFFCURVE",
"138 706 CURVE SMOOTH",
"100 706 OFFCURVE",
"80 679 OFFCURVE",
"80 641 CURVE SMOOTH",
"80 -2 LINE"
);
},
{
closed = 1;
nodes = (
"214 752 LINE",
"334 840 LINE",
"454 752 LINE",
"494 752 LINE",
"374 900 LINE",
"294 900 LINE",
"174 752 LINE"
);
}
);
width = 668;
}
);
note = Hcircumflex;
unicode = 0124;
},
{
glyphname = Hdotbelow;
layers = (
{
anchors = (
{
name = bottom;
position = "{334, -175}";
},
{
name = center;
position = "{334, 350}";
},
{
name = top;
position = "{334, 700}";
},
{
name = topleft;
position = "{20, 700}";
}
);
layerId = "B248ED2E-FA6D-462F-83C4-0CD4D6FD5656";
paths = (
{
closed = 1;
nodes = (
"91 -5 OFFCURVE",
"101 -6 OFFCURVE",
"109 -6 CURVE SMOOTH",
"147 -6 OFFCURVE",
"168 20 OFFCURVE",
"168 59 CURVE SMOOTH",
"168 310 LINE",
"500 310 LINE",
"500 -2 LINE",
"511 -5 OFFCURVE",
"521 -6 OFFCURVE",
"529 -6 CURVE SMOOTH",
"567 -6 OFFCURVE",
"588 20 OFFCURVE",
"588 59 CURVE SMOOTH",
"588 702 LINE",
"577 705 OFFCURVE",
"566 706 OFFCURVE",
"558 706 CURVE SMOOTH",
"520 706 OFFCURVE",
"500 679 OFFCURVE",
"500 641 CURVE SMOOTH",
"500 386 LINE",
"168 386 LINE",
"168 702 LINE",
"157 705 OFFCURVE",
"146 706 OFFCURVE",
"138 706 CURVE SMOOTH",
"100 706 OFFCURVE",
"80 679 OFFCURVE",
"80 641 CURVE SMOOTH",
"80 -2 LINE"
);
},
{
closed = 1;
nodes = (
"272 -150 OFFCURVE",
"296 -175 OFFCURVE",
"335 -175 CURVE SMOOTH",
"372 -175 OFFCURVE",
"396 -150 OFFCURVE",
"396 -114 CURVE SMOOTH",
"396 -76 OFFCURVE",
"372 -51 OFFCURVE",
"335 -51 CURVE SMOOTH",
"296 -51 OFFCURVE",
"272 -76 OFFCURVE",
"272 -114 CURVE SMOOTH"
);
}
);
width = 668;
}
);
note = Hdotbelow;
unicode = 1E24;
},
{
glyphname = I;
layers = (
{
anchors = (
{
name = bottom;
position = "{126, 0}";
},
{
name = ogonek;
position = "{119, 10}";
},
{
name = top;
position = "{126, 700}";
},
{
name = topleft;
position = "{20, 700}";
}
);
layerId = "B248ED2E-FA6D-462F-83C4-0CD4D6FD5656";
paths = (
{
closed = 1;
nodes = (
"93 -5 OFFCURVE",
"103 -6 OFFCURVE",
"111 -6 CURVE SMOOTH",
"149 -6 OFFCURVE",
"170 20 OFFCURVE",
"170 59 CURVE SMOOTH",
"170 702 LINE",
"159 705 OFFCURVE",
"148 706 OFFCURVE",
"140 706 CURVE SMOOTH",
"102 706 OFFCURVE",
"82 679 OFFCURVE",
"82 641 CURVE SMOOTH",
"82 -2 LINE"
);
}
);
width = 252;
}
);
leftKerningGroup = I;
leftMetricsKey = "=|";
note = I;
rightKerningGroup = I;
unicode = 0049;
},
{
glyphname = IJ;
layers = (
{
anchors = (
{
name = bottom;
position = "{423, 0}";
},
{
name = ogonek;
position = "{119, 10}";
},
{
name = top;
position = "{505, 700}";
},
{
name = topleft;
position = "{20, 700}";
}
);
layerId = "B248ED2E-FA6D-462F-83C4-0CD4D6FD5656";
paths = (
{
closed = 1;
nodes = (
"93 -5 OFFCURVE",
"103 -6 OFFCURVE",
"111 -6 CURVE SMOOTH",
"149 -6 OFFCURVE",
"170 20 OFFCURVE",
"170 59 CURVE SMOOTH",
"170 702 LINE",
"159 705 OFFCURVE",
"148 706 OFFCURVE",
"140 706 CURVE SMOOTH",
"102 706 OFFCURVE",
"82 679 OFFCURVE",
"82 641 CURVE SMOOTH",
"82 -2 LINE"
);
},
{
closed = 1;
nodes = (
"280 28 OFFCURVE",
"318 -12 OFFCURVE",
"393 -12 CURVE SMOOTH",
"475 -12 OFFCURVE",
"540 36 OFFCURVE",
"540 157 CURVE SMOOTH",
"540 702 LINE",
"529 705 OFFCURVE",
"518 706 OFFCURVE",
"510 706 CURVE SMOOTH",
"472 706 OFFCURVE",
"452 679 OFFCURVE",
"452 641 CURVE SMOOTH",
"452 157 LINE SMOOTH",
"452 83 OFFCURVE",
"426 69 OFFCURVE",
"391 69 CURVE SMOOTH",
"355 69 OFFCURVE",
"325 84 OFFCURVE",
"303 100 CURVE",
"288 93 OFFCURVE",
"280 79 OFFCURVE",
"280 63 CURVE SMOOTH"
);
}
);
width = 616;
}
);
note = IJ;
rightKerningGroup = J;
unicode = 0132;
},
{
glyphname = Iacute;
layers = (
{
anchors = (
{
name = bottom;
position = "{126, 0}";
},
{
name = ogonek;
position = "{119, 10}";
},
{
name = top;
position = "{170, 910}";
},
{
name = topleft;
position = "{20, 700}";
}
);
layerId = "B248ED2E-FA6D-462F-83C4-0CD4D6FD5656";
paths = (
{
closed = 1;
nodes = (
"113 752 LINE",
"220 910 LINE",
"124 910 LINE",
"73 752 LINE"
);
},
{
closed = 1;
nodes = (
"93 -5 OFFCURVE",
"103 -6 OFFCURVE",
"111 -6 CURVE SMOOTH",
"149 -6 OFFCURVE",
"170 20 OFFCURVE",
"170 59 CURVE SMOOTH",
"170 702 LINE",
"159 705 OFFCURVE",
"148 706 OFFCURVE",
"140 706 CURVE SMOOTH",
"102 706 OFFCURVE",
"82 679 OFFCURVE",
"82 641 CURVE SMOOTH",
"82 -2 LINE"
);
}
);
width = 252;
}
);
note = Iacute;
unicode = 00CD;
},
{
glyphname = Ibreve;
layers = (
{
anchors = (
{
name = bottom;
position = "{126, 0}";
},
{
name = ogonek;
position = "{119, 10}";
},
{
name = top;
position = "{126, 890}";
},
{
name = topleft;
position = "{20, 700}";
}
);
layerId = "B248ED2E-FA6D-462F-83C4-0CD4D6FD5656";
paths = (
{
closed = 1;
nodes = (
"-10 802 OFFCURVE",
"44 746 OFFCURVE",
"126 746 CURVE SMOOTH",
"208 746 OFFCURVE",
"262 802 OFFCURVE",
"266 890 CURVE",
"228 890 LINE",
"223 842 OFFCURVE",
"183 812 OFFCURVE",
"126 812 CURVE SMOOTH",
"69 812 OFFCURVE",
"29 842 OFFCURVE",
"24 890 CURVE",
"-14 890 LINE"
);
},
{
closed = 1;
nodes = (
"93 -5 OFFCURVE",
"103 -6 OFFCURVE",
"111 -6 CURVE SMOOTH",
"149 -6 OFFCURVE",
"170 20 OFFCURVE",
"170 59 CURVE SMOOTH",
"170 702 LINE",
"159 705 OFFCURVE",
"148 706 OFFCURVE",
"140 706 CURVE SMOOTH",
"102 706 OFFCURVE",
"82 679 OFFCURVE",
"82 641 CURVE SMOOTH",
"82 -2 LINE"
);
}
);
width = 252;
}
);
note = Ibreve;
unicode = 012C;
},
{
glyphname = Icaron;
layers = (
{
anchors = (
{
name = bottom;
position = "{126, 0}";
},
{
name = ogonek;
position = "{119, 10}";
},
{
name = top;
position = "{126, 910}";
},
{
name = topleft;
position = "{20, 700}";
}
);
layerId = "B248ED2E-FA6D-462F-83C4-0CD4D6FD5656";
paths = (
{
closed = 1;
nodes = (
"86 752 LINE",
"166 752 LINE",
"286 900 LINE",
"246 900 LINE",
"126 812 LINE",
"6 900 LINE",
"-34 900 LINE"
);
},
{
closed = 1;
nodes = (
"93 -5 OFFCURVE",
"103 -6 OFFCURVE",
"111 -6 CURVE SMOOTH",
"149 -6 OFFCURVE",
"170 20 OFFCURVE",
"170 59 CURVE SMOOTH",
"170 702 LINE",
"159 705 OFFCURVE",
"148 706 OFFCURVE",
"140 706 CURVE SMOOTH",
"102 706 OFFCURVE",
"82 679 OFFCURVE",
"82 641 CURVE SMOOTH",
"82 -2 LINE"
);
}
);
width = 252;
}
);
note = Icaron;
unicode = 01CF;
},
{
glyphname = Icircumflex;
layers = (
{
anchors = (
{
name = bottom;
position = "{126, 0}";
},
{
name = ogonek;
position = "{119, 10}";
},
{
name = top;
position = "{126, 900}";
},
{
name = topleft;
position = "{20, 700}";
}
);
layerId = "B248ED2E-FA6D-462F-83C4-0CD4D6FD5656";
paths = (
{
closed = 1;
nodes = (
"6 752 LINE",
"126 840 LINE",
"246 752 LINE",
"286 752 LINE",
"166 900 LINE",
"86 900 LINE",
"-34 752 LINE"
);
},
{
closed = 1;
nodes = (
"93 -5 OFFCURVE",
"103 -6 OFFCURVE",
"111 -6 CURVE SMOOTH",
"149 -6 OFFCURVE",
"170 20 OFFCURVE",
"170 59 CURVE SMOOTH",
"170 702 LINE",
"159 705 OFFCURVE",
"148 706 OFFCURVE",
"140 706 CURVE SMOOTH",
"102 706 OFFCURVE",
"82 679 OFFCURVE",
"82 641 CURVE SMOOTH",
"82 -2 LINE"
);
}
);
width = 252;
}
);
note = Icircumflex;
unicode = 00CE;
},
{
glyphname = Idieresis;
layers = (
{
anchors = (
{
name = bottom;
position = "{126, 0}";
},
{
name = ogonek;
position = "{119, 10}";
},
{
name = top;
position = "{126, 858}";
},
{
name = topleft;
position = "{20, 700}";
}
);
layerId = "B248ED2E-FA6D-462F-83C4-0CD4D6FD5656";
paths = (
{
closed = 1;
nodes = (
"-10 773 OFFCURVE",
"11 752 OFFCURVE",
"44 752 CURVE SMOOTH",
"75 752 OFFCURVE",
"96 773 OFFCURVE",
"96 804 CURVE SMOOTH",
"96 837 OFFCURVE",
"75 858 OFFCURVE",
"44 858 CURVE SMOOTH",
"11 858 OFFCURVE",
"-10 837 OFFCURVE",
"-10 804 CURVE SMOOTH"
);
},
{
closed = 1;
nodes = (
"93 -5 OFFCURVE",
"103 -6 OFFCURVE",
"111 -6 CURVE SMOOTH",
"149 -6 OFFCURVE",
"170 20 OFFCURVE",
"170 59 CURVE SMOOTH",
"170 702 LINE",
"159 705 OFFCURVE",
"148 706 OFFCURVE",
"140 706 CURVE SMOOTH",
"102 706 OFFCURVE",
"82 679 OFFCURVE",
"82 641 CURVE SMOOTH",
"82 -2 LINE"
);
},
{
closed = 1;
nodes = (
"156 773 OFFCURVE",
"177 752 OFFCURVE",
"210 752 CURVE SMOOTH",
"241 752 OFFCURVE",
"262 773 OFFCURVE",
"262 804 CURVE SMOOTH",
"262 837 OFFCURVE",
"241 858 OFFCURVE",
"210 858 CURVE SMOOTH",
"177 858 OFFCURVE",
"156 837 OFFCURVE",
"156 804 CURVE SMOOTH"
);
}
);
width = 252;
}
);
note = Idieresis;
unicode = 00CF;
},
{
glyphname = Idotaccent;
layers = (
{
anchors = (
{
name = bottom;
position = "{126, 0}";
},
{
name = ogonek;
position = "{119, 10}";
},
{
name = top;
position = "{127, 877}";
},
{
name = topleft;
position = "{20, 700}";
}
);
layerId = "B248ED2E-FA6D-462F-83C4-0CD4D6FD5656";
paths = (
{
closed = 1;
nodes = (
"64 778 OFFCURVE",
"88 753 OFFCURVE",
"127 753 CURVE SMOOTH",
"164 753 OFFCURVE",
"188 778 OFFCURVE",
"188 814 CURVE SMOOTH",
"188 852 OFFCURVE",
"164 877 OFFCURVE",
"127 877 CURVE SMOOTH",
"88 877 OFFCURVE",
"64 852 OFFCURVE",
"64 814 CURVE SMOOTH"
);
},
{
closed = 1;
nodes = (
"93 -5 OFFCURVE",
"103 -6 OFFCURVE",
"111 -6 CURVE SMOOTH",
"149 -6 OFFCURVE",
"170 20 OFFCURVE",
"170 59 CURVE SMOOTH",
"170 702 LINE",
"159 705 OFFCURVE",
"148 706 OFFCURVE",
"140 706 CURVE SMOOTH",
"102 706 OFFCURVE",
"82 679 OFFCURVE",
"82 641 CURVE SMOOTH",
"82 -2 LINE"
);
}
);
width = 252;
}
);
note = Idotaccent;
unicode = 0130;
},
{
glyphname = Idotbelow;
layers = (
{
anchors = (
{
name = bottom;
position = "{126, -175}";
},
{
name = ogonek;
position = "{119, 10}";
},
{
name = top;
position = "{126, 700}";
},
{
name = topleft;
position = "{20, 700}";
}
);
layerId = "B248ED2E-FA6D-462F-83C4-0CD4D6FD5656";
paths = (
{
closed = 1;
nodes = (
"64 -150 OFFCURVE",
"88 -175 OFFCURVE",
"127 -175 CURVE SMOOTH",
"164 -175 OFFCURVE",
"188 -150 OFFCURVE",
"188 -114 CURVE SMOOTH",
"188 -76 OFFCURVE",
"164 -51 OFFCURVE",
"127 -51 CURVE SMOOTH",
"88 -51 OFFCURVE",
"64 -76 OFFCURVE",
"64 -114 CURVE SMOOTH"
);
},
{
closed = 1;
nodes = (
"93 -5 OFFCURVE",
"103 -6 OFFCURVE",
"111 -6 CURVE SMOOTH",
"149 -6 OFFCURVE",
"170 20 OFFCURVE",
"170 59 CURVE SMOOTH",
"170 702 LINE",
"159 705 OFFCURVE",
"148 706 OFFCURVE",
"140 706 CURVE SMOOTH",
"102 706 OFFCURVE",
"82 679 OFFCURVE",
"82 641 CURVE SMOOTH",
"82 -2 LINE"
);
}
);
width = 252;
}
);
note = Idotbelow;
unicode = 1ECA;
},
{
glyphname = Igrave;
layers = (
{
anchors = (
{
name = bottom;
position = "{126, 0}";
},
{
name = ogonek;
position = "{119, 10}";
},
{
name = top;
position = "{96, 910}";
},
{
name = topleft;
position = "{20, 700}";
}
);
layerId = "B248ED2E-FA6D-462F-83C4-0CD4D6FD5656";
paths = (
{
closed = 1;
nodes = (
"145 752 LINE",
"185 752 LINE",
"134 910 LINE",
"38 910 LINE"
);
},
{
closed = 1;
nodes = (
"93 -5 OFFCURVE",
"103 -6 OFFCURVE",
"111 -6 CURVE SMOOTH",
"149 -6 OFFCURVE",
"170 20 OFFCURVE",
"170 59 CURVE SMOOTH",
"170 702 LINE",
"159 705 OFFCURVE",
"148 706 OFFCURVE",
"140 706 CURVE SMOOTH",
"102 706 OFFCURVE",
"82 679 OFFCURVE",
"82 641 CURVE SMOOTH",
"82 -2 LINE"
);
}
);
width = 252;
}
);
note = Igrave;
unicode = 00CC;
},
{
glyphname = Ihookabove;
layers = (
{
anchors = (
{
name = bottom;
position = "{126, 0}";
},
{
name = ogonek;
position = "{119, 10}";
},
{
name = top;
position = "{130, 937}";
},
{
name = topleft;
position = "{20, 700}";
}
);
layerId = "B248ED2E-FA6D-462F-83C4-0CD4D6FD5656";
paths = (
{
closed = 1;
nodes = (
"69 879 OFFCURVE",
"81 881 OFFCURVE",
"93 881 CURVE SMOOTH",
"121 881 OFFCURVE",
"133 868 OFFCURVE",
"133 843 CURVE SMOOTH",
"133 812 OFFCURVE",
"115 775 OFFCURVE",
"80 752 CURVE",
"138 752 LINE",
"182 775 OFFCURVE",
"205 821 OFFCURVE",
"205 864 CURVE SMOOTH",
"205 914 OFFCURVE",
"174 937 OFFCURVE",
"123 937 CURVE SMOOTH",
"99 937 OFFCURVE",
"77 932 OFFCURVE",
"59 922 CURVE",
"59 875 LINE"
);
},
{
closed = 1;
nodes = (
"93 -5 OFFCURVE",
"103 -6 OFFCURVE",
"111 -6 CURVE SMOOTH",
"149 -6 OFFCURVE",
"170 20 OFFCURVE",
"170 59 CURVE SMOOTH",
"170 702 LINE",
"159 705 OFFCURVE",
"148 706 OFFCURVE",
"140 706 CURVE SMOOTH",
"102 706 OFFCURVE",
"82 679 OFFCURVE",
"82 641 CURVE SMOOTH",
"82 -2 LINE"
);
}
);
width = 252;
}
);
note = Ihookabove;
unicode = 1EC8;
},
{
glyphname = Imacron;
layers = (
{
anchors = (
{
name = bottom;
position = "{126, 0}";
},
{
name = ogonek;
position = "{119, 10}";
},
{
name = top;
position = "{126, 823}";
},
{
name = topleft;
position = "{20, 700}";
}
);
layerId = "B248ED2E-FA6D-462F-83C4-0CD4D6FD5656";
paths = (
{
closed = 1;
nodes = (
"278 772 LINE",
"278 822 LINE",
"-26 822 LINE",
"-26 772 LINE"
);
},
{
closed = 1;
nodes = (
"93 -5 OFFCURVE",
"103 -6 OFFCURVE",
"111 -6 CURVE SMOOTH",
"149 -6 OFFCURVE",
"170 20 OFFCURVE",
"170 59 CURVE SMOOTH",
"170 702 LINE",
"159 705 OFFCURVE",
"148 706 OFFCURVE",
"140 706 CURVE SMOOTH",
"102 706 OFFCURVE",
"82 679 OFFCURVE",
"82 641 CURVE SMOOTH",
"82 -2 LINE"
);
}
);
width = 252;
}
);
note = Imacron;
unicode = 012A;
},
{
glyphname = Iogonek;
lastChange = "2018-03-13 07:04:02 +0000";
layers = (
{
anchors = (
{
name = bottom;
position = "{126, 0}";
},
{
name = ogonek;
position = "{119, 10}";
},
{
name = top;
position = "{126, 700}";
},
{
name = topleft;
position = "{20, 700}";
}
);
layerId = "B248ED2E-FA6D-462F-83C4-0CD4D6FD5656";
paths = (
{
closed = 1;
nodes = (
"12 -143 OFFCURVE",
"45 -175 OFFCURVE",
"96 -175 CURVE SMOOTH",
"123 -175 OFFCURVE",
"141 -169 OFFCURVE",
"158 -160 CURVE",
"158 -113 LINE",
"148 -117 OFFCURVE",
"138 -119 OFFCURVE",
"126 -119 CURVE SMOOTH",
"99 -119 OFFCURVE",
"84 -104 OFFCURVE",
"84 -77 CURVE SMOOTH",
"84 -50 OFFCURVE",
"98 -26 OFFCURVE",
"123 -5 CURVE",
"153 0 OFFCURVE",
"170 24 OFFCURVE",
"170 59 CURVE SMOOTH",
"170 702 LINE",
"159 705 OFFCURVE",
"148 706 OFFCURVE",
"140 706 CURVE SMOOTH",
"102 706 OFFCURVE",
"82 679 OFFCURVE",
"82 641 CURVE SMOOTH",
"82 1 LINE",
"54 -16 OFFCURVE",
"12 -48 OFFCURVE",
"12 -99 CURVE SMOOTH"
);
}
);
width = 252;
}
);
note = Iogonek;
unicode = 012E;
},
{
glyphname = Itilde;
layers = (
{
anchors = (
{
name = bottom;
position = "{126, 0}";
},
{
name = ogonek;
position = "{119, 10}";
},
{
name = top;
position = "{126, 878}";
},
{
name = topleft;
position = "{20, 700}";
}
);
layerId = "B248ED2E-FA6D-462F-83C4-0CD4D6FD5656";
paths = (
{
closed = 1;
nodes = (
"15 752 LINE",
"28 784 OFFCURVE",
"43 802 OFFCURVE",
"68 802 CURVE SMOOTH",
"109 802 OFFCURVE",
"132 752 OFFCURVE",
"186 752 CURVE SMOOTH",
"231 752 OFFCURVE",
"275 786 OFFCURVE",
"280 868 CURVE",
"237 868 LINE",
"225 836 OFFCURVE",
"209 818 OFFCURVE",
"184 818 CURVE SMOOTH",
"142 818 OFFCURVE",
"120 868 OFFCURVE",
"67 868 CURVE SMOOTH",
"21 868 OFFCURVE",
"-22 832 OFFCURVE",
"-28 752 CURVE"
);
},
{
closed = 1;
nodes = (
"93 -5 OFFCURVE",
"103 -6 OFFCURVE",
"111 -6 CURVE SMOOTH",
"149 -6 OFFCURVE",
"170 20 OFFCURVE",
"170 59 CURVE SMOOTH",
"170 702 LINE",
"159 705 OFFCURVE",
"148 706 OFFCURVE",
"140 706 CURVE SMOOTH",
"102 706 OFFCURVE",
"82 679 OFFCURVE",
"82 641 CURVE SMOOTH",
"82 -2 LINE"
);
}
);
width = 252;
}
);
note = Itilde;
unicode = 0128;
},
{
glyphname = J;
layers = (
{
anchors = (
{
name = bottom;
position = "{171, 0}";
},
{
name = top;
position = "{253, 700}";
}
);
layerId = "B248ED2E-FA6D-462F-83C4-0CD4D6FD5656";
paths = (
{
closed = 1;
nodes = (
"28 28 OFFCURVE",
"66 -12 OFFCURVE",
"141 -12 CURVE SMOOTH",
"223 -12 OFFCURVE",
"288 36 OFFCURVE",
"288 157 CURVE SMOOTH",
"288 702 LINE",
"277 705 OFFCURVE",
"266 706 OFFCURVE",
"258 706 CURVE SMOOTH",
"220 706 OFFCURVE",
"200 679 OFFCURVE",
"200 641 CURVE SMOOTH",
"200 157 LINE SMOOTH",
"200 83 OFFCURVE",
"174 69 OFFCURVE",
"139 69 CURVE SMOOTH",
"103 69 OFFCURVE",
"73 84 OFFCURVE",
"51 100 CURVE",
"36 93 OFFCURVE",
"28 79 OFFCURVE",
"28 63 CURVE SMOOTH"
);
}
);
width = 364;
}
);
leftKerningGroup = J;
note = J;
rightKerningGroup = J;
unicode = 004A;
},
{
glyphname = Jcircumflex;
layers = (
{
anchors = (
{
name = bottom;
position = "{171, 0}";
},
{
name = top;
position = "{253, 900}";
}
);
layerId = "B248ED2E-FA6D-462F-83C4-0CD4D6FD5656";
paths = (
{
closed = 1;
nodes = (
"28 28 OFFCURVE",
"66 -12 OFFCURVE",
"141 -12 CURVE SMOOTH",
"223 -12 OFFCURVE",
"288 36 OFFCURVE",
"288 157 CURVE SMOOTH",
"288 702 LINE",
"277 705 OFFCURVE",
"266 706 OFFCURVE",
"258 706 CURVE SMOOTH",
"220 706 OFFCURVE",
"200 679 OFFCURVE",
"200 641 CURVE SMOOTH",
"200 157 LINE SMOOTH",
"200 83 OFFCURVE",
"174 69 OFFCURVE",
"139 69 CURVE SMOOTH",
"103 69 OFFCURVE",
"73 84 OFFCURVE",
"51 100 CURVE",
"36 93 OFFCURVE",
"28 79 OFFCURVE",
"28 63 CURVE SMOOTH"
);
},
{
closed = 1;
nodes = (
"133 752 LINE",
"253 840 LINE",
"373 752 LINE",
"413 752 LINE",
"293 900 LINE",
"213 900 LINE",
"93 752 LINE"
);
}
);
width = 364;
}
);
leftKerningGroup = J;
note = Jcircumflex;
rightKerningGroup = J;
unicode = 0134;
},
{
glyphname = K;
lastChange = "2018-03-13 07:04:02 +0000";
layers = (
{
anchors = (
{
name = bottom;
position = "{286, 0}";
},
{
name = top;
position = "{286, 700}";
}
);
layerId = "B248ED2E-FA6D-462F-83C4-0CD4D6FD5656";
paths = (
{
closed = 1;
nodes = (
"91 -5 OFFCURVE",
"101 -6 OFFCURVE",
"110 -6 CURVE SMOOTH",
"147 -6 OFFCURVE",
"168 21 OFFCURVE",
"168 59 CURVE SMOOTH",
"168 263 LINE",
"227 333 LINE",
"425 32 LINE SMOOTH",
"442 6 OFFCURVE",
"468 -8 OFFCURVE",
"499 -8 CURVE SMOOTH",
"515 -8 OFFCURVE",
"532 -6 OFFCURVE",
"551 1 CURVE",
"551 12 LINE",
"536 18 OFFCURVE",
"516 44 OFFCURVE",
"484 92 CURVE SMOOTH",
"342 305 LINE SMOOTH",
"318 340 OFFCURVE",
"293 357 OFFCURVE",
"260 357 CURVE",
"247 356 LINE",
"535 700 LINE",
"518 706 OFFCURVE",
"497 708 OFFCURVE",
"485 708 CURVE SMOOTH",
"458 708 OFFCURVE",
"422 691 OFFCURVE",
"397 660 CURVE SMOOTH",
"168 381 LINE",
"168 702 LINE",
"157 705 OFFCURVE",
"146 706 OFFCURVE",
"138 706 CURVE SMOOTH",
"100 706 OFFCURVE",
"80 679 OFFCURVE",
"80 641 CURVE SMOOTH",
"80 -2 LINE"
);
}
);
width = 559;
}
);
leftKerningGroup = H;
leftMetricsKey = H;
note = K;
rightKerningGroup = K;
unicode = 004B;
},
{
glyphname = Kcommaaccent;
lastChange = "2018-03-13 07:04:02 +0000";
layers = (
{
anchors = (
{
name = bottom;
position = "{286, -299}";
},
{
name = top;
position = "{286, 700}";
}
);
layerId = "B248ED2E-FA6D-462F-83C4-0CD4D6FD5656";
paths = (
{
closed = 1;
nodes = (
"91 -5 OFFCURVE",
"101 -6 OFFCURVE",
"110 -6 CURVE SMOOTH",
"147 -6 OFFCURVE",
"168 21 OFFCURVE",
"168 59 CURVE SMOOTH",
"168 263 LINE",
"227 333 LINE",
"425 32 LINE SMOOTH",
"442 6 OFFCURVE",
"468 -8 OFFCURVE",
"499 -8 CURVE SMOOTH",
"515 -8 OFFCURVE",
"532 -6 OFFCURVE",
"551 1 CURVE",
"551 12 LINE",
"536 18 OFFCURVE",
"516 44 OFFCURVE",
"484 92 CURVE SMOOTH",
"342 305 LINE SMOOTH",
"318 340 OFFCURVE",
"293 357 OFFCURVE",
"260 357 CURVE",
"247 356 LINE",
"535 700 LINE",
"518 706 OFFCURVE",
"497 708 OFFCURVE",
"485 708 CURVE SMOOTH",
"458 708 OFFCURVE",
"422 691 OFFCURVE",
"397 660 CURVE SMOOTH",
"168 381 LINE",
"168 702 LINE",
"157 705 OFFCURVE",
"146 706 OFFCURVE",
"138 706 CURVE SMOOTH",
"100 706 OFFCURVE",
"80 679 OFFCURVE",
"80 641 CURVE SMOOTH",
"80 -2 LINE"
);
},
{
closed = 1;
nodes = (
"221 -157 OFFCURVE",
"248 -184 OFFCURVE",
"284 -184 CURVE",
"288 -221 OFFCURVE",
"270 -248 OFFCURVE",
"239 -272 CURVE",
"264 -306 LINE",
"323 -268 OFFCURVE",
"351 -202 OFFCURVE",
"351 -146 CURVE SMOOTH",
"351 -87 OFFCURVE",
"320 -60 OFFCURVE",
"284 -60 CURVE SMOOTH",
"248 -60 OFFCURVE",
"221 -87 OFFCURVE",
"221 -122 CURVE SMOOTH"
);
}
);
width = 559;
}
);
note = Kcommaaccent;
rightKerningGroup = K;
unicode = 0136;
},
{
glyphname = L;
lastChange = "2018-03-13 07:04:02 +0000";
layers = (
{
anchors = (
{
name = bottom;
position = "{257, 0}";
},
{
name = center;
position = "{317, 350}";
},
{
name = top;
position = "{137, 700}";
},
{
name = topright;
position = "{474, 700}";
}
);
layerId = "B248ED2E-FA6D-462F-83C4-0CD4D6FD5656";
paths = (
{
closed = 1;
nodes = (
"50 0 LINE",
"415 0 LINE SMOOTH",
"448 0 OFFCURVE",
"472 17 OFFCURVE",
"472 50 CURVE SMOOTH",
"472 57 OFFCURVE",
"471 67 OFFCURVE",
"468 76 CURVE",
"157 76 LINE",
"171 108 OFFCURVE",
"172 143 OFFCURVE",
"172 177 CURVE SMOOTH",
"172 702 LINE",
"161 705 OFFCURVE",
"150 706 OFFCURVE",
"142 706 CURVE SMOOTH",
"104 706 OFFCURVE",
"84 679 OFFCURVE",
"84 641 CURVE SMOOTH",
"84 177 LINE SMOOTH",
"84 98 OFFCURVE",
"76 62 OFFCURVE",
"42 21 CURVE"
);
}
);
width = 494;
}
);
leftKerningGroup = F;
leftMetricsKey = F;
note = L;
rightKerningGroup = L;
unicode = 004C;
},
{
glyphname = Lacute;
lastChange = "2018-03-13 07:04:02 +0000";
layers = (
{
anchors = (
{
name = bottom;
position = "{257, 0}";
},
{
name = center;
position = "{317, 350}";
},
{
name = top;
position = "{181, 910}";
},
{
name = topright;
position = "{474, 700}";
}
);
layerId = "B248ED2E-FA6D-462F-83C4-0CD4D6FD5656";
paths = (
{
closed = 1;
nodes = (
"50 0 LINE",
"415 0 LINE SMOOTH",
"448 0 OFFCURVE",
"472 17 OFFCURVE",
"472 50 CURVE SMOOTH",
"472 57 OFFCURVE",
"471 67 OFFCURVE",
"468 76 CURVE",
"157 76 LINE",
"171 108 OFFCURVE",
"172 143 OFFCURVE",
"172 177 CURVE SMOOTH",
"172 702 LINE",
"161 705 OFFCURVE",
"150 706 OFFCURVE",
"142 706 CURVE SMOOTH",
"104 706 OFFCURVE",
"84 679 OFFCURVE",
"84 641 CURVE SMOOTH",
"84 177 LINE SMOOTH",
"84 98 OFFCURVE",
"76 62 OFFCURVE",
"42 21 CURVE"
);
},
{
closed = 1;
nodes = (
"124 752 LINE",
"231 910 LINE",
"135 910 LINE",
"84 752 LINE"
);
}
);
width = 494;
}
);
note = Lacute;
rightKerningGroup = L;
unicode = 0139;
},
{
glyphname = Lcaron;
lastChange = "2018-03-13 07:04:02 +0000";
layers = (
{
anchors = (
{
name = bottom;
position = "{257, 0}";
},
{
name = center;
position = "{317, 350}";
},
{
name = top;
position = "{137, 700}";
},
{
name = topright;
position = "{474, 700}";
}
);
layerId = "B248ED2E-FA6D-462F-83C4-0CD4D6FD5656";
paths = (
{
closed = 1;
nodes = (
"50 0 LINE",
"415 0 LINE SMOOTH",
"448 0 OFFCURVE",
"472 17 OFFCURVE",
"472 50 CURVE SMOOTH",
"472 57 OFFCURVE",
"471 67 OFFCURVE",
"468 76 CURVE",
"157 76 LINE",
"171 108 OFFCURVE",
"172 143 OFFCURVE",
"172 177 CURVE SMOOTH",
"172 702 LINE",
"161 705 OFFCURVE",
"150 706 OFFCURVE",
"142 706 CURVE SMOOTH",
"104 706 OFFCURVE",
"84 679 OFFCURVE",
"84 641 CURVE SMOOTH",
"84 177 LINE SMOOTH",
"84 98 OFFCURVE",
"76 62 OFFCURVE",
"42 21 CURVE"
);
},
{
closed = 1;
nodes = (
"331 623 OFFCURVE",
"358 596 OFFCURVE",
"394 596 CURVE",
"398 559 OFFCURVE",
"380 532 OFFCURVE",
"349 508 CURVE",
"374 474 LINE",
"433 512 OFFCURVE",
"461 578 OFFCURVE",
"461 634 CURVE SMOOTH",
"461 693 OFFCURVE",
"430 720 OFFCURVE",
"394 720 CURVE SMOOTH",
"358 720 OFFCURVE",
"331 693 OFFCURVE",
"331 658 CURVE SMOOTH"
);
}
);
width = 494;
}
);
note = Lcaron;
rightKerningGroup = L;
unicode = 013D;
},
{
glyphname = Lcommaaccent;
lastChange = "2018-03-13 07:04:02 +0000";
layers = (
{
anchors = (
{
name = bottom;
position = "{257, -299}";
},
{
name = center;
position = "{317, 350}";
},
{
name = top;
position = "{137, 700}";
},
{
name = topright;
position = "{474, 700}";
}
);
layerId = "B248ED2E-FA6D-462F-83C4-0CD4D6FD5656";
paths = (
{
closed = 1;
nodes = (
"50 0 LINE",
"415 0 LINE SMOOTH",
"448 0 OFFCURVE",
"472 17 OFFCURVE",
"472 50 CURVE SMOOTH",
"472 57 OFFCURVE",
"471 67 OFFCURVE",
"468 76 CURVE",
"157 76 LINE",
"171 108 OFFCURVE",
"172 143 OFFCURVE",
"172 177 CURVE SMOOTH",
"172 702 LINE",
"161 705 OFFCURVE",
"150 706 OFFCURVE",
"142 706 CURVE SMOOTH",
"104 706 OFFCURVE",
"84 679 OFFCURVE",
"84 641 CURVE SMOOTH",
"84 177 LINE SMOOTH",
"84 98 OFFCURVE",
"76 62 OFFCURVE",
"42 21 CURVE"
);
},
{
closed = 1;
nodes = (
"192 -157 OFFCURVE",
"219 -184 OFFCURVE",
"255 -184 CURVE",
"259 -221 OFFCURVE",
"241 -248 OFFCURVE",
"210 -272 CURVE",
"235 -306 LINE",
"294 -268 OFFCURVE",
"322 -202 OFFCURVE",
"322 -146 CURVE SMOOTH",
"322 -87 OFFCURVE",
"291 -60 OFFCURVE",
"255 -60 CURVE SMOOTH",
"219 -60 OFFCURVE",
"192 -87 OFFCURVE",
"192 -122 CURVE SMOOTH"
);
}
);
width = 494;
}
);
note = Lcommaaccent;
rightKerningGroup = L;
unicode = 013B;
},
{
glyphname = Ldot;
lastChange = "2018-03-13 07:04:02 +0000";
layers = (
{
anchors = (
{
name = bottom;
position = "{257, 0}";
},
{
name = center;
position = "{317, 350}";
},
{
name = top;
position = "{137, 700}";
},
{
name = topright;
position = "{474, 700}";
}
);
layerId = "B248ED2E-FA6D-462F-83C4-0CD4D6FD5656";
paths = (
{
closed = 1;
nodes = (
"50 0 LINE",
"415 0 LINE SMOOTH",
"448 0 OFFCURVE",
"472 17 OFFCURVE",
"472 50 CURVE SMOOTH",
"472 57 OFFCURVE",
"471 67 OFFCURVE",
"468 76 CURVE",
"157 76 LINE",
"171 108 OFFCURVE",
"172 143 OFFCURVE",
"172 177 CURVE SMOOTH",
"172 702 LINE",
"161 705 OFFCURVE",
"150 706 OFFCURVE",
"142 706 CURVE SMOOTH",
"104 706 OFFCURVE",
"84 679 OFFCURVE",
"84 641 CURVE SMOOTH",
"84 177 LINE SMOOTH",
"84 98 OFFCURVE",
"76 62 OFFCURVE",
"42 21 CURVE"
);
},
{
closed = 1;
nodes = (
"252 315 OFFCURVE",
"279 288 OFFCURVE",
"315 288 CURVE SMOOTH",
"351 288 OFFCURVE",
"378 315 OFFCURVE",
"378 350 CURVE SMOOTH",
"378 385 OFFCURVE",
"351 412 OFFCURVE",
"315 412 CURVE SMOOTH",
"279 412 OFFCURVE",
"252 385 OFFCURVE",
"252 350 CURVE SMOOTH"
);
}
);
width = 494;
}
);
note = Ldot;
rightKerningGroup = L;
unicode = 013F;
},
{
glyphname = Ldotbelow;
lastChange = "2018-03-13 07:04:02 +0000";
layers = (
{
anchors = (
{
name = bottom;
position = "{257, -175}";
},
{
name = center;
position = "{317, 350}";
},
{
name = top;
position = "{137, 700}";
},
{
name = topright;
position = "{474, 700}";
}
);
layerId = "B248ED2E-FA6D-462F-83C4-0CD4D6FD5656";
paths = (
{
closed = 1;
nodes = (
"50 0 LINE",
"415 0 LINE SMOOTH",
"448 0 OFFCURVE",
"472 17 OFFCURVE",
"472 50 CURVE SMOOTH",
"472 57 OFFCURVE",
"471 67 OFFCURVE",
"468 76 CURVE",
"157 76 LINE",
"171 108 OFFCURVE",
"172 143 OFFCURVE",
"172 177 CURVE SMOOTH",
"172 702 LINE",
"161 705 OFFCURVE",
"150 706 OFFCURVE",
"142 706 CURVE SMOOTH",
"104 706 OFFCURVE",
"84 679 OFFCURVE",
"84 641 CURVE SMOOTH",
"84 177 LINE SMOOTH",
"84 98 OFFCURVE",
"76 62 OFFCURVE",
"42 21 CURVE"
);
},
{
closed = 1;
nodes = (
"195 -150 OFFCURVE",
"219 -175 OFFCURVE",
"258 -175 CURVE SMOOTH",
"295 -175 OFFCURVE",
"319 -150 OFFCURVE",
"319 -114 CURVE SMOOTH",
"319 -76 OFFCURVE",
"295 -51 OFFCURVE",
"258 -51 CURVE SMOOTH",
"219 -51 OFFCURVE",
"195 -76 OFFCURVE",
"195 -114 CURVE SMOOTH"
);
}
);
width = 494;
}
);
note = Ldotbelow;
rightKerningGroup = L;
unicode = 1E36;
},
{
glyphname = Ldotbelowmacron;
lastChange = "2018-03-13 07:04:02 +0000";
layers = (
{
anchors = (
{
name = bottom;
position = "{257, -175}";
},
{
name = center;
position = "{317, 350}";
},
{
name = top;
position = "{247, 823}";
},
{
name = topright;
position = "{474, 700}";
}
);
layerId = "B248ED2E-FA6D-462F-83C4-0CD4D6FD5656";
paths = (
{
closed = 1;
nodes = (
"50 0 LINE",
"415 0 LINE SMOOTH",
"448 0 OFFCURVE",
"472 17 OFFCURVE",
"472 50 CURVE SMOOTH",
"472 57 OFFCURVE",
"471 67 OFFCURVE",
"468 76 CURVE",
"157 76 LINE",
"171 108 OFFCURVE",
"172 143 OFFCURVE",
"172 177 CURVE SMOOTH",
"172 702 LINE",
"161 705 OFFCURVE",
"150 706 OFFCURVE",
"142 706 CURVE SMOOTH",
"104 706 OFFCURVE",
"84 679 OFFCURVE",
"84 641 CURVE SMOOTH",
"84 177 LINE SMOOTH",
"84 98 OFFCURVE",
"76 62 OFFCURVE",
"42 21 CURVE"
);
},
{
closed = 1;
nodes = (
"399 772 LINE",
"399 822 LINE",
"95 822 LINE",
"95 772 LINE"
);
},
{
closed = 1;
nodes = (
"195 -150 OFFCURVE",
"219 -175 OFFCURVE",
"258 -175 CURVE SMOOTH",
"295 -175 OFFCURVE",
"319 -150 OFFCURVE",
"319 -114 CURVE SMOOTH",
"319 -76 OFFCURVE",
"295 -51 OFFCURVE",
"258 -51 CURVE SMOOTH",
"219 -51 OFFCURVE",
"195 -76 OFFCURVE",
"195 -114 CURVE SMOOTH"
);
}
);
width = 494;
}
);
note = Ldotbelowmacron;
rightKerningGroup = L;
unicode = 1E38;
},
{
glyphname = Llinebelow;
lastChange = "2018-03-13 07:04:02 +0000";
layers = (
{
anchors = (
{
name = bottom;
position = "{257, -110}";
},
{
name = center;
position = "{317, 350}";
},
{
name = top;
position = "{137, 700}";
},
{
name = topright;
position = "{474, 700}";
}
);
layerId = "B248ED2E-FA6D-462F-83C4-0CD4D6FD5656";
paths = (
{
closed = 1;
nodes = (
"50 0 LINE",
"415 0 LINE SMOOTH",
"448 0 OFFCURVE",
"472 17 OFFCURVE",
"472 50 CURVE SMOOTH",
"472 57 OFFCURVE",
"471 67 OFFCURVE",
"468 76 CURVE",
"157 76 LINE",
"171 108 OFFCURVE",
"172 143 OFFCURVE",
"172 177 CURVE SMOOTH",
"172 702 LINE",
"161 705 OFFCURVE",
"150 706 OFFCURVE",
"142 706 CURVE SMOOTH",
"104 706 OFFCURVE",
"84 679 OFFCURVE",
"84 641 CURVE SMOOTH",
"84 177 LINE SMOOTH",
"84 98 OFFCURVE",
"76 62 OFFCURVE",
"42 21 CURVE"
);
},
{
closed = 1;
nodes = (
"409 -122 LINE",
"409 -72 LINE",
"105 -72 LINE",
"105 -122 LINE"
);
}
);
width = 494;
}
);
note = Llinebelow;
rightKerningGroup = L;
unicode = 1E3A;
},
{
glyphname = Lslash;
lastChange = "2018-03-13 07:04:02 +0000";
layers = (
{
anchors = (
{
name = bottom;
position = "{257, 0}";
},
{
name = center;
position = "{317, 350}";
},
{
name = top;
position = "{137, 700}";
},
{
name = topright;
position = "{474, 700}";
}
);
layerId = "B248ED2E-FA6D-462F-83C4-0CD4D6FD5656";
paths = (
{
closed = 1;
nodes = (
"84 349 LINE",
"84 177 LINE SMOOTH",
"84 98 OFFCURVE",
"76 62 OFFCURVE",
"42 21 CURVE",
"50 0 LINE",
"415 0 LINE SMOOTH",
"448 0 OFFCURVE",
"472 17 OFFCURVE",
"472 50 CURVE SMOOTH",
"472 57 OFFCURVE",
"471 67 OFFCURVE",
"468 76 CURVE",
"157 76 LINE",
"171 108 OFFCURVE",
"172 143 OFFCURVE",
"172 177 CURVE SMOOTH",
"172 379 LINE",
"350 440 LINE",
"350 500 LINE",
"172 439 LINE",
"172 702 LINE",
"161 705 OFFCURVE",
"150 706 OFFCURVE",
"142 706 CURVE SMOOTH",
"104 706 OFFCURVE",
"84 679 OFFCURVE",
"84 641 CURVE SMOOTH",
"84 409 LINE",
"0 380 LINE",
"0 320 LINE"
);
}
);
width = 494;
}
);
note = Lslash;
rightMetricsKey = L;
unicode = 0141;
},
{
glyphname = M;
lastChange = "2018-03-13 07:04:02 +0000";
layers = (
{
anchors = (
{
name = bottom;
position = "{391, 0}";
},
{
name = top;
position = "{391, 700}";
}
);
layerId = "B248ED2E-FA6D-462F-83C4-0CD4D6FD5656";
paths = (
{
closed = 1;
nodes = (
"90 -7 OFFCURVE",
"101 -8 OFFCURVE",
"109 -8 CURVE SMOOTH",
"146 -8 OFFCURVE",
"166 19 OFFCURVE",
"166 57 CURVE SMOOTH",
"166 554 LINE",
"378 70 LINE",
"410 70 LINE",
"594 490 LINE SMOOTH",
"607 520 OFFCURVE",
"617 541 OFFCURVE",
"624 557 CURVE",
"622 539 OFFCURVE",
"622 520 OFFCURVE",
"622 500 CURVE SMOOTH",
"622 -3 LINE",
"632 -7 OFFCURVE",
"643 -8 OFFCURVE",
"651 -8 CURVE SMOOTH",
"689 -8 OFFCURVE",
"708 19 OFFCURVE",
"708 57 CURVE SMOOTH",
"708 534 LINE SMOOTH",
"708 614 OFFCURVE",
"715 648 OFFCURVE",
"740 686 CURVE",
"734 704 LINE",
"711 704 OFFCURVE",
"686 710 OFFCURVE",
"662 710 CURVE SMOOTH",
"619 710 OFFCURVE",
"594 691 OFFCURVE",
"567 629 CURVE SMOOTH",
"394 234 LINE",
"189 701 LINE",
"176 707 OFFCURVE",
"161 708 OFFCURVE",
"152 708 CURVE SMOOTH",
"105 708 OFFCURVE",
"80 678 OFFCURVE",
"80 622 CURVE SMOOTH",
"80 -3 LINE"
);
}
);
width = 782;
}
);
leftKerningGroup = H;
leftMetricsKey = H;
note = M;
rightKerningGroup = M;
unicode = 004D;
},
{
glyphname = Mdotbelow;
lastChange = "2018-03-13 07:04:02 +0000";
layers = (
{
anchors = (
{
name = bottom;
position = "{391, -175}";
},
{
name = top;
position = "{391, 700}";
}
);
layerId = "B248ED2E-FA6D-462F-83C4-0CD4D6FD5656";
paths = (
{
closed = 1;
nodes = (
"90 -7 OFFCURVE",
"101 -8 OFFCURVE",
"109 -8 CURVE SMOOTH",
"146 -8 OFFCURVE",
"166 19 OFFCURVE",
"166 57 CURVE SMOOTH",
"166 554 LINE",
"378 70 LINE",
"410 70 LINE",
"594 490 LINE SMOOTH",
"607 520 OFFCURVE",
"617 541 OFFCURVE",
"624 557 CURVE",
"622 539 OFFCURVE",
"622 520 OFFCURVE",
"622 500 CURVE SMOOTH",
"622 -3 LINE",
"632 -7 OFFCURVE",
"643 -8 OFFCURVE",
"651 -8 CURVE SMOOTH",
"689 -8 OFFCURVE",
"708 19 OFFCURVE",
"708 57 CURVE SMOOTH",
"708 534 LINE SMOOTH",
"708 614 OFFCURVE",
"715 648 OFFCURVE",
"740 686 CURVE",
"734 704 LINE",
"711 704 OFFCURVE",
"686 710 OFFCURVE",
"662 710 CURVE SMOOTH",
"619 710 OFFCURVE",
"594 691 OFFCURVE",
"567 629 CURVE SMOOTH",
"394 234 LINE",
"189 701 LINE",
"176 707 OFFCURVE",
"161 708 OFFCURVE",
"152 708 CURVE SMOOTH",
"105 708 OFFCURVE",
"80 678 OFFCURVE",
"80 622 CURVE SMOOTH",
"80 -3 LINE"
);
},
{
closed = 1;
nodes = (
"329 -150 OFFCURVE",
"353 -175 OFFCURVE",
"392 -175 CURVE SMOOTH",
"429 -175 OFFCURVE",
"453 -150 OFFCURVE",
"453 -114 CURVE SMOOTH",
"453 -76 OFFCURVE",
"429 -51 OFFCURVE",
"392 -51 CURVE SMOOTH",
"353 -51 OFFCURVE",
"329 -76 OFFCURVE",
"329 -114 CURVE SMOOTH"
);
}
);
width = 782;
}
);
note = Mdotbelow;
unicode = 1E42;
},
{
glyphname = N;
layers = (
{
anchors = (
{
name = bottom;
position = "{340, 0}";
},
{
name = top;
position = "{340, 700}";
}
);
layerId = "B248ED2E-FA6D-462F-83C4-0CD4D6FD5656";
paths = (
{
closed = 1;
nodes = (
"90 -7 OFFCURVE",
"101 -8 OFFCURVE",
"109 -8 CURVE SMOOTH",
"146 -8 OFFCURVE",
"166 19 OFFCURVE",
"166 57 CURVE SMOOTH",
"166 570 LINE",
"471 -1 LINE",
"484 -7 OFFCURVE",
"499 -8 OFFCURVE",
"508 -8 CURVE SMOOTH",
"555 -8 OFFCURVE",
"580 22 OFFCURVE",
"580 78 CURVE SMOOTH",
"580 703 LINE",
"570 707 OFFCURVE",
"559 708 OFFCURVE",
"551 708 CURVE SMOOTH",
"514 708 OFFCURVE",
"494 681 OFFCURVE",
"494 643 CURVE SMOOTH",
"494 130 LINE",
"189 701 LINE",
"176 707 OFFCURVE",
"161 708 OFFCURVE",
"152 708 CURVE SMOOTH",
"105 708 OFFCURVE",
"80 678 OFFCURVE",
"80 622 CURVE SMOOTH",
"80 -3 LINE"
);
}
);
width = 660;
}
);
leftKerningGroup = H;
leftMetricsKey = "=|";
note = N;
rightKerningGroup = H;
rightMetricsKey = H;
unicode = 004E;
},
{
glyphname = Nacute;
layers = (
{
anchors = (
{
name = bottom;
position = "{340, 0}";
},
{
name = top;
position = "{384, 910}";
}
);
layerId = "B248ED2E-FA6D-462F-83C4-0CD4D6FD5656";
paths = (
{
closed = 1;
nodes = (
"90 -7 OFFCURVE",
"101 -8 OFFCURVE",
"109 -8 CURVE SMOOTH",
"146 -8 OFFCURVE",
"166 19 OFFCURVE",
"166 57 CURVE SMOOTH",
"166 570 LINE",
"471 -1 LINE",
"484 -7 OFFCURVE",
"499 -8 OFFCURVE",
"508 -8 CURVE SMOOTH",
"555 -8 OFFCURVE",
"580 22 OFFCURVE",
"580 78 CURVE SMOOTH",
"580 703 LINE",
"570 707 OFFCURVE",
"559 708 OFFCURVE",
"551 708 CURVE SMOOTH",
"514 708 OFFCURVE",
"494 681 OFFCURVE",
"494 643 CURVE SMOOTH",
"494 130 LINE",
"189 701 LINE",
"176 707 OFFCURVE",
"161 708 OFFCURVE",
"152 708 CURVE SMOOTH",
"105 708 OFFCURVE",
"80 678 OFFCURVE",
"80 622 CURVE SMOOTH",
"80 -3 LINE"
);
},
{
closed = 1;
nodes = (
"327 752 LINE",
"434 910 LINE",
"338 910 LINE",
"287 752 LINE"
);
}
);
width = 660;
}
);
note = Nacute;
unicode = 0143;
},
{
glyphname = Ncaron;
layers = (
{
anchors = (
{
name = bottom;
position = "{340, 0}";
},
{
name = top;
position = "{340, 910}";
}
);
layerId = "B248ED2E-FA6D-462F-83C4-0CD4D6FD5656";
paths = (
{
closed = 1;
nodes = (
"90 -7 OFFCURVE",
"101 -8 OFFCURVE",
"109 -8 CURVE SMOOTH",
"146 -8 OFFCURVE",
"166 19 OFFCURVE",
"166 57 CURVE SMOOTH",
"166 570 LINE",
"471 -1 LINE",
"484 -7 OFFCURVE",
"499 -8 OFFCURVE",
"508 -8 CURVE SMOOTH",
"555 -8 OFFCURVE",
"580 22 OFFCURVE",
"580 78 CURVE SMOOTH",
"580 703 LINE",
"570 707 OFFCURVE",
"559 708 OFFCURVE",
"551 708 CURVE SMOOTH",
"514 708 OFFCURVE",
"494 681 OFFCURVE",
"494 643 CURVE SMOOTH",
"494 130 LINE",
"189 701 LINE",
"176 707 OFFCURVE",
"161 708 OFFCURVE",
"152 708 CURVE SMOOTH",
"105 708 OFFCURVE",
"80 678 OFFCURVE",
"80 622 CURVE SMOOTH",
"80 -3 LINE"
);
},
{
closed = 1;
nodes = (
"300 752 LINE",
"380 752 LINE",
"500 900 LINE",
"460 900 LINE",
"340 812 LINE",
"220 900 LINE",
"180 900 LINE"
);
}
);
width = 660;
}
);
note = Ncaron;
unicode = 0147;
},
{
glyphname = Ncommaaccent;
layers = (
{
anchors = (
{
name = bottom;
position = "{340, -299}";
},
{
name = top;
position = "{340, 700}";
}
);
layerId = "B248ED2E-FA6D-462F-83C4-0CD4D6FD5656";
paths = (
{
closed = 1;
nodes = (
"90 -7 OFFCURVE",
"101 -8 OFFCURVE",
"109 -8 CURVE SMOOTH",
"146 -8 OFFCURVE",
"166 19 OFFCURVE",
"166 57 CURVE SMOOTH",
"166 570 LINE",
"471 -1 LINE",
"484 -7 OFFCURVE",
"499 -8 OFFCURVE",
"508 -8 CURVE SMOOTH",
"555 -8 OFFCURVE",
"580 22 OFFCURVE",
"580 78 CURVE SMOOTH",
"580 703 LINE",
"570 707 OFFCURVE",
"559 708 OFFCURVE",
"551 708 CURVE SMOOTH",
"514 708 OFFCURVE",
"494 681 OFFCURVE",
"494 643 CURVE SMOOTH",
"494 130 LINE",
"189 701 LINE",
"176 707 OFFCURVE",
"161 708 OFFCURVE",
"152 708 CURVE SMOOTH",
"105 708 OFFCURVE",
"80 678 OFFCURVE",
"80 622 CURVE SMOOTH",
"80 -3 LINE"
);
},
{
closed = 1;
nodes = (
"275 -157 OFFCURVE",
"302 -184 OFFCURVE",
"338 -184 CURVE",
"342 -221 OFFCURVE",
"324 -248 OFFCURVE",
"293 -272 CURVE",
"318 -306 LINE",
"377 -268 OFFCURVE",
"405 -202 OFFCURVE",
"405 -146 CURVE SMOOTH",
"405 -87 OFFCURVE",
"374 -60 OFFCURVE",
"338 -60 CURVE SMOOTH",
"302 -60 OFFCURVE",
"275 -87 OFFCURVE",
"275 -122 CURVE SMOOTH"
);
}
);
width = 660;
}
);
note = Ncommaaccent;
unicode = 0145;
},
{
glyphname = Ndotaccent;
layers = (
{
anchors = (
{
name = bottom;
position = "{340, 0}";
},
{
name = top;
position = "{341, 877}";
}
);
layerId = "B248ED2E-FA6D-462F-83C4-0CD4D6FD5656";
paths = (
{
closed = 1;
nodes = (
"90 -7 OFFCURVE",
"101 -8 OFFCURVE",
"109 -8 CURVE SMOOTH",
"146 -8 OFFCURVE",
"166 19 OFFCURVE",
"166 57 CURVE SMOOTH",
"166 570 LINE",
"471 -1 LINE",
"484 -7 OFFCURVE",
"499 -8 OFFCURVE",
"508 -8 CURVE SMOOTH",
"555 -8 OFFCURVE",
"580 22 OFFCURVE",
"580 78 CURVE SMOOTH",
"580 703 LINE",
"570 707 OFFCURVE",
"559 708 OFFCURVE",
"551 708 CURVE SMOOTH",
"514 708 OFFCURVE",
"494 681 OFFCURVE",
"494 643 CURVE SMOOTH",
"494 130 LINE",
"189 701 LINE",
"176 707 OFFCURVE",
"161 708 OFFCURVE",
"152 708 CURVE SMOOTH",
"105 708 OFFCURVE",
"80 678 OFFCURVE",
"80 622 CURVE SMOOTH",
"80 -3 LINE"
);
},
{
closed = 1;
nodes = (
"278 778 OFFCURVE",
"302 753 OFFCURVE",
"341 753 CURVE SMOOTH",
"378 753 OFFCURVE",
"402 778 OFFCURVE",
"402 814 CURVE SMOOTH",
"402 852 OFFCURVE",
"378 877 OFFCURVE",
"341 877 CURVE SMOOTH",
"302 877 OFFCURVE",
"278 852 OFFCURVE",
"278 814 CURVE SMOOTH"
);
}
);
width = 660;
}
);
note = Ndotaccent;
unicode = 1E44;
},
{
glyphname = Ndotbelow;
layers = (
{
anchors = (
{
name = bottom;
position = "{340, -175}";
},
{
name = top;
position = "{340, 700}";
}
);
layerId = "B248ED2E-FA6D-462F-83C4-0CD4D6FD5656";
paths = (
{
closed = 1;
nodes = (
"90 -7 OFFCURVE",
"101 -8 OFFCURVE",
"109 -8 CURVE SMOOTH",
"146 -8 OFFCURVE",
"166 19 OFFCURVE",
"166 57 CURVE SMOOTH",
"166 570 LINE",
"471 -1 LINE",
"484 -7 OFFCURVE",
"499 -8 OFFCURVE",
"508 -8 CURVE SMOOTH",
"555 -8 OFFCURVE",
"580 22 OFFCURVE",
"580 78 CURVE SMOOTH",
"580 703 LINE",
"570 707 OFFCURVE",
"559 708 OFFCURVE",
"551 708 CURVE SMOOTH",
"514 708 OFFCURVE",
"494 681 OFFCURVE",
"494 643 CURVE SMOOTH",
"494 130 LINE",
"189 701 LINE",
"176 707 OFFCURVE",
"161 708 OFFCURVE",
"152 708 CURVE SMOOTH",
"105 708 OFFCURVE",
"80 678 OFFCURVE",
"80 622 CURVE SMOOTH",
"80 -3 LINE"
);
},
{
closed = 1;
nodes = (
"278 -150 OFFCURVE",
"302 -175 OFFCURVE",
"341 -175 CURVE SMOOTH",
"378 -175 OFFCURVE",
"402 -150 OFFCURVE",
"402 -114 CURVE SMOOTH",
"402 -76 OFFCURVE",
"378 -51 OFFCURVE",
"341 -51 CURVE SMOOTH",
"302 -51 OFFCURVE",
"278 -76 OFFCURVE",
"278 -114 CURVE SMOOTH"
);
}
);
width = 660;
}
);
note = uni1E46;
unicode = 1E46;
},
{
glyphname = Eng;
layers = (
{
anchors = (
{
name = bottom;
position = "{340, 0}";
},
{
name = top;
position = "{340, 700}";
}
);
layerId = "B248ED2E-FA6D-462F-83C4-0CD4D6FD5656";
paths = (
{
closed = 1;
nodes = (
"90 -7 OFFCURVE",
"101 -8 OFFCURVE",
"109 -8 CURVE SMOOTH",
"146 -8 OFFCURVE",
"166 19 OFFCURVE",
"166 57 CURVE SMOOTH",
"166 570 LINE",
"471 -1 LINE",
"479 -5 OFFCURVE",
"487 -6 OFFCURVE",
"495 -7 CURVE",
"495 -106 LINE SMOOTH",
"495 -158 OFFCURVE",
"475 -187 OFFCURVE",
"436 -187 CURVE SMOOTH",
"419 -187 OFFCURVE",
"400 -184 OFFCURVE",
"382 -177 CURVE",
"368 -182 OFFCURVE",
"359 -196 OFFCURVE",
"359 -213 CURVE SMOOTH",
"359 -243 OFFCURVE",
"393 -262 OFFCURVE",
"446 -262 CURVE SMOOTH",
"529 -262 OFFCURVE",
"580 -201 OFFCURVE",
"580 -106 CURVE SMOOTH",
"580 703 LINE",
"570 707 OFFCURVE",
"559 708 OFFCURVE",
"551 708 CURVE SMOOTH",
"514 708 OFFCURVE",
"494 681 OFFCURVE",
"494 643 CURVE SMOOTH",
"494 130 LINE",
"189 701 LINE",
"176 707 OFFCURVE",
"161 708 OFFCURVE",
"152 708 CURVE SMOOTH",
"105 708 OFFCURVE",
"80 678 OFFCURVE",
"80 622 CURVE SMOOTH",
"80 -3 LINE"
);
}
);
width = 660;
}
);
leftMetricsKey = N;
note = Eng;
rightMetricsKey = N;
unicode = 014A;
},
{
glyphname = Nlinebelow;
layers = (
{
anchors = (
{
name = bottom;
position = "{340, -110}";
},
{
name = top;
position = "{340, 700}";
}
);
layerId = "B248ED2E-FA6D-462F-83C4-0CD4D6FD5656";
paths = (
{
closed = 1;
nodes = (
"90 -7 OFFCURVE",
"101 -8 OFFCURVE",
"109 -8 CURVE SMOOTH",
"146 -8 OFFCURVE",
"166 19 OFFCURVE",
"166 57 CURVE SMOOTH",
"166 570 LINE",
"471 -1 LINE",
"484 -7 OFFCURVE",
"499 -8 OFFCURVE",
"508 -8 CURVE SMOOTH",
"555 -8 OFFCURVE",
"580 22 OFFCURVE",
"580 78 CURVE SMOOTH",
"580 703 LINE",
"570 707 OFFCURVE",
"559 708 OFFCURVE",
"551 708 CURVE SMOOTH",
"514 708 OFFCURVE",
"494 681 OFFCURVE",
"494 643 CURVE SMOOTH",
"494 130 LINE",
"189 701 LINE",
"176 707 OFFCURVE",
"161 708 OFFCURVE",
"152 708 CURVE SMOOTH",
"105 708 OFFCURVE",
"80 678 OFFCURVE",
"80 622 CURVE SMOOTH",
"80 -3 LINE"
);
},
{
closed = 1;
nodes = (
"492 -122 LINE",
"492 -72 LINE",
"188 -72 LINE",
"188 -122 LINE"
);
}
);
width = 660;
}
);
note = Nlinebelow;
unicode = 1E48;
},
{
glyphname = Ntilde;
layers = (
{
anchors = (
{
name = bottom;
position = "{340, 0}";
},
{
name = top;
position = "{340, 878}";
}
);
layerId = "B248ED2E-FA6D-462F-83C4-0CD4D6FD5656";
paths = (
{
closed = 1;
nodes = (
"90 -7 OFFCURVE",
"101 -8 OFFCURVE",
"109 -8 CURVE SMOOTH",
"146 -8 OFFCURVE",
"166 19 OFFCURVE",
"166 57 CURVE SMOOTH",
"166 570 LINE",
"471 -1 LINE",
"484 -7 OFFCURVE",
"499 -8 OFFCURVE",
"508 -8 CURVE SMOOTH",
"555 -8 OFFCURVE",
"580 22 OFFCURVE",
"580 78 CURVE SMOOTH",
"580 703 LINE",
"570 707 OFFCURVE",
"559 708 OFFCURVE",
"551 708 CURVE SMOOTH",
"514 708 OFFCURVE",
"494 681 OFFCURVE",
"494 643 CURVE SMOOTH",
"494 130 LINE",
"189 701 LINE",
"176 707 OFFCURVE",
"161 708 OFFCURVE",
"152 708 CURVE SMOOTH",
"105 708 OFFCURVE",
"80 678 OFFCURVE",
"80 622 CURVE SMOOTH",
"80 -3 LINE"
);
},
{
closed = 1;
nodes = (
"229 752 LINE",
"242 784 OFFCURVE",
"257 802 OFFCURVE",
"282 802 CURVE SMOOTH",
"323 802 OFFCURVE",
"346 752 OFFCURVE",
"400 752 CURVE SMOOTH",
"445 752 OFFCURVE",
"489 786 OFFCURVE",
"494 868 CURVE",
"451 868 LINE",
"439 836 OFFCURVE",
"423 818 OFFCURVE",
"398 818 CURVE SMOOTH",
"356 818 OFFCURVE",
"334 868 OFFCURVE",
"281 868 CURVE SMOOTH",
"235 868 OFFCURVE",
"192 832 OFFCURVE",
"186 752 CURVE"
);
}
);
width = 660;
}
);
note = Ntilde;
unicode = 00D1;
},
{
glyphname = O;
layers = (
{
anchors = (
{
name = bottom;
position = "{371, 0}";
},
{
name = center;
position = "{371, 350}";
},
{
name = ogonek;
position = "{446, 10}";
},
{
name = top;
position = "{371, 700}";
},
{
name = topleft;
position = "{20, 700}";
},
{
name = topright;
position = "{597, 510}";
}
);
layerId = "B248ED2E-FA6D-462F-83C4-0CD4D6FD5656";
paths = (
{
closed = 1;
nodes = (
"46 130 OFFCURVE",
"171 -12 OFFCURVE",
"370 -12 CURVE SMOOTH",
"568 -12 OFFCURVE",
"696 128 OFFCURVE",
"696 351 CURVE SMOOTH",
"696 574 OFFCURVE",
"568 714 OFFCURVE",
"370 714 CURVE SMOOTH",
"171 714 OFFCURVE",
"46 572 OFFCURVE",
"46 351 CURVE SMOOTH"
);
},
{
closed = 1;
nodes = (
"138 527 OFFCURVE",
"227 640 OFFCURVE",
"370 640 CURVE SMOOTH",
"512 640 OFFCURVE",
"604 529 OFFCURVE",
"604 351 CURVE SMOOTH",
"604 173 OFFCURVE",
"512 62 OFFCURVE",
"370 62 CURVE SMOOTH",
"227 62 OFFCURVE",
"138 175 OFFCURVE",
"138 351 CURVE SMOOTH"
);
}
);
width = 742;
}
);
leftKerningGroup = O;
note = O;
rightKerningGroup = O;
unicode = 004F;
},
{
glyphname = Oacute;
layers = (
{
anchors = (
{
name = bottom;
position = "{371, 0}";
},
{
name = center;
position = "{371, 350}";
},
{
name = ogonek;
position = "{446, 10}";
},
{
name = top;
position = "{415, 910}";
},
{
name = topleft;
position = "{20, 700}";
},
{
name = topright;
position = "{597, 510}";
}
);
layerId = "B248ED2E-FA6D-462F-83C4-0CD4D6FD5656";
paths = (
{
closed = 1;
nodes = (
"46 130 OFFCURVE",
"171 -12 OFFCURVE",
"370 -12 CURVE SMOOTH",
"568 -12 OFFCURVE",
"696 128 OFFCURVE",
"696 351 CURVE SMOOTH",
"696 574 OFFCURVE",
"568 714 OFFCURVE",
"370 714 CURVE SMOOTH",
"171 714 OFFCURVE",
"46 572 OFFCURVE",
"46 351 CURVE SMOOTH"
);
},
{
closed = 1;
nodes = (
"138 527 OFFCURVE",
"227 640 OFFCURVE",
"370 640 CURVE SMOOTH",
"512 640 OFFCURVE",
"604 529 OFFCURVE",
"604 351 CURVE SMOOTH",
"604 173 OFFCURVE",
"512 62 OFFCURVE",
"370 62 CURVE SMOOTH",
"227 62 OFFCURVE",
"138 175 OFFCURVE",
"138 351 CURVE SMOOTH"
);
},
{
closed = 1;
nodes = (
"358 752 LINE",
"465 910 LINE",
"369 910 LINE",
"318 752 LINE"
);
}
);
width = 742;
}
);
leftKerningGroup = O;
note = Oacute;
rightKerningGroup = O;
unicode = 00D3;
},
{
glyphname = Obreve;
layers = (
{
anchors = (
{
name = bottom;
position = "{371, 0}";
},
{
name = center;
position = "{371, 350}";
},
{
name = ogonek;
position = "{446, 10}";
},
{
name = top;
position = "{371, 890}";
},
{
name = topleft;
position = "{20, 700}";
},
{
name = topright;
position = "{597, 510}";
}
);
layerId = "B248ED2E-FA6D-462F-83C4-0CD4D6FD5656";
paths = (
{
closed = 1;
nodes = (
"46 130 OFFCURVE",
"171 -12 OFFCURVE",
"370 -12 CURVE SMOOTH",
"568 -12 OFFCURVE",
"696 128 OFFCURVE",
"696 351 CURVE SMOOTH",
"696 574 OFFCURVE",
"568 714 OFFCURVE",
"370 714 CURVE SMOOTH",
"171 714 OFFCURVE",
"46 572 OFFCURVE",
"46 351 CURVE SMOOTH"
);
},
{
closed = 1;
nodes = (
"138 527 OFFCURVE",
"227 640 OFFCURVE",
"370 640 CURVE SMOOTH",
"512 640 OFFCURVE",
"604 529 OFFCURVE",
"604 351 CURVE SMOOTH",
"604 173 OFFCURVE",
"512 62 OFFCURVE",
"370 62 CURVE SMOOTH",
"227 62 OFFCURVE",
"138 175 OFFCURVE",
"138 351 CURVE SMOOTH"
);
},
{
closed = 1;
nodes = (
"235 802 OFFCURVE",
"289 746 OFFCURVE",
"371 746 CURVE SMOOTH",
"453 746 OFFCURVE",
"507 802 OFFCURVE",
"511 890 CURVE",
"473 890 LINE",
"468 842 OFFCURVE",
"428 812 OFFCURVE",
"371 812 CURVE SMOOTH",
"314 812 OFFCURVE",
"274 842 OFFCURVE",
"269 890 CURVE",
"231 890 LINE"
);
}
);
width = 742;
}
);
leftKerningGroup = O;
note = Obreve;
rightKerningGroup = O;
unicode = 014E;
},
{
glyphname = Ocaron;
layers = (
{
anchors = (
{
name = bottom;
position = "{371, 0}";
},
{
name = center;
position = "{371, 350}";
},
{
name = ogonek;
position = "{446, 10}";
},
{
name = top;
position = "{371, 910}";
},
{
name = topleft;
position = "{20, 700}";
},
{
name = topright;
position = "{597, 510}";
}
);
layerId = "B248ED2E-FA6D-462F-83C4-0CD4D6FD5656";
paths = (
{
closed = 1;
nodes = (
"46 130 OFFCURVE",
"171 -12 OFFCURVE",
"370 -12 CURVE SMOOTH",
"568 -12 OFFCURVE",
"696 128 OFFCURVE",
"696 351 CURVE SMOOTH",
"696 574 OFFCURVE",
"568 714 OFFCURVE",
"370 714 CURVE SMOOTH",
"171 714 OFFCURVE",
"46 572 OFFCURVE",
"46 351 CURVE SMOOTH"
);
},
{
closed = 1;
nodes = (
"138 527 OFFCURVE",
"227 640 OFFCURVE",
"370 640 CURVE SMOOTH",
"512 640 OFFCURVE",
"604 529 OFFCURVE",
"604 351 CURVE SMOOTH",
"604 173 OFFCURVE",
"512 62 OFFCURVE",
"370 62 CURVE SMOOTH",
"227 62 OFFCURVE",
"138 175 OFFCURVE",
"138 351 CURVE SMOOTH"
);
},
{
closed = 1;
nodes = (
"331 752 LINE",
"411 752 LINE",
"531 900 LINE",
"491 900 LINE",
"371 812 LINE",
"251 900 LINE",
"211 900 LINE"
);
}
);
width = 742;
}
);
leftKerningGroup = O;
note = Ocaron;
rightKerningGroup = O;
unicode = 01D1;
},
{
glyphname = Ocircumflex;
layers = (
{
anchors = (
{
name = bottom;
position = "{371, 0}";
},
{
name = center;
position = "{371, 350}";
},
{
name = ogonek;
position = "{446, 10}";
},
{
name = top;
position = "{371, 900}";
},
{
name = topleft;
position = "{20, 700}";
},
{
name = topright;
position = "{597, 510}";
}
);
layerId = "B248ED2E-FA6D-462F-83C4-0CD4D6FD5656";
paths = (
{
closed = 1;
nodes = (
"46 130 OFFCURVE",
"171 -12 OFFCURVE",
"370 -12 CURVE SMOOTH",
"568 -12 OFFCURVE",
"696 128 OFFCURVE",
"696 351 CURVE SMOOTH",
"696 574 OFFCURVE",
"568 714 OFFCURVE",
"370 714 CURVE SMOOTH",
"171 714 OFFCURVE",
"46 572 OFFCURVE",
"46 351 CURVE SMOOTH"
);
},
{
closed = 1;
nodes = (
"138 527 OFFCURVE",
"227 640 OFFCURVE",
"370 640 CURVE SMOOTH",
"512 640 OFFCURVE",
"604 529 OFFCURVE",
"604 351 CURVE SMOOTH",
"604 173 OFFCURVE",
"512 62 OFFCURVE",
"370 62 CURVE SMOOTH",
"227 62 OFFCURVE",
"138 175 OFFCURVE",
"138 351 CURVE SMOOTH"
);
},
{
closed = 1;
nodes = (
"251 752 LINE",
"371 840 LINE",
"491 752 LINE",
"531 752 LINE",
"411 900 LINE",
"331 900 LINE",
"211 752 LINE"
);
}
);
width = 742;
}
);
leftKerningGroup = O;
note = Ocircumflex;
rightKerningGroup = O;
unicode = 00D4;
},
{
glyphname = Ocircumflexacute;
layers = (
{
anchors = (
{
name = bottom;
position = "{371, 0}";
},
{
name = center;
position = "{371, 350}";
},
{
name = ogonek;
position = "{446, 10}";
},
{
name = top;
position = "{371, 990}";
},
{
name = topleft;
position = "{20, 700}";
},
{
name = topright;
position = "{597, 510}";
}
);
layerId = "B248ED2E-FA6D-462F-83C4-0CD4D6FD5656";
paths = (
{
closed = 1;
nodes = (
"46 130 OFFCURVE",
"171 -12 OFFCURVE",
"370 -12 CURVE SMOOTH",
"568 -12 OFFCURVE",
"696 128 OFFCURVE",
"696 351 CURVE SMOOTH",
"696 574 OFFCURVE",
"568 714 OFFCURVE",
"370 714 CURVE SMOOTH",
"171 714 OFFCURVE",
"46 572 OFFCURVE",
"46 351 CURVE SMOOTH"
);
},
{
closed = 1;
nodes = (
"138 527 OFFCURVE",
"227 640 OFFCURVE",
"370 640 CURVE SMOOTH",
"512 640 OFFCURVE",
"604 529 OFFCURVE",
"604 351 CURVE SMOOTH",
"604 173 OFFCURVE",
"512 62 OFFCURVE",
"370 62 CURVE SMOOTH",
"227 62 OFFCURVE",
"138 175 OFFCURVE",
"138 351 CURVE SMOOTH"
);
},
{
closed = 1;
nodes = (
"251 752 LINE",
"371 840 LINE",
"491 752 LINE",
"531 752 LINE",
"411 900 LINE",
"331 900 LINE",
"211 752 LINE"
);
},
{
closed = 1;
nodes = (
"514 857 LINE",
"600 983 LINE",
"523 983 LINE",
"482 857 LINE"
);
}
);
width = 742;
}
);
leftKerningGroup = O;
note = Ocircumflexacute;
rightKerningGroup = O;
unicode = 1ED0;
},
{
glyphname = Ocircumflexdotbelow;
layers = (
{
anchors = (
{
name = bottom;
position = "{371, -175}";
},
{
name = center;
position = "{371, 350}";
},
{
name = ogonek;
position = "{446, 10}";
},
{
name = top;
position = "{371, 900}";
},
{
name = topleft;
position = "{20, 700}";
},
{
name = topright;
position = "{597, 510}";
}
);
layerId = "B248ED2E-FA6D-462F-83C4-0CD4D6FD5656";
paths = (
{
closed = 1;
nodes = (
"46 130 OFFCURVE",
"171 -12 OFFCURVE",
"370 -12 CURVE SMOOTH",
"568 -12 OFFCURVE",
"696 128 OFFCURVE",
"696 351 CURVE SMOOTH",
"696 574 OFFCURVE",
"568 714 OFFCURVE",
"370 714 CURVE SMOOTH",
"171 714 OFFCURVE",
"46 572 OFFCURVE",
"46 351 CURVE SMOOTH"
);
},
{
closed = 1;
nodes = (
"138 527 OFFCURVE",
"227 640 OFFCURVE",
"370 640 CURVE SMOOTH",
"512 640 OFFCURVE",
"604 529 OFFCURVE",
"604 351 CURVE SMOOTH",
"604 173 OFFCURVE",
"512 62 OFFCURVE",
"370 62 CURVE SMOOTH",
"227 62 OFFCURVE",
"138 175 OFFCURVE",
"138 351 CURVE SMOOTH"
);
},
{
closed = 1;
nodes = (
"251 752 LINE",
"371 840 LINE",
"491 752 LINE",
"531 752 LINE",
"411 900 LINE",
"331 900 LINE",
"211 752 LINE"
);
},
{
closed = 1;
nodes = (
"309 -150 OFFCURVE",
"333 -175 OFFCURVE",
"372 -175 CURVE SMOOTH",
"409 -175 OFFCURVE",
"433 -150 OFFCURVE",
"433 -114 CURVE SMOOTH",
"433 -76 OFFCURVE",
"409 -51 OFFCURVE",
"372 -51 CURVE SMOOTH",
"333 -51 OFFCURVE",
"309 -76 OFFCURVE",
"309 -114 CURVE SMOOTH"
);
}
);
width = 742;
}
);
leftKerningGroup = O;
note = Ocircumflexdotbelow;
rightKerningGroup = O;
unicode = 1ED8;
},
{
glyphname = Ocircumflexgrave;
layers = (
{
anchors = (
{
name = bottom;
position = "{371, 0}";
},
{
name = center;
position = "{371, 350}";
},
{
name = ogonek;
position = "{446, 10}";
},
{
name = top;
position = "{371, 974}";
},
{
name = topleft;
position = "{20, 700}";
},
{
name = topright;
position = "{597, 510}";
}
);
layerId = "B248ED2E-FA6D-462F-83C4-0CD4D6FD5656";
paths = (
{
closed = 1;
nodes = (
"46 130 OFFCURVE",
"171 -12 OFFCURVE",
"370 -12 CURVE SMOOTH",
"568 -12 OFFCURVE",
"696 128 OFFCURVE",
"696 351 CURVE SMOOTH",
"696 574 OFFCURVE",
"568 714 OFFCURVE",
"370 714 CURVE SMOOTH",
"171 714 OFFCURVE",
"46 572 OFFCURVE",
"46 351 CURVE SMOOTH"
);
},
{
closed = 1;
nodes = (
"138 527 OFFCURVE",
"227 640 OFFCURVE",
"370 640 CURVE SMOOTH",
"512 640 OFFCURVE",
"604 529 OFFCURVE",
"604 351 CURVE SMOOTH",
"604 173 OFFCURVE",
"512 62 OFFCURVE",
"370 62 CURVE SMOOTH",
"227 62 OFFCURVE",
"138 175 OFFCURVE",
"138 351 CURVE SMOOTH"
);
},
{
closed = 1;
nodes = (
"251 752 LINE",
"371 840 LINE",
"491 752 LINE",
"531 752 LINE",
"411 900 LINE",
"331 900 LINE",
"211 752 LINE"
);
},
{
closed = 1;
nodes = (
"520 857 LINE",
"552 857 LINE",
"511 983 LINE",
"434 983 LINE"
);
}
);
width = 742;
}
);
leftKerningGroup = O;
note = Ocircumflexgrave;
rightKerningGroup = O;
unicode = 1ED2;
},
{
glyphname = Ocircumflexhookabove;
layers = (
{
anchors = (
{
name = bottom;
position = "{371, 0}";
},
{
name = center;
position = "{371, 350}";
},
{
name = ogonek;
position = "{446, 10}";
},
{
name = top;
position = "{372, 990}";
},
{
name = topleft;
position = "{20, 700}";
},
{
name = topright;
position = "{597, 510}";
}
);
layerId = "B248ED2E-FA6D-462F-83C4-0CD4D6FD5656";
paths = (
{
closed = 1;
nodes = (
"46 130 OFFCURVE",
"171 -12 OFFCURVE",
"370 -12 CURVE SMOOTH",
"568 -12 OFFCURVE",
"696 128 OFFCURVE",
"696 351 CURVE SMOOTH",
"696 574 OFFCURVE",
"568 714 OFFCURVE",
"370 714 CURVE SMOOTH",
"171 714 OFFCURVE",
"46 572 OFFCURVE",
"46 351 CURVE SMOOTH"
);
},
{
closed = 1;
nodes = (
"138 527 OFFCURVE",
"227 640 OFFCURVE",
"370 640 CURVE SMOOTH",
"512 640 OFFCURVE",
"604 529 OFFCURVE",
"604 351 CURVE SMOOTH",
"604 173 OFFCURVE",
"512 62 OFFCURVE",
"370 62 CURVE SMOOTH",
"227 62 OFFCURVE",
"138 175 OFFCURVE",
"138 351 CURVE SMOOTH"
);
},
{
closed = 1;
nodes = (
"251 752 LINE",
"371 840 LINE",
"491 752 LINE",
"531 752 LINE",
"411 900 LINE",
"331 900 LINE",
"211 752 LINE"
);
},
{
closed = 1;
nodes = (
"482 958 OFFCURVE",
"492 960 OFFCURVE",
"501 960 CURVE SMOOTH",
"524 960 OFFCURVE",
"533 949 OFFCURVE",
"533 929 CURVE SMOOTH",
"533 905 OFFCURVE",
"519 875 OFFCURVE",
"491 857 CURVE",
"537 857 LINE",
"573 875 OFFCURVE",
"591 912 OFFCURVE",
"591 946 CURVE SMOOTH",
"591 986 OFFCURVE",
"566 1005 OFFCURVE",
"525 1005 CURVE SMOOTH",
"506 1005 OFFCURVE",
"489 1001 OFFCURVE",
"474 993 CURVE",
"474 955 LINE"
);
}
);
width = 742;
}
);
leftKerningGroup = O;
note = Ocircumflexhookabove;
rightKerningGroup = O;
unicode = 1ED4;
},
{
glyphname = Ocircumflextilde;
layers = (
{
anchors = (
{
name = bottom;
position = "{371, 0}";
},
{
name = center;
position = "{371, 350}";
},
{
name = ogonek;
position = "{446, 10}";
},
{
name = top;
position = "{371, 1091}";
},
{
name = topleft;
position = "{20, 700}";
},
{
name = topright;
position = "{597, 510}";
}
);
layerId = "B248ED2E-FA6D-462F-83C4-0CD4D6FD5656";
paths = (
{
closed = 1;
nodes = (
"46 130 OFFCURVE",
"171 -12 OFFCURVE",
"370 -12 CURVE SMOOTH",
"568 -12 OFFCURVE",
"696 128 OFFCURVE",
"696 351 CURVE SMOOTH",
"696 574 OFFCURVE",
"568 714 OFFCURVE",
"370 714 CURVE SMOOTH",
"171 714 OFFCURVE",
"46 572 OFFCURVE",
"46 351 CURVE SMOOTH"
);
},
{
closed = 1;
nodes = (
"138 527 OFFCURVE",
"227 640 OFFCURVE",
"370 640 CURVE SMOOTH",
"512 640 OFFCURVE",
"604 529 OFFCURVE",
"604 351 CURVE SMOOTH",
"604 173 OFFCURVE",
"512 62 OFFCURVE",
"370 62 CURVE SMOOTH",
"227 62 OFFCURVE",
"138 175 OFFCURVE",
"138 351 CURVE SMOOTH"
);
},
{
closed = 1;
nodes = (
"251 752 LINE",
"371 840 LINE",
"491 752 LINE",
"531 752 LINE",
"411 900 LINE",
"331 900 LINE",
"211 752 LINE"
);
},
{
closed = 1;
nodes = (
"276 944 LINE",
"287 972 OFFCURVE",
"300 987 OFFCURVE",
"322 987 CURVE SMOOTH",
"357 987 OFFCURVE",
"377 944 OFFCURVE",
"423 944 CURVE SMOOTH",
"462 944 OFFCURVE",
"500 974 OFFCURVE",
"504 1044 CURVE",
"467 1044 LINE",
"457 1017 OFFCURVE",
"443 1001 OFFCURVE",
"421 1001 CURVE SMOOTH",
"385 1001 OFFCURVE",
"366 1044 OFFCURVE",
"321 1044 CURVE SMOOTH",
"281 1044 OFFCURVE",
"244 1013 OFFCURVE",
"239 944 CURVE"
);
}
);
width = 742;
}
);
leftKerningGroup = O;
note = Ocircumflextilde;
rightKerningGroup = O;
unicode = 1ED6;
},
{
glyphname = Odieresis;
layers = (
{
anchors = (
{
name = bottom;
position = "{371, 0}";
},
{
name = center;
position = "{371, 350}";
},
{
name = ogonek;
position = "{446, 10}";
},
{
name = top;
position = "{371, 858}";
},
{
name = topleft;
position = "{20, 700}";
},
{
name = topright;
position = "{597, 510}";
}
);
layerId = "B248ED2E-FA6D-462F-83C4-0CD4D6FD5656";
paths = (
{
closed = 1;
nodes = (
"46 130 OFFCURVE",
"171 -12 OFFCURVE",
"370 -12 CURVE SMOOTH",
"568 -12 OFFCURVE",
"696 128 OFFCURVE",
"696 351 CURVE SMOOTH",
"696 574 OFFCURVE",
"568 714 OFFCURVE",
"370 714 CURVE SMOOTH",
"171 714 OFFCURVE",
"46 572 OFFCURVE",
"46 351 CURVE SMOOTH"
);
},
{
closed = 1;
nodes = (
"138 527 OFFCURVE",
"227 640 OFFCURVE",
"370 640 CURVE SMOOTH",
"512 640 OFFCURVE",
"604 529 OFFCURVE",
"604 351 CURVE SMOOTH",
"604 173 OFFCURVE",
"512 62 OFFCURVE",
"370 62 CURVE SMOOTH",
"227 62 OFFCURVE",
"138 175 OFFCURVE",
"138 351 CURVE SMOOTH"
);
},
{
closed = 1;
nodes = (
"235 773 OFFCURVE",
"256 752 OFFCURVE",
"289 752 CURVE SMOOTH",
"320 752 OFFCURVE",
"341 773 OFFCURVE",
"341 804 CURVE SMOOTH",
"341 837 OFFCURVE",
"320 858 OFFCURVE",
"289 858 CURVE SMOOTH",
"256 858 OFFCURVE",
"235 837 OFFCURVE",
"235 804 CURVE SMOOTH"
);
},
{
closed = 1;
nodes = (
"401 773 OFFCURVE",
"422 752 OFFCURVE",
"455 752 CURVE SMOOTH",
"486 752 OFFCURVE",
"507 773 OFFCURVE",
"507 804 CURVE SMOOTH",
"507 837 OFFCURVE",
"486 858 OFFCURVE",
"455 858 CURVE SMOOTH",
"422 858 OFFCURVE",
"401 837 OFFCURVE",
"401 804 CURVE SMOOTH"
);
}
);
width = 742;
}
);
leftKerningGroup = O;
note = Odieresis;
rightKerningGroup = O;
unicode = 00D6;
},
{
glyphname = Odotbelow;
layers = (
{
anchors = (
{
name = bottom;
position = "{371, -175}";
},
{
name = center;
position = "{371, 350}";
},
{
name = ogonek;
position = "{446, 10}";
},
{
name = top;
position = "{371, 700}";
},
{
name = topleft;
position = "{20, 700}";
},
{
name = topright;
position = "{597, 510}";
}
);
layerId = "B248ED2E-FA6D-462F-83C4-0CD4D6FD5656";
paths = (
{
closed = 1;
nodes = (
"46 130 OFFCURVE",
"171 -12 OFFCURVE",
"370 -12 CURVE SMOOTH",
"568 -12 OFFCURVE",
"696 128 OFFCURVE",
"696 351 CURVE SMOOTH",
"696 574 OFFCURVE",
"568 714 OFFCURVE",
"370 714 CURVE SMOOTH",
"171 714 OFFCURVE",
"46 572 OFFCURVE",
"46 351 CURVE SMOOTH"
);
},
{
closed = 1;
nodes = (
"138 527 OFFCURVE",
"227 640 OFFCURVE",
"370 640 CURVE SMOOTH",
"512 640 OFFCURVE",
"604 529 OFFCURVE",
"604 351 CURVE SMOOTH",
"604 173 OFFCURVE",
"512 62 OFFCURVE",
"370 62 CURVE SMOOTH",
"227 62 OFFCURVE",
"138 175 OFFCURVE",
"138 351 CURVE SMOOTH"
);
},
{
closed = 1;
nodes = (
"309 -150 OFFCURVE",
"333 -175 OFFCURVE",
"372 -175 CURVE SMOOTH",
"409 -175 OFFCURVE",
"433 -150 OFFCURVE",
"433 -114 CURVE SMOOTH",
"433 -76 OFFCURVE",
"409 -51 OFFCURVE",
"372 -51 CURVE SMOOTH",
"333 -51 OFFCURVE",
"309 -76 OFFCURVE",
"309 -114 CURVE SMOOTH"
);
}
);
width = 742;
}
);
leftKerningGroup = O;
note = Odotbelow;
rightKerningGroup = O;
unicode = 1ECC;
},
{
glyphname = Ograve;
layers = (
{
anchors = (
{
name = bottom;
position = "{371, 0}";
},
{
name = center;
position = "{371, 350}";
},
{
name = ogonek;
position = "{446, 10}";
},
{
name = top;
position = "{341, 910}";
},
{
name = topleft;
position = "{20, 700}";
},
{
name = topright;
position = "{597, 510}";
}
);
layerId = "B248ED2E-FA6D-462F-83C4-0CD4D6FD5656";
paths = (
{
closed = 1;
nodes = (
"46 130 OFFCURVE",
"171 -12 OFFCURVE",
"370 -12 CURVE SMOOTH",
"568 -12 OFFCURVE",
"696 128 OFFCURVE",
"696 351 CURVE SMOOTH",
"696 574 OFFCURVE",
"568 714 OFFCURVE",
"370 714 CURVE SMOOTH",
"171 714 OFFCURVE",
"46 572 OFFCURVE",
"46 351 CURVE SMOOTH"
);
},
{
closed = 1;
nodes = (
"138 527 OFFCURVE",
"227 640 OFFCURVE",
"370 640 CURVE SMOOTH",
"512 640 OFFCURVE",
"604 529 OFFCURVE",
"604 351 CURVE SMOOTH",
"604 173 OFFCURVE",
"512 62 OFFCURVE",
"370 62 CURVE SMOOTH",
"227 62 OFFCURVE",
"138 175 OFFCURVE",
"138 351 CURVE SMOOTH"
);
},
{
closed = 1;
nodes = (
"390 752 LINE",
"430 752 LINE",
"379 910 LINE",
"283 910 LINE"
);
}
);
width = 742;
}
);
leftKerningGroup = O;
note = Ograve;
rightKerningGroup = O;
unicode = 00D2;
},
{
glyphname = Ohookabove;
layers = (
{
anchors = (
{
name = bottom;
position = "{371, 0}";
},
{
name = center;
position = "{371, 350}";
},
{
name = ogonek;
position = "{446, 10}";
},
{
name = top;
position = "{375, 937}";
},
{
name = topleft;
position = "{20, 700}";
},
{
name = topright;
position = "{597, 510}";
}
);
layerId = "B248ED2E-FA6D-462F-83C4-0CD4D6FD5656";
paths = (
{
closed = 1;
nodes = (
"46 130 OFFCURVE",
"171 -12 OFFCURVE",
"370 -12 CURVE SMOOTH",
"568 -12 OFFCURVE",
"696 128 OFFCURVE",
"696 351 CURVE SMOOTH",
"696 574 OFFCURVE",
"568 714 OFFCURVE",
"370 714 CURVE SMOOTH",
"171 714 OFFCURVE",
"46 572 OFFCURVE",
"46 351 CURVE SMOOTH"
);
},
{
closed = 1;
nodes = (
"138 527 OFFCURVE",
"227 640 OFFCURVE",
"370 640 CURVE SMOOTH",
"512 640 OFFCURVE",
"604 529 OFFCURVE",
"604 351 CURVE SMOOTH",
"604 173 OFFCURVE",
"512 62 OFFCURVE",
"370 62 CURVE SMOOTH",
"227 62 OFFCURVE",
"138 175 OFFCURVE",
"138 351 CURVE SMOOTH"
);
},
{
closed = 1;
nodes = (
"314 879 OFFCURVE",
"326 881 OFFCURVE",
"338 881 CURVE SMOOTH",
"366 881 OFFCURVE",
"378 868 OFFCURVE",
"378 843 CURVE SMOOTH",
"378 812 OFFCURVE",
"360 775 OFFCURVE",
"325 752 CURVE",
"383 752 LINE",
"427 775 OFFCURVE",
"450 821 OFFCURVE",
"450 864 CURVE SMOOTH",
"450 914 OFFCURVE",
"419 937 OFFCURVE",
"368 937 CURVE SMOOTH",
"344 937 OFFCURVE",
"322 932 OFFCURVE",
"304 922 CURVE",
"304 875 LINE"
);
}
);
width = 742;
}
);
leftKerningGroup = O;
note = Ohookabove;
rightKerningGroup = O;
unicode = 1ECE;
},
{
glyphname = Ohorn;
lastChange = "2018-03-13 07:04:02 +0000";
layers = (
{
anchors = (
{
name = bottom;
position = "{371, 0}";
},
{
name = center;
position = "{371, 350}";
},
{
name = ogonek;
position = "{446, 10}";
},
{
name = top;
position = "{371, 700}";
},
{
name = topleft;
position = "{20, 700}";
},
{
name = topright;
position = "{597, 510}";
}
);
layerId = "B248ED2E-FA6D-462F-83C4-0CD4D6FD5656";
paths = (
{
closed = 1;
nodes = (
"46 130 OFFCURVE",
"171 -12 OFFCURVE",
"370 -12 CURVE SMOOTH",
"568 -12 OFFCURVE",
"696 128 OFFCURVE",
"696 351 CURVE SMOOTH",
"696 411 OFFCURVE",
"687 465 OFFCURVE",
"669 512 CURVE",
"745 549 OFFCURVE",
"779 612 OFFCURVE",
"779 666 CURVE SMOOTH",
"779 721 OFFCURVE",
"750 740 OFFCURVE",
"717 740 CURVE SMOOTH",
"684 740 OFFCURVE",
"659 715 OFFCURVE",
"659 683 CURVE SMOOTH",
"659 651 OFFCURVE",
"684 626 OFFCURVE",
"717 626 CURVE",
"717 602 OFFCURVE",
"692 570 OFFCURVE",
"653 549 CURVE",
"600 653 OFFCURVE",
"500 714 OFFCURVE",
"370 714 CURVE SMOOTH",
"171 714 OFFCURVE",
"46 572 OFFCURVE",
"46 351 CURVE SMOOTH"
);
},
{
closed = 1;
nodes = (
"138 527 OFFCURVE",
"227 640 OFFCURVE",
"370 640 CURVE SMOOTH",
"512 640 OFFCURVE",
"604 529 OFFCURVE",
"604 351 CURVE SMOOTH",
"604 173 OFFCURVE",
"512 62 OFFCURVE",
"370 62 CURVE SMOOTH",
"227 62 OFFCURVE",
"138 175 OFFCURVE",
"138 351 CURVE SMOOTH"
);
}
);
width = 789;
}
);
note = Ohorn;
unicode = 01A0;
},
{
glyphname = Ohornacute;
lastChange = "2018-03-13 07:04:02 +0000";
layers = (
{
anchors = (
{
name = bottom;
position = "{371, 0}";
},
{
name = center;
position = "{371, 350}";
},
{
name = ogonek;
position = "{446, 10}";
},
{
name = top;
position = "{415, 910}";
},
{
name = topleft;
position = "{20, 700}";
},
{
name = topright;
position = "{597, 510}";
}
);
layerId = "B248ED2E-FA6D-462F-83C4-0CD4D6FD5656";
paths = (
{
closed = 1;
nodes = (
"46 130 OFFCURVE",
"171 -12 OFFCURVE",
"370 -12 CURVE SMOOTH",
"568 -12 OFFCURVE",
"696 128 OFFCURVE",
"696 351 CURVE SMOOTH",
"696 411 OFFCURVE",
"687 465 OFFCURVE",
"669 512 CURVE",
"745 549 OFFCURVE",
"779 612 OFFCURVE",
"779 666 CURVE SMOOTH",
"779 721 OFFCURVE",
"750 740 OFFCURVE",
"717 740 CURVE SMOOTH",
"684 740 OFFCURVE",
"659 715 OFFCURVE",
"659 683 CURVE SMOOTH",
"659 651 OFFCURVE",
"684 626 OFFCURVE",
"717 626 CURVE",
"717 602 OFFCURVE",
"692 570 OFFCURVE",
"653 549 CURVE",
"600 653 OFFCURVE",
"500 714 OFFCURVE",
"370 714 CURVE SMOOTH",
"171 714 OFFCURVE",
"46 572 OFFCURVE",
"46 351 CURVE SMOOTH"
);
},
{
closed = 1;
nodes = (
"138 527 OFFCURVE",
"227 640 OFFCURVE",
"370 640 CURVE SMOOTH",
"512 640 OFFCURVE",
"604 529 OFFCURVE",
"604 351 CURVE SMOOTH",
"604 173 OFFCURVE",
"512 62 OFFCURVE",
"370 62 CURVE SMOOTH",
"227 62 OFFCURVE",
"138 175 OFFCURVE",
"138 351 CURVE SMOOTH"
);
},
{
closed = 1;
nodes = (
"358 752 LINE",
"465 910 LINE",
"369 910 LINE",
"318 752 LINE"
);
}
);
width = 789;
}
);
leftKerningGroup = O;
note = Ohornacute;
rightKerningGroup = O;
unicode = 1EDA;
},
{
glyphname = Ohorndotbelow;
lastChange = "2018-03-13 07:04:02 +0000";
layers = (
{
anchors = (
{
name = bottom;
position = "{371, -175}";
},
{
name = center;
position = "{371, 350}";
},
{
name = ogonek;
position = "{446, 10}";
},
{
name = top;
position = "{371, 700}";
},
{
name = topleft;
position = "{20, 700}";
},
{
name = topright;
position = "{597, 510}";
}
);
layerId = "B248ED2E-FA6D-462F-83C4-0CD4D6FD5656";
paths = (
{
closed = 1;
nodes = (
"46 130 OFFCURVE",
"171 -12 OFFCURVE",
"370 -12 CURVE SMOOTH",
"568 -12 OFFCURVE",
"696 128 OFFCURVE",
"696 351 CURVE SMOOTH",
"696 411 OFFCURVE",
"687 465 OFFCURVE",
"669 512 CURVE",
"745 549 OFFCURVE",
"779 612 OFFCURVE",
"779 666 CURVE SMOOTH",
"779 721 OFFCURVE",
"750 740 OFFCURVE",
"717 740 CURVE SMOOTH",
"684 740 OFFCURVE",
"659 715 OFFCURVE",
"659 683 CURVE SMOOTH",
"659 651 OFFCURVE",
"684 626 OFFCURVE",
"717 626 CURVE",
"717 602 OFFCURVE",
"692 570 OFFCURVE",
"653 549 CURVE",
"600 653 OFFCURVE",
"500 714 OFFCURVE",
"370 714 CURVE SMOOTH",
"171 714 OFFCURVE",
"46 572 OFFCURVE",
"46 351 CURVE SMOOTH"
);
},
{
closed = 1;
nodes = (
"138 527 OFFCURVE",
"227 640 OFFCURVE",
"370 640 CURVE SMOOTH",
"512 640 OFFCURVE",
"604 529 OFFCURVE",
"604 351 CURVE SMOOTH",
"604 173 OFFCURVE",
"512 62 OFFCURVE",
"370 62 CURVE SMOOTH",
"227 62 OFFCURVE",
"138 175 OFFCURVE",
"138 351 CURVE SMOOTH"
);
},
{
closed = 1;
nodes = (
"309 -150 OFFCURVE",
"333 -175 OFFCURVE",
"372 -175 CURVE SMOOTH",
"409 -175 OFFCURVE",
"433 -150 OFFCURVE",
"433 -114 CURVE SMOOTH",
"433 -76 OFFCURVE",
"409 -51 OFFCURVE",
"372 -51 CURVE SMOOTH",
"333 -51 OFFCURVE",
"309 -76 OFFCURVE",
"309 -114 CURVE SMOOTH"
);
}
);
width = 789;
}
);
leftKerningGroup = O;
note = Ohorndotbelow;
rightKerningGroup = O;
unicode = 1EE2;
},
{
glyphname = Ohorngrave;
lastChange = "2018-03-13 07:04:02 +0000";
layers = (
{
anchors = (
{
name = bottom;
position = "{371, 0}";
},
{
name = center;
position = "{371, 350}";
},
{
name = ogonek;
position = "{446, 10}";
},
{
name = top;
position = "{341, 910}";
},
{
name = topleft;
position = "{20, 700}";
},
{
name = topright;
position = "{597, 510}";
}
);
layerId = "B248ED2E-FA6D-462F-83C4-0CD4D6FD5656";
paths = (
{
closed = 1;
nodes = (
"46 130 OFFCURVE",
"171 -12 OFFCURVE",
"370 -12 CURVE SMOOTH",
"568 -12 OFFCURVE",
"696 128 OFFCURVE",
"696 351 CURVE SMOOTH",
"696 411 OFFCURVE",
"687 465 OFFCURVE",
"669 512 CURVE",
"745 549 OFFCURVE",
"779 612 OFFCURVE",
"779 666 CURVE SMOOTH",
"779 721 OFFCURVE",
"750 740 OFFCURVE",
"717 740 CURVE SMOOTH",
"684 740 OFFCURVE",
"659 715 OFFCURVE",
"659 683 CURVE SMOOTH",
"659 651 OFFCURVE",
"684 626 OFFCURVE",
"717 626 CURVE",
"717 602 OFFCURVE",
"692 570 OFFCURVE",
"653 549 CURVE",
"600 653 OFFCURVE",
"500 714 OFFCURVE",
"370 714 CURVE SMOOTH",
"171 714 OFFCURVE",
"46 572 OFFCURVE",
"46 351 CURVE SMOOTH"
);
},
{
closed = 1;
nodes = (
"138 527 OFFCURVE",
"227 640 OFFCURVE",
"370 640 CURVE SMOOTH",
"512 640 OFFCURVE",
"604 529 OFFCURVE",
"604 351 CURVE SMOOTH",
"604 173 OFFCURVE",
"512 62 OFFCURVE",
"370 62 CURVE SMOOTH",
"227 62 OFFCURVE",
"138 175 OFFCURVE",
"138 351 CURVE SMOOTH"
);
},
{
closed = 1;
nodes = (
"390 752 LINE",
"430 752 LINE",
"379 910 LINE",
"283 910 LINE"
);
}
);
width = 789;
}
);
leftKerningGroup = O;
note = Ohorngrave;
rightKerningGroup = O;
unicode = 1EDC;
},
{
glyphname = Ohornhookabove;
lastChange = "2018-03-13 07:04:02 +0000";
layers = (
{
anchors = (
{
name = bottom;
position = "{371, 0}";
},
{
name = center;
position = "{371, 350}";
},
{
name = ogonek;
position = "{446, 10}";
},
{
name = top;
position = "{375, 937}";
},
{
name = topleft;
position = "{20, 700}";
},
{
name = topright;
position = "{597, 510}";
}
);
layerId = "B248ED2E-FA6D-462F-83C4-0CD4D6FD5656";
paths = (
{
closed = 1;
nodes = (
"46 130 OFFCURVE",
"171 -12 OFFCURVE",
"370 -12 CURVE SMOOTH",
"568 -12 OFFCURVE",
"696 128 OFFCURVE",
"696 351 CURVE SMOOTH",
"696 411 OFFCURVE",
"687 465 OFFCURVE",
"669 512 CURVE",
"745 549 OFFCURVE",
"779 612 OFFCURVE",
"779 666 CURVE SMOOTH",
"779 721 OFFCURVE",
"750 740 OFFCURVE",
"717 740 CURVE SMOOTH",
"684 740 OFFCURVE",
"659 715 OFFCURVE",
"659 683 CURVE SMOOTH",
"659 651 OFFCURVE",
"684 626 OFFCURVE",
"717 626 CURVE",
"717 602 OFFCURVE",
"692 570 OFFCURVE",
"653 549 CURVE",
"600 653 OFFCURVE",
"500 714 OFFCURVE",
"370 714 CURVE SMOOTH",
"171 714 OFFCURVE",
"46 572 OFFCURVE",
"46 351 CURVE SMOOTH"
);
},
{
closed = 1;
nodes = (
"138 527 OFFCURVE",
"227 640 OFFCURVE",
"370 640 CURVE SMOOTH",
"512 640 OFFCURVE",
"604 529 OFFCURVE",
"604 351 CURVE SMOOTH",
"604 173 OFFCURVE",
"512 62 OFFCURVE",
"370 62 CURVE SMOOTH",
"227 62 OFFCURVE",
"138 175 OFFCURVE",
"138 351 CURVE SMOOTH"
);
},
{
closed = 1;
nodes = (
"314 879 OFFCURVE",
"326 881 OFFCURVE",
"338 881 CURVE SMOOTH",
"366 881 OFFCURVE",
"378 868 OFFCURVE",
"378 843 CURVE SMOOTH",
"378 812 OFFCURVE",
"360 775 OFFCURVE",
"325 752 CURVE",
"383 752 LINE",
"427 775 OFFCURVE",
"450 821 OFFCURVE",
"450 864 CURVE SMOOTH",
"450 914 OFFCURVE",
"419 937 OFFCURVE",
"368 937 CURVE SMOOTH",
"344 937 OFFCURVE",
"322 932 OFFCURVE",
"304 922 CURVE",
"304 875 LINE"
);
}
);
width = 789;
}
);
leftKerningGroup = O;
note = Ohornhookabove;
rightKerningGroup = O;
unicode = 1EDE;
},
{
glyphname = Ohorntilde;
lastChange = "2018-03-13 07:04:02 +0000";
layers = (
{
anchors = (
{
name = bottom;
position = "{371, 0}";
},
{
name = center;
position = "{371, 350}";
},
{
name = ogonek;
position = "{446, 10}";
},
{
name = top;
position = "{371, 878}";
},
{
name = topleft;
position = "{20, 700}";
},
{
name = topright;
position = "{597, 510}";
}
);
layerId = "B248ED2E-FA6D-462F-83C4-0CD4D6FD5656";
paths = (
{
closed = 1;
nodes = (
"46 130 OFFCURVE",
"171 -12 OFFCURVE",
"370 -12 CURVE SMOOTH",
"568 -12 OFFCURVE",
"696 128 OFFCURVE",
"696 351 CURVE SMOOTH",
"696 411 OFFCURVE",
"687 465 OFFCURVE",
"669 512 CURVE",
"745 549 OFFCURVE",
"779 612 OFFCURVE",
"779 666 CURVE SMOOTH",
"779 721 OFFCURVE",
"750 740 OFFCURVE",
"717 740 CURVE SMOOTH",
"684 740 OFFCURVE",
"659 715 OFFCURVE",
"659 683 CURVE SMOOTH",
"659 651 OFFCURVE",
"684 626 OFFCURVE",
"717 626 CURVE",
"717 602 OFFCURVE",
"692 570 OFFCURVE",
"653 549 CURVE",
"600 653 OFFCURVE",
"500 714 OFFCURVE",
"370 714 CURVE SMOOTH",
"171 714 OFFCURVE",
"46 572 OFFCURVE",
"46 351 CURVE SMOOTH"
);
},
{
closed = 1;
nodes = (
"138 527 OFFCURVE",
"227 640 OFFCURVE",
"370 640 CURVE SMOOTH",
"512 640 OFFCURVE",
"604 529 OFFCURVE",
"604 351 CURVE SMOOTH",
"604 173 OFFCURVE",
"512 62 OFFCURVE",
"370 62 CURVE SMOOTH",
"227 62 OFFCURVE",
"138 175 OFFCURVE",
"138 351 CURVE SMOOTH"
);
},
{
closed = 1;
nodes = (
"260 752 LINE",
"273 784 OFFCURVE",
"288 802 OFFCURVE",
"313 802 CURVE SMOOTH",
"354 802 OFFCURVE",
"377 752 OFFCURVE",
"431 752 CURVE SMOOTH",
"476 752 OFFCURVE",
"520 786 OFFCURVE",
"525 868 CURVE",
"482 868 LINE",
"470 836 OFFCURVE",
"454 818 OFFCURVE",
"429 818 CURVE SMOOTH",
"387 818 OFFCURVE",
"365 868 OFFCURVE",
"312 868 CURVE SMOOTH",
"266 868 OFFCURVE",
"223 832 OFFCURVE",
"217 752 CURVE"
);
}
);
width = 789;
}
);
leftKerningGroup = O;
note = Ohorntilde;
rightKerningGroup = O;
unicode = 1EE0;
},
{
glyphname = Ohungarumlaut;
layers = (
{
anchors = (
{
name = bottom;
position = "{371, 0}";
},
{
name = center;
position = "{371, 350}";
},
{
name = ogonek;
position = "{446, 10}";
},
{
name = top;
position = "{420, 910}";
},
{
name = topleft;
position = "{20, 700}";
},
{
name = topright;
position = "{597, 510}";
}
);
layerId = "B248ED2E-FA6D-462F-83C4-0CD4D6FD5656";
paths = (
{
closed = 1;
nodes = (
"46 130 OFFCURVE",
"171 -12 OFFCURVE",
"370 -12 CURVE SMOOTH",
"568 -12 OFFCURVE",
"696 128 OFFCURVE",
"696 351 CURVE SMOOTH",
"696 574 OFFCURVE",
"568 714 OFFCURVE",
"370 714 CURVE SMOOTH",
"171 714 OFFCURVE",
"46 572 OFFCURVE",
"46 351 CURVE SMOOTH"
);
},
{
closed = 1;
nodes = (
"138 527 OFFCURVE",
"227 640 OFFCURVE",
"370 640 CURVE SMOOTH",
"512 640 OFFCURVE",
"604 529 OFFCURVE",
"604 351 CURVE SMOOTH",
"604 173 OFFCURVE",
"512 62 OFFCURVE",
"370 62 CURVE SMOOTH",
"227 62 OFFCURVE",
"138 175 OFFCURVE",
"138 351 CURVE SMOOTH"
);
},
{
closed = 1;
nodes = (
"313 752 LINE",
"400 910 LINE",
"304 910 LINE",
"273 752 LINE"
);
},
{
closed = 1;
nodes = (
"460 752 LINE",
"547 910 LINE",
"451 910 LINE",
"420 752 LINE"
);
}
);
width = 742;
}
);
leftKerningGroup = O;
note = Ohungarumlaut;
rightKerningGroup = O;
unicode = 0150;
},
{
glyphname = Omacron;
layers = (
{
anchors = (
{
name = bottom;
position = "{371, 0}";
},
{
name = center;
position = "{371, 350}";
},
{
name = ogonek;
position = "{446, 10}";
},
{
name = top;
position = "{371, 823}";
},
{
name = topleft;
position = "{20, 700}";
},
{
name = topright;
position = "{597, 510}";
}
);
layerId = "B248ED2E-FA6D-462F-83C4-0CD4D6FD5656";
paths = (
{
closed = 1;
nodes = (
"46 130 OFFCURVE",
"171 -12 OFFCURVE",
"370 -12 CURVE SMOOTH",
"568 -12 OFFCURVE",
"696 128 OFFCURVE",
"696 351 CURVE SMOOTH",
"696 574 OFFCURVE",
"568 714 OFFCURVE",
"370 714 CURVE SMOOTH",
"171 714 OFFCURVE",
"46 572 OFFCURVE",
"46 351 CURVE SMOOTH"
);
},
{
closed = 1;
nodes = (
"138 527 OFFCURVE",
"227 640 OFFCURVE",
"370 640 CURVE SMOOTH",
"512 640 OFFCURVE",
"604 529 OFFCURVE",
"604 351 CURVE SMOOTH",
"604 173 OFFCURVE",
"512 62 OFFCURVE",
"370 62 CURVE SMOOTH",
"227 62 OFFCURVE",
"138 175 OFFCURVE",
"138 351 CURVE SMOOTH"
);
},
{
closed = 1;
nodes = (
"523 772 LINE",
"523 822 LINE",
"219 822 LINE",
"219 772 LINE"
);
}
);
width = 742;
}
);
leftKerningGroup = O;
note = Omacron;
rightKerningGroup = O;
unicode = 014C;
},
{
glyphname = Oslash;
lastChange = "2018-03-13 07:04:02 +0000";
layers = (
{
anchors = (
{
name = bottom;
position = "{371, 0}";
},
{
name = center;
position = "{371, 350}";
},
{
name = ogonek;
position = "{446, 10}";
},
{
name = top;
position = "{371, 700}";
},
{
name = topleft;
position = "{20, 700}";
},
{
name = topright;
position = "{597, 510}";
}
);
layerId = "B248ED2E-FA6D-462F-83C4-0CD4D6FD5656";
paths = (
{
closed = 1;
nodes = (
"46 206 OFFCURVE",
"100 95 OFFCURVE",
"193 36 CURVE",
"145 -60 LINE",
"205 -60 LINE",
"241 11 LINE",
"279 -4 OFFCURVE",
"323 -12 OFFCURVE",
"370 -12 CURVE SMOOTH",
"568 -12 OFFCURVE",
"696 128 OFFCURVE",
"696 351 CURVE SMOOTH",
"696 487 OFFCURVE",
"649 592 OFFCURVE",
"567 653 CURVE",
"621 760 LINE",
"561 760 LINE",
"521 681 LINE",
"477 703 OFFCURVE",
"426 714 OFFCURVE",
"370 714 CURVE SMOOTH",
"171 714 OFFCURVE",
"46 572 OFFCURVE",
"46 351 CURVE SMOOTH"
);
},
{
closed = 1;
nodes = (
"138 527 OFFCURVE",
"227 640 OFFCURVE",
"370 640 CURVE SMOOTH",
"413 640 OFFCURVE",
"452 630 OFFCURVE",
"485 610 CURVE",
"231 109 LINE",
"172 158 OFFCURVE",
"138 243 OFFCURVE",
"138 351 CURVE SMOOTH"
);
},
{
closed = 1;
nodes = (
"528 576 LINE",
"576 526 OFFCURVE",
"604 449 OFFCURVE",
"604 351 CURVE SMOOTH",
"604 173 OFFCURVE",
"512 62 OFFCURVE",
"370 62 CURVE SMOOTH",
"336 62 OFFCURVE",
"304 69 OFFCURVE",
"277 81 CURVE"
);
}
);
width = 742;
}
);
leftMetricsKey = O;
note = Oslash;
rightMetricsKey = O;
unicode = 00D8;
},
{
glyphname = Oslashacute;
lastChange = "2018-03-13 07:04:02 +0000";
layers = (
{
anchors = (
{
name = bottom;
position = "{371, 0}";
},
{
name = center;
position = "{371, 350}";
},
{
name = ogonek;
position = "{446, 10}";
},
{
name = top;
position = "{415, 910}";
},
{
name = topleft;
position = "{20, 700}";
},
{
name = topright;
position = "{597, 510}";
}
);
layerId = "B248ED2E-FA6D-462F-83C4-0CD4D6FD5656";
paths = (
{
closed = 1;
nodes = (
"46 206 OFFCURVE",
"100 95 OFFCURVE",
"193 36 CURVE",
"145 -60 LINE",
"205 -60 LINE",
"241 11 LINE",
"279 -4 OFFCURVE",
"323 -12 OFFCURVE",
"370 -12 CURVE SMOOTH",
"568 -12 OFFCURVE",
"696 128 OFFCURVE",
"696 351 CURVE SMOOTH",
"696 487 OFFCURVE",
"649 592 OFFCURVE",
"567 653 CURVE",
"621 760 LINE",
"561 760 LINE",
"521 681 LINE",
"477 703 OFFCURVE",
"426 714 OFFCURVE",
"370 714 CURVE SMOOTH",
"171 714 OFFCURVE",
"46 572 OFFCURVE",
"46 351 CURVE SMOOTH"
);
},
{
closed = 1;
nodes = (
"138 527 OFFCURVE",
"227 640 OFFCURVE",
"370 640 CURVE SMOOTH",
"413 640 OFFCURVE",
"452 630 OFFCURVE",
"485 610 CURVE",
"231 109 LINE",
"172 158 OFFCURVE",
"138 243 OFFCURVE",
"138 351 CURVE SMOOTH"
);
},
{
closed = 1;
nodes = (
"528 576 LINE",
"576 526 OFFCURVE",
"604 449 OFFCURVE",
"604 351 CURVE SMOOTH",
"604 173 OFFCURVE",
"512 62 OFFCURVE",
"370 62 CURVE SMOOTH",
"336 62 OFFCURVE",
"304 69 OFFCURVE",
"277 81 CURVE"
);
},
{
closed = 1;
nodes = (
"358 752 LINE",
"465 910 LINE",
"369 910 LINE",
"318 752 LINE"
);
}
);
width = 742;
}
);
leftKerningGroup = O;
note = Oslashacute;
rightKerningGroup = O;
unicode = 01FE;
},
{
glyphname = Otilde;
layers = (
{
anchors = (
{
name = bottom;
position = "{371, 0}";
},
{
name = center;
position = "{371, 350}";
},
{
name = ogonek;
position = "{446, 10}";
},
{
name = top;
position = "{371, 878}";
},
{
name = topleft;
position = "{20, 700}";
},
{
name = topright;
position = "{597, 510}";
}
);
layerId = "B248ED2E-FA6D-462F-83C4-0CD4D6FD5656";
paths = (
{
closed = 1;
nodes = (
"46 130 OFFCURVE",
"171 -12 OFFCURVE",
"370 -12 CURVE SMOOTH",
"568 -12 OFFCURVE",
"696 128 OFFCURVE",
"696 351 CURVE SMOOTH",
"696 574 OFFCURVE",
"568 714 OFFCURVE",
"370 714 CURVE SMOOTH",
"171 714 OFFCURVE",
"46 572 OFFCURVE",
"46 351 CURVE SMOOTH"
);
},
{
closed = 1;
nodes = (
"138 527 OFFCURVE",
"227 640 OFFCURVE",
"370 640 CURVE SMOOTH",
"512 640 OFFCURVE",
"604 529 OFFCURVE",
"604 351 CURVE SMOOTH",
"604 173 OFFCURVE",
"512 62 OFFCURVE",
"370 62 CURVE SMOOTH",
"227 62 OFFCURVE",
"138 175 OFFCURVE",
"138 351 CURVE SMOOTH"
);
},
{
closed = 1;
nodes = (
"260 752 LINE",
"273 784 OFFCURVE",
"288 802 OFFCURVE",
"313 802 CURVE SMOOTH",
"354 802 OFFCURVE",
"377 752 OFFCURVE",
"431 752 CURVE SMOOTH",
"476 752 OFFCURVE",
"520 786 OFFCURVE",
"525 868 CURVE",
"482 868 LINE",
"470 836 OFFCURVE",
"454 818 OFFCURVE",
"429 818 CURVE SMOOTH",
"387 818 OFFCURVE",
"365 868 OFFCURVE",
"312 868 CURVE SMOOTH",
"266 868 OFFCURVE",
"223 832 OFFCURVE",
"217 752 CURVE"
);
}
);
width = 742;
}
);
leftKerningGroup = O;
note = Otilde;
rightKerningGroup = O;
unicode = 00D5;
},
{
glyphname = OE;
layers = (
{
anchors = (
{
name = bottom;
position = "{524, 0}";
},
{
name = top;
position = "{524, 700}";
}
);
layerId = "B248ED2E-FA6D-462F-83C4-0CD4D6FD5656";
paths = (
{
closed = 1;
nodes = (
"46 130 OFFCURVE",
"171 -12 OFFCURVE",
"370 -12 CURVE SMOOTH",
"476 -12 OFFCURVE",
"556 28 OFFCURVE",
"608 100 CURVE",
"602 68 OFFCURVE",
"591 46 OFFCURVE",
"571 21 CURVE",
"579 0 LINE",
"960 0 LINE SMOOTH",
"993 0 OFFCURVE",
"1017 17 OFFCURVE",
"1017 50 CURVE SMOOTH",
"1017 57 OFFCURVE",
"1016 67 OFFCURVE",
"1013 76 CURVE",
"686 76 LINE",
"700 108 OFFCURVE",
"701 143 OFFCURVE",
"701 177 CURVE SMOOTH",
"701 320 LINE",
"912 320 LINE SMOOTH",
"945 320 OFFCURVE",
"969 337 OFFCURVE",
"969 370 CURVE SMOOTH",
"969 377 OFFCURVE",
"968 387 OFFCURVE",
"965 396 CURVE",
"701 396 LINE",
"701 523 LINE SMOOTH",
"701 557 OFFCURVE",
"700 592 OFFCURVE",
"686 624 CURVE",
"944 624 LINE SMOOTH",
"977 624 OFFCURVE",
"1001 641 OFFCURVE",
"1001 674 CURVE SMOOTH",
"1001 681 OFFCURVE",
"1000 691 OFFCURVE",
"997 700 CURVE",
"579 700 LINE",
"571 679 LINE",
"591 655 OFFCURVE",
"602 633 OFFCURVE",
"608 603 CURVE",
"556 674 OFFCURVE",
"476 714 OFFCURVE",
"370 714 CURVE SMOOTH",
"171 714 OFFCURVE",
"46 572 OFFCURVE",
"46 351 CURVE SMOOTH"
);
},
{
closed = 1;
nodes = (
"138 527 OFFCURVE",
"227 640 OFFCURVE",
"370 640 CURVE SMOOTH",
"512 640 OFFCURVE",
"604 529 OFFCURVE",
"604 351 CURVE SMOOTH",
"604 173 OFFCURVE",
"512 62 OFFCURVE",
"370 62 CURVE SMOOTH",
"227 62 OFFCURVE",
"138 175 OFFCURVE",
"138 351 CURVE SMOOTH"
);
}
);
width = 1047;
}
);
leftMetricsKey = O;
note = OE;
rightMetricsKey = E;
unicode = 0152;
},
{
glyphname = P;
lastChange = "2018-03-13 07:04:02 +0000";
layers = (
{
anchors = (
{
name = bottom;
position = "{127, 0}";
},
{
name = top;
position = "{270, 700}";
}
);
layerId = "B248ED2E-FA6D-462F-83C4-0CD4D6FD5656";
paths = (
{
closed = 1;
nodes = (
"76 642 OFFCURVE",
"84 602 OFFCURVE",
"84 514 CURVE SMOOTH",
"84 -2 LINE",
"95 -5 OFFCURVE",
"105 -6 OFFCURVE",
"113 -6 CURVE SMOOTH",
"151 -6 OFFCURVE",
"172 20 OFFCURVE",
"172 59 CURVE SMOOTH",
"172 284 LINE",
"260 284 LINE SMOOTH",
"414 284 OFFCURVE",
"512 367 OFFCURVE",
"512 498 CURVE SMOOTH",
"512 630 OFFCURVE",
"411 714 OFFCURVE",
"244 714 CURVE SMOOTH",
"186 714 OFFCURVE",
"120 704 OFFCURVE",
"50 704 CURVE",
"42 683 LINE"
);
},
{
closed = 1;
nodes = (
"191 636 OFFCURVE",
"222 640 OFFCURVE",
"255 640 CURVE SMOOTH",
"369 640 OFFCURVE",
"422 589 OFFCURVE",
"422 498 CURVE SMOOTH",
"422 403 OFFCURVE",
"363 356 OFFCURVE",
"258 356 CURVE SMOOTH",
"172 356 LINE",
"172 514 LINE SMOOTH",
"172 555 OFFCURVE",
"171 597 OFFCURVE",
"157 633 CURVE"
);
}
);
width = 540;
}
);
leftKerningGroup = F;
leftMetricsKey = F;
note = P;
rightKerningGroup = P;
unicode = 0050;
},
{
glyphname = Thorn;
layers = (
{
layerId = "B248ED2E-FA6D-462F-83C4-0CD4D6FD5656";
paths = (
{
closed = 1;
nodes = (
"91 -5 OFFCURVE",
"101 -6 OFFCURVE",
"109 -6 CURVE SMOOTH",
"147 -6 OFFCURVE",
"168 20 OFFCURVE",
"168 59 CURVE SMOOTH",
"168 160 LINE",
"289 160 LINE SMOOTH",
"425 160 OFFCURVE",
"512 238 OFFCURVE",
"512 360 CURVE SMOOTH",
"512 482 OFFCURVE",
"425 560 OFFCURVE",
"289 560 CURVE SMOOTH",
"168 560 LINE",
"168 716 LINE",
"157 719 OFFCURVE",
"146 720 OFFCURVE",
"138 720 CURVE SMOOTH",
"100 720 OFFCURVE",
"80 693 OFFCURVE",
"80 655 CURVE SMOOTH",
"80 -2 LINE"
);
},
{
closed = 1;
nodes = (
"168 486 LINE",
"286 486 LINE SMOOTH",
"373 486 OFFCURVE",
"422 441 OFFCURVE",
"422 360 CURVE SMOOTH",
"422 279 OFFCURVE",
"373 234 OFFCURVE",
"286 234 CURVE SMOOTH",
"168 234 LINE"
);
}
);
width = 540;
}
);
leftMetricsKey = H;
note = Thorn;
rightMetricsKey = P;
unicode = 00DE;
},
{
glyphname = Q;
lastChange = "2018-03-13 07:04:02 +0000";
layers = (
{
anchors = (
{
name = bottom;
position = "{371, -161}";
},
{
name = top;
position = "{371, 700}";
}
);
layerId = "B248ED2E-FA6D-462F-83C4-0CD4D6FD5656";
paths = (
{
closed = 1;
nodes = (
"46 221 OFFCURVE",
"89 118 OFFCURVE",
"165 56 CURVE SMOOTH",
"341 -94 OFFCURVE",
"486 -168 OFFCURVE",
"572 -168 CURVE SMOOTH",
"613 -168 OFFCURVE",
"632 -151 OFFCURVE",
"632 -114 CURVE",
"566 -105 OFFCURVE",
"480 -79 OFFCURVE",
"368 -12 CURVE",
"370 -12 LINE SMOOTH",
"568 -12 OFFCURVE",
"696 128 OFFCURVE",
"696 351 CURVE SMOOTH",
"696 574 OFFCURVE",
"568 714 OFFCURVE",
"370 714 CURVE SMOOTH",
"171 714 OFFCURVE",
"46 572 OFFCURVE",
"46 351 CURVE SMOOTH"
);
},
{
closed = 1;
nodes = (
"138 527 OFFCURVE",
"227 640 OFFCURVE",
"370 640 CURVE SMOOTH",
"512 640 OFFCURVE",
"604 529 OFFCURVE",
"604 351 CURVE SMOOTH",
"604 173 OFFCURVE",
"512 62 OFFCURVE",
"370 62 CURVE SMOOTH",
"227 62 OFFCURVE",
"138 175 OFFCURVE",
"138 351 CURVE SMOOTH"
);
}
);
width = 742;
}
);
leftKerningGroup = O;
leftMetricsKey = O;
note = Q;
rightKerningGroup = O;
rightMetricsKey = O;
unicode = 0051;
},
{
glyphname = R;
lastChange = "2018-03-13 07:04:02 +0000";
layers = (
{
anchors = (
{
name = bottom;
position = "{288, 0}";
},
{
name = top;
position = "{258, 700}";
}
);
layerId = "B248ED2E-FA6D-462F-83C4-0CD4D6FD5656";
paths = (
{
closed = 1;
nodes = (
"76 642 OFFCURVE",
"84 602 OFFCURVE",
"84 514 CURVE SMOOTH",
"84 -2 LINE",
"95 -5 OFFCURVE",
"105 -6 OFFCURVE",
"113 -6 CURVE SMOOTH",
"151 -6 OFFCURVE",
"172 20 OFFCURVE",
"172 59 CURVE SMOOTH",
"172 300 LINE",
"267 300 LINE",
"290 301 LINE",
"338 275 OFFCURVE",
"357 233 OFFCURVE",
"391 145 CURVE SMOOTH",
"435 30 OFFCURVE",
"450 -6 OFFCURVE",
"504 -6 CURVE SMOOTH",
"520 -6 OFFCURVE",
"538 -3 OFFCURVE",
"554 3 CURVE",
"554 12 LINE",
"531 29 OFFCURVE",
"520 57 OFFCURVE",
"475 172 CURVE SMOOTH",
"442 257 OFFCURVE",
"419 297 OFFCURVE",
"377 318 CURVE",
"461 349 OFFCURVE",
"512 417 OFFCURVE",
"512 506 CURVE SMOOTH",
"512 630 OFFCURVE",
"413 714 OFFCURVE",
"247 714 CURVE SMOOTH",
"190 714 OFFCURVE",
"118 704 OFFCURVE",
"50 704 CURVE",
"42 683 LINE"
);
},
{
closed = 1;
nodes = (
"192 636 OFFCURVE",
"226 640 OFFCURVE",
"258 640 CURVE SMOOTH",
"370 640 OFFCURVE",
"422 589 OFFCURVE",
"422 507 CURVE SMOOTH",
"422 419 OFFCURVE",
"363 372 OFFCURVE",
"265 372 CURVE SMOOTH",
"172 372 LINE",
"172 514 LINE SMOOTH",
"172 555 OFFCURVE",
"171 597 OFFCURVE",
"157 633 CURVE"
);
}
);
width = 576;
}
);
leftKerningGroup = F;
leftMetricsKey = F;
note = R;
rightKerningGroup = R;
unicode = 0052;
},
{
glyphname = Racute;
lastChange = "2018-03-13 07:04:02 +0000";
layers = (
{
anchors = (
{
name = bottom;
position = "{288, 0}";
},
{
name = top;
position = "{302, 910}";
}
);
layerId = "B248ED2E-FA6D-462F-83C4-0CD4D6FD5656";
paths = (
{
closed = 1;
nodes = (
"76 642 OFFCURVE",
"84 602 OFFCURVE",
"84 514 CURVE SMOOTH",
"84 -2 LINE",
"95 -5 OFFCURVE",
"105 -6 OFFCURVE",
"113 -6 CURVE SMOOTH",
"151 -6 OFFCURVE",
"172 20 OFFCURVE",
"172 59 CURVE SMOOTH",
"172 300 LINE",
"267 300 LINE",
"290 301 LINE",
"338 275 OFFCURVE",
"357 233 OFFCURVE",
"391 145 CURVE SMOOTH",
"435 30 OFFCURVE",
"450 -6 OFFCURVE",
"504 -6 CURVE SMOOTH",
"520 -6 OFFCURVE",
"538 -3 OFFCURVE",
"554 3 CURVE",
"554 12 LINE",
"531 29 OFFCURVE",
"520 57 OFFCURVE",
"475 172 CURVE SMOOTH",
"442 257 OFFCURVE",
"419 297 OFFCURVE",
"377 318 CURVE",
"461 349 OFFCURVE",
"512 417 OFFCURVE",
"512 506 CURVE SMOOTH",
"512 630 OFFCURVE",
"413 714 OFFCURVE",
"247 714 CURVE SMOOTH",
"190 714 OFFCURVE",
"118 704 OFFCURVE",
"50 704 CURVE",
"42 683 LINE"
);
},
{
closed = 1;
nodes = (
"192 636 OFFCURVE",
"226 640 OFFCURVE",
"258 640 CURVE SMOOTH",
"370 640 OFFCURVE",
"422 589 OFFCURVE",
"422 507 CURVE SMOOTH",
"422 419 OFFCURVE",
"363 372 OFFCURVE",
"265 372 CURVE SMOOTH",
"172 372 LINE",
"172 514 LINE SMOOTH",
"172 555 OFFCURVE",
"171 597 OFFCURVE",
"157 633 CURVE"
);
},
{
closed = 1;
nodes = (
"245 752 LINE",
"352 910 LINE",
"256 910 LINE",
"205 752 LINE"
);
}
);
width = 576;
}
);
note = Racute;
rightKerningGroup = R;
unicode = 0154;
},
{
glyphname = Rcaron;
lastChange = "2018-03-13 07:04:02 +0000";
layers = (
{
anchors = (
{
name = bottom;
position = "{288, 0}";
},
{
name = top;
position = "{258, 910}";
}
);
layerId = "B248ED2E-FA6D-462F-83C4-0CD4D6FD5656";
paths = (
{
closed = 1;
nodes = (
"76 642 OFFCURVE",
"84 602 OFFCURVE",
"84 514 CURVE SMOOTH",
"84 -2 LINE",
"95 -5 OFFCURVE",
"105 -6 OFFCURVE",
"113 -6 CURVE SMOOTH",
"151 -6 OFFCURVE",
"172 20 OFFCURVE",
"172 59 CURVE SMOOTH",
"172 300 LINE",
"267 300 LINE",
"290 301 LINE",
"338 275 OFFCURVE",
"357 233 OFFCURVE",
"391 145 CURVE SMOOTH",
"435 30 OFFCURVE",
"450 -6 OFFCURVE",
"504 -6 CURVE SMOOTH",
"520 -6 OFFCURVE",
"538 -3 OFFCURVE",
"554 3 CURVE",
"554 12 LINE",
"531 29 OFFCURVE",
"520 57 OFFCURVE",
"475 172 CURVE SMOOTH",
"442 257 OFFCURVE",
"419 297 OFFCURVE",
"377 318 CURVE",
"461 349 OFFCURVE",
"512 417 OFFCURVE",
"512 506 CURVE SMOOTH",
"512 630 OFFCURVE",
"413 714 OFFCURVE",
"247 714 CURVE SMOOTH",
"190 714 OFFCURVE",
"118 704 OFFCURVE",
"50 704 CURVE",
"42 683 LINE"
);
},
{
closed = 1;
nodes = (
"218 752 LINE",
"298 752 LINE",
"418 900 LINE",
"378 900 LINE",
"258 812 LINE",
"138 900 LINE",
"98 900 LINE"
);
},
{
closed = 1;
nodes = (
"192 636 OFFCURVE",
"226 640 OFFCURVE",
"258 640 CURVE SMOOTH",
"370 640 OFFCURVE",
"422 589 OFFCURVE",
"422 507 CURVE SMOOTH",
"422 419 OFFCURVE",
"363 372 OFFCURVE",
"265 372 CURVE SMOOTH",
"172 372 LINE",
"172 514 LINE SMOOTH",
"172 555 OFFCURVE",
"171 597 OFFCURVE",
"157 633 CURVE"
);
}
);
width = 576;
}
);
note = Rcaron;
rightKerningGroup = R;
unicode = 0158;
},
{
glyphname = Rcommaaccent;
lastChange = "2018-03-13 07:04:02 +0000";
layers = (
{
anchors = (
{
name = bottom;
position = "{288, -299}";
},
{
name = top;
position = "{258, 700}";
}
);
layerId = "B248ED2E-FA6D-462F-83C4-0CD4D6FD5656";
paths = (
{
closed = 1;
nodes = (
"76 642 OFFCURVE",
"84 602 OFFCURVE",
"84 514 CURVE SMOOTH",
"84 -2 LINE",
"95 -5 OFFCURVE",
"105 -6 OFFCURVE",
"113 -6 CURVE SMOOTH",
"151 -6 OFFCURVE",
"172 20 OFFCURVE",
"172 59 CURVE SMOOTH",
"172 300 LINE",
"267 300 LINE",
"290 301 LINE",
"338 275 OFFCURVE",
"357 233 OFFCURVE",
"391 145 CURVE SMOOTH",
"435 30 OFFCURVE",
"450 -6 OFFCURVE",
"504 -6 CURVE SMOOTH",
"520 -6 OFFCURVE",
"538 -3 OFFCURVE",
"554 3 CURVE",
"554 12 LINE",
"531 29 OFFCURVE",
"520 57 OFFCURVE",
"475 172 CURVE SMOOTH",
"442 257 OFFCURVE",
"419 297 OFFCURVE",
"377 318 CURVE",
"461 349 OFFCURVE",
"512 417 OFFCURVE",
"512 506 CURVE SMOOTH",
"512 630 OFFCURVE",
"413 714 OFFCURVE",
"247 714 CURVE SMOOTH",
"190 714 OFFCURVE",
"118 704 OFFCURVE",
"50 704 CURVE",
"42 683 LINE"
);
},
{
closed = 1;
nodes = (
"192 636 OFFCURVE",
"226 640 OFFCURVE",
"258 640 CURVE SMOOTH",
"370 640 OFFCURVE",
"422 589 OFFCURVE",
"422 507 CURVE SMOOTH",
"422 419 OFFCURVE",
"363 372 OFFCURVE",
"265 372 CURVE SMOOTH",
"172 372 LINE",
"172 514 LINE SMOOTH",
"172 555 OFFCURVE",
"171 597 OFFCURVE",
"157 633 CURVE"
);
},
{
closed = 1;
nodes = (
"223 -157 OFFCURVE",
"250 -184 OFFCURVE",
"286 -184 CURVE",
"290 -221 OFFCURVE",
"272 -248 OFFCURVE",
"241 -272 CURVE",
"266 -306 LINE",
"325 -268 OFFCURVE",
"353 -202 OFFCURVE",
"353 -146 CURVE SMOOTH",
"353 -87 OFFCURVE",
"322 -60 OFFCURVE",
"286 -60 CURVE SMOOTH",
"250 -60 OFFCURVE",
"223 -87 OFFCURVE",
"223 -122 CURVE SMOOTH"
);
}
);
width = 576;
}
);
note = Rcommaaccent;
rightKerningGroup = R;
unicode = 0156;
},
{
glyphname = Rdotbelow;
lastChange = "2018-03-13 07:04:02 +0000";
layers = (
{
anchors = (
{
name = bottom;
position = "{288, -175}";
},
{
name = top;
position = "{258, 700}";
}
);
layerId = "B248ED2E-FA6D-462F-83C4-0CD4D6FD5656";
paths = (
{
closed = 1;
nodes = (
"76 642 OFFCURVE",
"84 602 OFFCURVE",
"84 514 CURVE SMOOTH",
"84 -2 LINE",
"95 -5 OFFCURVE",
"105 -6 OFFCURVE",
"113 -6 CURVE SMOOTH",
"151 -6 OFFCURVE",
"172 20 OFFCURVE",
"172 59 CURVE SMOOTH",
"172 300 LINE",
"267 300 LINE",
"290 301 LINE",
"338 275 OFFCURVE",
"357 233 OFFCURVE",
"391 145 CURVE SMOOTH",
"435 30 OFFCURVE",
"450 -6 OFFCURVE",
"504 -6 CURVE SMOOTH",
"520 -6 OFFCURVE",
"538 -3 OFFCURVE",
"554 3 CURVE",
"554 12 LINE",
"531 29 OFFCURVE",
"520 57 OFFCURVE",
"475 172 CURVE SMOOTH",
"442 257 OFFCURVE",
"419 297 OFFCURVE",
"377 318 CURVE",
"461 349 OFFCURVE",
"512 417 OFFCURVE",
"512 506 CURVE SMOOTH",
"512 630 OFFCURVE",
"413 714 OFFCURVE",
"247 714 CURVE SMOOTH",
"190 714 OFFCURVE",
"118 704 OFFCURVE",
"50 704 CURVE",
"42 683 LINE"
);
},
{
closed = 1;
nodes = (
"192 636 OFFCURVE",
"226 640 OFFCURVE",
"258 640 CURVE SMOOTH",
"370 640 OFFCURVE",
"422 589 OFFCURVE",
"422 507 CURVE SMOOTH",
"422 419 OFFCURVE",
"363 372 OFFCURVE",
"265 372 CURVE SMOOTH",
"172 372 LINE",
"172 514 LINE SMOOTH",
"172 555 OFFCURVE",
"171 597 OFFCURVE",
"157 633 CURVE"
);
},
{
closed = 1;
nodes = (
"226 -150 OFFCURVE",
"250 -175 OFFCURVE",
"289 -175 CURVE SMOOTH",
"326 -175 OFFCURVE",
"350 -150 OFFCURVE",
"350 -114 CURVE SMOOTH",
"350 -76 OFFCURVE",
"326 -51 OFFCURVE",
"289 -51 CURVE SMOOTH",
"250 -51 OFFCURVE",
"226 -76 OFFCURVE",
"226 -114 CURVE SMOOTH"
);
}
);
width = 576;
}
);
note = Rdotbelow;
rightKerningGroup = R;
unicode = 1E5A;
},
{
glyphname = Rdotbelowmacron;
lastChange = "2018-03-13 07:04:02 +0000";
layers = (
{
anchors = (
{
name = bottom;
position = "{288, -175}";
},
{
name = top;
position = "{258, 823}";
}
);
layerId = "B248ED2E-FA6D-462F-83C4-0CD4D6FD5656";
paths = (
{
closed = 1;
nodes = (
"76 642 OFFCURVE",
"84 602 OFFCURVE",
"84 514 CURVE SMOOTH",
"84 -2 LINE",
"95 -5 OFFCURVE",
"105 -6 OFFCURVE",
"113 -6 CURVE SMOOTH",
"151 -6 OFFCURVE",
"172 20 OFFCURVE",
"172 59 CURVE SMOOTH",
"172 300 LINE",
"267 300 LINE",
"290 301 LINE",
"338 275 OFFCURVE",
"357 233 OFFCURVE",
"391 145 CURVE SMOOTH",
"435 30 OFFCURVE",
"450 -6 OFFCURVE",
"504 -6 CURVE SMOOTH",
"520 -6 OFFCURVE",
"538 -3 OFFCURVE",
"554 3 CURVE",
"554 12 LINE",
"531 29 OFFCURVE",
"520 57 OFFCURVE",
"475 172 CURVE SMOOTH",
"442 257 OFFCURVE",
"419 297 OFFCURVE",
"377 318 CURVE",
"461 349 OFFCURVE",
"512 417 OFFCURVE",
"512 506 CURVE SMOOTH",
"512 630 OFFCURVE",
"413 714 OFFCURVE",
"247 714 CURVE SMOOTH",
"190 714 OFFCURVE",
"118 704 OFFCURVE",
"50 704 CURVE",
"42 683 LINE"
);
},
{
closed = 1;
nodes = (
"410 772 LINE",
"410 822 LINE",
"106 822 LINE",
"106 772 LINE"
);
},
{
closed = 1;
nodes = (
"192 636 OFFCURVE",
"226 640 OFFCURVE",
"258 640 CURVE SMOOTH",
"370 640 OFFCURVE",
"422 589 OFFCURVE",
"422 507 CURVE SMOOTH",
"422 419 OFFCURVE",
"363 372 OFFCURVE",
"265 372 CURVE SMOOTH",
"172 372 LINE",
"172 514 LINE SMOOTH",
"172 555 OFFCURVE",
"171 597 OFFCURVE",
"157 633 CURVE"
);
},
{
closed = 1;
nodes = (
"226 -150 OFFCURVE",
"250 -175 OFFCURVE",
"289 -175 CURVE SMOOTH",
"326 -175 OFFCURVE",
"350 -150 OFFCURVE",
"350 -114 CURVE SMOOTH",
"350 -76 OFFCURVE",
"326 -51 OFFCURVE",
"289 -51 CURVE SMOOTH",
"250 -51 OFFCURVE",
"226 -76 OFFCURVE",
"226 -114 CURVE SMOOTH"
);
}
);
width = 576;
}
);
note = Rdotbelowmacron;
rightKerningGroup = R;
unicode = 1E5C;
},
{
glyphname = Rlinebelow;
lastChange = "2018-03-13 07:04:02 +0000";
layers = (
{
anchors = (
{
name = bottom;
position = "{288, -110}";
},
{
name = top;
position = "{258, 700}";
}
);
layerId = "B248ED2E-FA6D-462F-83C4-0CD4D6FD5656";
paths = (
{
closed = 1;
nodes = (
"76 642 OFFCURVE",
"84 602 OFFCURVE",
"84 514 CURVE SMOOTH",
"84 -2 LINE",
"95 -5 OFFCURVE",
"105 -6 OFFCURVE",
"113 -6 CURVE SMOOTH",
"151 -6 OFFCURVE",
"172 20 OFFCURVE",
"172 59 CURVE SMOOTH",
"172 300 LINE",
"267 300 LINE",
"290 301 LINE",
"338 275 OFFCURVE",
"357 233 OFFCURVE",
"391 145 CURVE SMOOTH",
"435 30 OFFCURVE",
"450 -6 OFFCURVE",
"504 -6 CURVE SMOOTH",
"520 -6 OFFCURVE",
"538 -3 OFFCURVE",
"554 3 CURVE",
"554 12 LINE",
"531 29 OFFCURVE",
"520 57 OFFCURVE",
"475 172 CURVE SMOOTH",
"442 257 OFFCURVE",
"419 297 OFFCURVE",
"377 318 CURVE",
"461 349 OFFCURVE",
"512 417 OFFCURVE",
"512 506 CURVE SMOOTH",
"512 630 OFFCURVE",
"413 714 OFFCURVE",
"247 714 CURVE SMOOTH",
"190 714 OFFCURVE",
"118 704 OFFCURVE",
"50 704 CURVE",
"42 683 LINE"
);
},
{
closed = 1;
nodes = (
"440 -122 LINE",
"440 -72 LINE",
"136 -72 LINE",
"136 -122 LINE"
);
},
{
closed = 1;
nodes = (
"192 636 OFFCURVE",
"226 640 OFFCURVE",
"258 640 CURVE SMOOTH",
"370 640 OFFCURVE",
"422 589 OFFCURVE",
"422 507 CURVE SMOOTH",
"422 419 OFFCURVE",
"363 372 OFFCURVE",
"265 372 CURVE SMOOTH",
"172 372 LINE",
"172 514 LINE SMOOTH",
"172 555 OFFCURVE",
"171 597 OFFCURVE",
"157 633 CURVE"
);
}
);
width = 576;
}
);
note = Rlinebelow;
rightKerningGroup = R;
unicode = 1E5E;
},
{
glyphname = S;
layers = (
{
anchors = (
{
name = bottom;
position = "{278, 0}";
},
{
name = top;
position = "{278, 700}";
}
);
layerId = "B248ED2E-FA6D-462F-83C4-0CD4D6FD5656";
paths = (
{
closed = 1;
nodes = (
"38 47 OFFCURVE",
"139 -12 OFFCURVE",
"277 -12 CURVE SMOOTH",
"400 -12 OFFCURVE",
"516 35 OFFCURVE",
"516 186 CURVE SMOOTH",
"516 319 OFFCURVE",
"425 353 OFFCURVE",
"292 402 CURVE SMOOTH",
"209 433 OFFCURVE",
"144 458 OFFCURVE",
"144 538 CURVE SMOOTH",
"144 603 OFFCURVE",
"187 640 OFFCURVE",
"273 640 CURVE SMOOTH",
"369 640 OFFCURVE",
"424 594 OFFCURVE",
"463 533 CURVE",
"494 542 OFFCURVE",
"500 566 OFFCURVE",
"500 584 CURVE SMOOTH",
"500 655 OFFCURVE",
"409 714 OFFCURVE",
"278 714 CURVE SMOOTH",
"142 714 OFFCURVE",
"62 651 OFFCURVE",
"62 530 CURVE SMOOTH",
"62 405 OFFCURVE",
"148 363 OFFCURVE",
"266 322 CURVE SMOOTH",
"372 285 OFFCURVE",
"432 262 OFFCURVE",
"432 181 CURVE SMOOTH",
"432 101 OFFCURVE",
"374 62 OFFCURVE",
"280 62 CURVE SMOOTH",
"177 62 OFFCURVE",
"114 109 OFFCURVE",
"75 169 CURVE",
"44 160 OFFCURVE",
"38 136 OFFCURVE",
"38 119 CURVE SMOOTH"
);
}
);
width = 556;
}
);
leftKerningGroup = S;
note = S;
rightKerningGroup = S;
unicode = 0053;
},
{
glyphname = Sacute;
layers = (
{
anchors = (
{
name = bottom;
position = "{278, 0}";
},
{
name = top;
position = "{322, 910}";
}
);
layerId = "B248ED2E-FA6D-462F-83C4-0CD4D6FD5656";
paths = (
{
closed = 1;
nodes = (
"38 47 OFFCURVE",
"139 -12 OFFCURVE",
"277 -12 CURVE SMOOTH",
"400 -12 OFFCURVE",
"516 35 OFFCURVE",
"516 186 CURVE SMOOTH",
"516 319 OFFCURVE",
"425 353 OFFCURVE",
"292 402 CURVE SMOOTH",
"209 433 OFFCURVE",
"144 458 OFFCURVE",
"144 538 CURVE SMOOTH",
"144 603 OFFCURVE",
"187 640 OFFCURVE",
"273 640 CURVE SMOOTH",
"369 640 OFFCURVE",
"424 594 OFFCURVE",
"463 533 CURVE",
"494 542 OFFCURVE",
"500 566 OFFCURVE",
"500 584 CURVE SMOOTH",
"500 655 OFFCURVE",
"409 714 OFFCURVE",
"278 714 CURVE SMOOTH",
"142 714 OFFCURVE",
"62 651 OFFCURVE",
"62 530 CURVE SMOOTH",
"62 405 OFFCURVE",
"148 363 OFFCURVE",
"266 322 CURVE SMOOTH",
"372 285 OFFCURVE",
"432 262 OFFCURVE",
"432 181 CURVE SMOOTH",
"432 101 OFFCURVE",
"374 62 OFFCURVE",
"280 62 CURVE SMOOTH",
"177 62 OFFCURVE",
"114 109 OFFCURVE",
"75 169 CURVE",
"44 160 OFFCURVE",
"38 136 OFFCURVE",
"38 119 CURVE SMOOTH"
);
},
{
closed = 1;
nodes = (
"265 752 LINE",
"372 910 LINE",
"276 910 LINE",
"225 752 LINE"
);
}
);
width = 556;
}
);
leftKerningGroup = S;
note = Sacute;
rightKerningGroup = S;
unicode = 015A;
},
{
glyphname = Scaron;
layers = (
{
anchors = (
{
name = bottom;
position = "{278, 0}";
},
{
name = top;
position = "{278, 910}";
}
);
layerId = "B248ED2E-FA6D-462F-83C4-0CD4D6FD5656";
paths = (
{
closed = 1;
nodes = (
"38 47 OFFCURVE",
"139 -12 OFFCURVE",
"277 -12 CURVE SMOOTH",
"400 -12 OFFCURVE",
"516 35 OFFCURVE",
"516 186 CURVE SMOOTH",
"516 319 OFFCURVE",
"425 353 OFFCURVE",
"292 402 CURVE SMOOTH",
"209 433 OFFCURVE",
"144 458 OFFCURVE",
"144 538 CURVE SMOOTH",
"144 603 OFFCURVE",
"187 640 OFFCURVE",
"273 640 CURVE SMOOTH",
"369 640 OFFCURVE",
"424 594 OFFCURVE",
"463 533 CURVE",
"494 542 OFFCURVE",
"500 566 OFFCURVE",
"500 584 CURVE SMOOTH",
"500 655 OFFCURVE",
"409 714 OFFCURVE",
"278 714 CURVE SMOOTH",
"142 714 OFFCURVE",
"62 651 OFFCURVE",
"62 530 CURVE SMOOTH",
"62 405 OFFCURVE",
"148 363 OFFCURVE",
"266 322 CURVE SMOOTH",
"372 285 OFFCURVE",
"432 262 OFFCURVE",
"432 181 CURVE SMOOTH",
"432 101 OFFCURVE",
"374 62 OFFCURVE",
"280 62 CURVE SMOOTH",
"177 62 OFFCURVE",
"114 109 OFFCURVE",
"75 169 CURVE",
"44 160 OFFCURVE",
"38 136 OFFCURVE",
"38 119 CURVE SMOOTH"
);
},
{
closed = 1;
nodes = (
"238 752 LINE",
"318 752 LINE",
"438 900 LINE",
"398 900 LINE",
"278 812 LINE",
"158 900 LINE",
"118 900 LINE"
);
}
);
width = 556;
}
);
leftKerningGroup = S;
note = Scaron;
rightKerningGroup = S;
unicode = 0160;
},
{
glyphname = Scedilla;
lastChange = "2018-03-13 07:04:02 +0000";
layers = (
{
anchors = (
{
name = bottom;
position = "{256, -195}";
},
{
name = top;
position = "{278, 700}";
}
);
layerId = "B248ED2E-FA6D-462F-83C4-0CD4D6FD5656";
paths = (
{
closed = 1;
nodes = (
"38 52 OFFCURVE",
"126 -4 OFFCURVE",
"250 -11 CURVE",
"200 -74 LINE",
"214 -91 LINE",
"226 -88 OFFCURVE",
"237 -86 OFFCURVE",
"249 -86 CURVE SMOOTH",
"278 -86 OFFCURVE",
"292 -98 OFFCURVE",
"292 -116 CURVE SMOOTH",
"292 -138 OFFCURVE",
"271 -151 OFFCURVE",
"237 -151 CURVE SMOOTH",
"214 -151 OFFCURVE",
"195 -145 OFFCURVE",
"176 -138 CURVE",
"176 -173 LINE",
"195 -185 OFFCURVE",
"219 -195 OFFCURVE",
"256 -195 CURVE SMOOTH",
"320 -195 OFFCURVE",
"360 -167 OFFCURVE",
"360 -122 CURVE SMOOTH",
"360 -79 OFFCURVE",
"323 -51 OFFCURVE",
"264 -51 CURVE",
"296 -12 LINE",
"411 -7 OFFCURVE",
"516 43 OFFCURVE",
"516 186 CURVE SMOOTH",
"516 319 OFFCURVE",
"425 353 OFFCURVE",
"292 402 CURVE SMOOTH",
"209 433 OFFCURVE",
"144 458 OFFCURVE",
"144 538 CURVE SMOOTH",
"144 603 OFFCURVE",
"187 640 OFFCURVE",
"273 640 CURVE SMOOTH",
"369 640 OFFCURVE",
"424 594 OFFCURVE",
"463 533 CURVE",
"494 542 OFFCURVE",
"500 566 OFFCURVE",
"500 584 CURVE SMOOTH",
"500 655 OFFCURVE",
"409 714 OFFCURVE",
"278 714 CURVE SMOOTH",
"142 714 OFFCURVE",
"62 651 OFFCURVE",
"62 530 CURVE SMOOTH",
"62 405 OFFCURVE",
"148 363 OFFCURVE",
"266 322 CURVE SMOOTH",
"372 285 OFFCURVE",
"432 262 OFFCURVE",
"432 181 CURVE SMOOTH",
"432 101 OFFCURVE",
"374 62 OFFCURVE",
"280 62 CURVE SMOOTH",
"177 62 OFFCURVE",
"114 109 OFFCURVE",
"75 169 CURVE",
"44 160 OFFCURVE",
"38 136 OFFCURVE",
"38 119 CURVE SMOOTH"
);
}
);
width = 556;
}
);
leftKerningGroup = S;
note = Scedilla;
rightKerningGroup = S;
unicode = 015E;
},
{
glyphname = Scircumflex;
layers = (
{
anchors = (
{
name = bottom;
position = "{278, 0}";
},
{
name = top;
position = "{278, 900}";
}
);
layerId = "B248ED2E-FA6D-462F-83C4-0CD4D6FD5656";
paths = (
{
closed = 1;
nodes = (
"38 47 OFFCURVE",
"139 -12 OFFCURVE",
"277 -12 CURVE SMOOTH",
"400 -12 OFFCURVE",
"516 35 OFFCURVE",
"516 186 CURVE SMOOTH",
"516 319 OFFCURVE",
"425 353 OFFCURVE",
"292 402 CURVE SMOOTH",
"209 433 OFFCURVE",
"144 458 OFFCURVE",
"144 538 CURVE SMOOTH",
"144 603 OFFCURVE",
"187 640 OFFCURVE",
"273 640 CURVE SMOOTH",
"369 640 OFFCURVE",
"424 594 OFFCURVE",
"463 533 CURVE",
"494 542 OFFCURVE",
"500 566 OFFCURVE",
"500 584 CURVE SMOOTH",
"500 655 OFFCURVE",
"409 714 OFFCURVE",
"278 714 CURVE SMOOTH",
"142 714 OFFCURVE",
"62 651 OFFCURVE",
"62 530 CURVE SMOOTH",
"62 405 OFFCURVE",
"148 363 OFFCURVE",
"266 322 CURVE SMOOTH",
"372 285 OFFCURVE",
"432 262 OFFCURVE",
"432 181 CURVE SMOOTH",
"432 101 OFFCURVE",
"374 62 OFFCURVE",
"280 62 CURVE SMOOTH",
"177 62 OFFCURVE",
"114 109 OFFCURVE",
"75 169 CURVE",
"44 160 OFFCURVE",
"38 136 OFFCURVE",
"38 119 CURVE SMOOTH"
);
},
{
closed = 1;
nodes = (
"158 752 LINE",
"278 840 LINE",
"398 752 LINE",
"438 752 LINE",
"318 900 LINE",
"238 900 LINE",
"118 752 LINE"
);
}
);
width = 556;
}
);
leftKerningGroup = S;
note = Scircumflex;
rightKerningGroup = S;
unicode = 015C;
},
{
glyphname = Scommaaccent;
layers = (
{
anchors = (
{
name = bottom;
position = "{278, -299}";
},
{
name = top;
position = "{278, 700}";
}
);
layerId = "B248ED2E-FA6D-462F-83C4-0CD4D6FD5656";
paths = (
{
closed = 1;
nodes = (
"38 47 OFFCURVE",
"139 -12 OFFCURVE",
"277 -12 CURVE SMOOTH",
"400 -12 OFFCURVE",
"516 35 OFFCURVE",
"516 186 CURVE SMOOTH",
"516 319 OFFCURVE",
"425 353 OFFCURVE",
"292 402 CURVE SMOOTH",
"209 433 OFFCURVE",
"144 458 OFFCURVE",
"144 538 CURVE SMOOTH",
"144 603 OFFCURVE",
"187 640 OFFCURVE",
"273 640 CURVE SMOOTH",
"369 640 OFFCURVE",
"424 594 OFFCURVE",
"463 533 CURVE",
"494 542 OFFCURVE",
"500 566 OFFCURVE",
"500 584 CURVE SMOOTH",
"500 655 OFFCURVE",
"409 714 OFFCURVE",
"278 714 CURVE SMOOTH",
"142 714 OFFCURVE",
"62 651 OFFCURVE",
"62 530 CURVE SMOOTH",
"62 405 OFFCURVE",
"148 363 OFFCURVE",
"266 322 CURVE SMOOTH",
"372 285 OFFCURVE",
"432 262 OFFCURVE",
"432 181 CURVE SMOOTH",
"432 101 OFFCURVE",
"374 62 OFFCURVE",
"280 62 CURVE SMOOTH",
"177 62 OFFCURVE",
"114 109 OFFCURVE",
"75 169 CURVE",
"44 160 OFFCURVE",
"38 136 OFFCURVE",
"38 119 CURVE SMOOTH"
);
},
{
closed = 1;
nodes = (
"213 -157 OFFCURVE",
"240 -184 OFFCURVE",
"276 -184 CURVE",
"280 -221 OFFCURVE",
"262 -248 OFFCURVE",
"231 -272 CURVE",
"256 -306 LINE",
"315 -268 OFFCURVE",
"343 -202 OFFCURVE",
"343 -146 CURVE SMOOTH",
"343 -87 OFFCURVE",
"312 -60 OFFCURVE",
"276 -60 CURVE SMOOTH",
"240 -60 OFFCURVE",
"213 -87 OFFCURVE",
"213 -122 CURVE SMOOTH"
);
}
);
width = 556;
}
);
leftKerningGroup = S;
note = Scommaaccent;
rightKerningGroup = S;
unicode = 0218;
},
{
glyphname = Sdotaccent;
layers = (
{
anchors = (
{
name = bottom;
position = "{278, 0}";
},
{
name = top;
position = "{279, 877}";
}
);
layerId = "B248ED2E-FA6D-462F-83C4-0CD4D6FD5656";
paths = (
{
closed = 1;
nodes = (
"38 47 OFFCURVE",
"139 -12 OFFCURVE",
"277 -12 CURVE SMOOTH",
"400 -12 OFFCURVE",
"516 35 OFFCURVE",
"516 186 CURVE SMOOTH",
"516 319 OFFCURVE",
"425 353 OFFCURVE",
"292 402 CURVE SMOOTH",
"209 433 OFFCURVE",
"144 458 OFFCURVE",
"144 538 CURVE SMOOTH",
"144 603 OFFCURVE",
"187 640 OFFCURVE",
"273 640 CURVE SMOOTH",
"369 640 OFFCURVE",
"424 594 OFFCURVE",
"463 533 CURVE",
"494 542 OFFCURVE",
"500 566 OFFCURVE",
"500 584 CURVE SMOOTH",
"500 655 OFFCURVE",
"409 714 OFFCURVE",
"278 714 CURVE SMOOTH",
"142 714 OFFCURVE",
"62 651 OFFCURVE",
"62 530 CURVE SMOOTH",
"62 405 OFFCURVE",
"148 363 OFFCURVE",
"266 322 CURVE SMOOTH",
"372 285 OFFCURVE",
"432 262 OFFCURVE",
"432 181 CURVE SMOOTH",
"432 101 OFFCURVE",
"374 62 OFFCURVE",
"280 62 CURVE SMOOTH",
"177 62 OFFCURVE",
"114 109 OFFCURVE",
"75 169 CURVE",
"44 160 OFFCURVE",
"38 136 OFFCURVE",
"38 119 CURVE SMOOTH"
);
},
{
closed = 1;
nodes = (
"216 778 OFFCURVE",
"240 753 OFFCURVE",
"279 753 CURVE SMOOTH",
"316 753 OFFCURVE",
"340 778 OFFCURVE",
"340 814 CURVE SMOOTH",
"340 852 OFFCURVE",
"316 877 OFFCURVE",
"279 877 CURVE SMOOTH",
"240 877 OFFCURVE",
"216 852 OFFCURVE",
"216 814 CURVE SMOOTH"
);
}
);
width = 556;
}
);
leftKerningGroup = S;
note = Sdotaccent;
rightKerningGroup = S;
unicode = 1E60;
},
{
glyphname = Sdotbelow;
layers = (
{
anchors = (
{
name = bottom;
position = "{278, -175}";
},
{
name = top;
position = "{278, 700}";
}
);
layerId = "B248ED2E-FA6D-462F-83C4-0CD4D6FD5656";
paths = (
{
closed = 1;
nodes = (
"38 47 OFFCURVE",
"139 -12 OFFCURVE",
"277 -12 CURVE SMOOTH",
"400 -12 OFFCURVE",
"516 35 OFFCURVE",
"516 186 CURVE SMOOTH",
"516 319 OFFCURVE",
"425 353 OFFCURVE",
"292 402 CURVE SMOOTH",
"209 433 OFFCURVE",
"144 458 OFFCURVE",
"144 538 CURVE SMOOTH",
"144 603 OFFCURVE",
"187 640 OFFCURVE",
"273 640 CURVE SMOOTH",
"369 640 OFFCURVE",
"424 594 OFFCURVE",
"463 533 CURVE",
"494 542 OFFCURVE",
"500 566 OFFCURVE",
"500 584 CURVE SMOOTH",
"500 655 OFFCURVE",
"409 714 OFFCURVE",
"278 714 CURVE SMOOTH",
"142 714 OFFCURVE",
"62 651 OFFCURVE",
"62 530 CURVE SMOOTH",
"62 405 OFFCURVE",
"148 363 OFFCURVE",
"266 322 CURVE SMOOTH",
"372 285 OFFCURVE",
"432 262 OFFCURVE",
"432 181 CURVE SMOOTH",
"432 101 OFFCURVE",
"374 62 OFFCURVE",
"280 62 CURVE SMOOTH",
"177 62 OFFCURVE",
"114 109 OFFCURVE",
"75 169 CURVE",
"44 160 OFFCURVE",
"38 136 OFFCURVE",
"38 119 CURVE SMOOTH"
);
},
{
closed = 1;
nodes = (
"216 -150 OFFCURVE",
"240 -175 OFFCURVE",
"279 -175 CURVE SMOOTH",
"316 -175 OFFCURVE",
"340 -150 OFFCURVE",
"340 -114 CURVE SMOOTH",
"340 -76 OFFCURVE",
"316 -51 OFFCURVE",
"279 -51 CURVE SMOOTH",
"240 -51 OFFCURVE",
"216 -76 OFFCURVE",
"216 -114 CURVE SMOOTH"
);
}
);
width = 556;
}
);
leftKerningGroup = S;
note = Sdotbelow;
rightKerningGroup = S;
unicode = 1E62;
},
{
glyphname = Germandbls;
layers = (
{
layerId = "B248ED2E-FA6D-462F-83C4-0CD4D6FD5656";
paths = (
{
closed = 1;
nodes = (
"88 -5 OFFCURVE",
"98 -6 OFFCURVE",
"106 -6 CURVE SMOOTH",
"144 -6 OFFCURVE",
"165 20 OFFCURVE",
"165 59 CURVE SMOOTH",
"165 489 LINE SMOOTH",
"165 599 OFFCURVE",
"221 640 OFFCURVE",
"319 640 CURVE SMOOTH",
"405 640 OFFCURVE",
"453 608 OFFCURVE",
"471 549 CURVE",
"289 399 LINE",
"289 332 LINE",
"351 332 LINE SMOOTH",
"464 332 OFFCURVE",
"527 285 OFFCURVE",
"527 203 CURVE SMOOTH",
"527 128 OFFCURVE",
"473 56 OFFCURVE",
"377 56 CURVE SMOOTH",
"319 56 OFFCURVE",
"266 85 OFFCURVE",
"245 131 CURVE",
"227 121 OFFCURVE",
"222 101 OFFCURVE",
"222 84 CURVE SMOOTH",
"222 14 OFFCURVE",
"303 -10 OFFCURVE",
"386 -10 CURVE SMOOTH",
"551 -10 OFFCURVE",
"619 88 OFFCURVE",
"619 199 CURVE SMOOTH",
"619 311 OFFCURVE",
"549 389 OFFCURVE",
"398 403 CURVE",
"566 541 LINE",
"525 650 OFFCURVE",
"459 714 OFFCURVE",
"320 714 CURVE SMOOTH",
"152 714 OFFCURVE",
"77 621 OFFCURVE",
"77 474 CURVE SMOOTH",
"77 -2 LINE"
);
}
);
width = 661;
}
);
note = uni1E9E;
rightMetricsKey = B;
unicode = 1E9E;
},
{
glyphname = Schwa;
layers = (
{
layerId = "B248ED2E-FA6D-462F-83C4-0CD4D6FD5656";
paths = (
{
closed = 1;
nodes = (
"34 120 OFFCURVE",
"127 -12 OFFCURVE",
"306 -12 CURVE SMOOTH",
"492 -12 OFFCURVE",
"609 132 OFFCURVE",
"609 353 CURVE SMOOTH",
"609 574 OFFCURVE",
"492 711 OFFCURVE",
"306 711 CURVE SMOOTH",
"176 711 OFFCURVE",
"58 648 OFFCURVE",
"58 576 CURVE SMOOTH",
"58 556 OFFCURVE",
"67 531 OFFCURVE",
"97 520 CURVE",
"135 583 OFFCURVE",
"211 632 OFFCURVE",
"304 632 CURVE SMOOTH",
"434 632 OFFCURVE",
"514 523 OFFCURVE",
"514 376 CURVE",
"43 376 LINE",
"36 355 OFFCURVE",
"34 345 OFFCURVE",
"34 318 CURVE SMOOTH"
);
},
{
closed = 1;
nodes = (
"512 300 LINE",
"493 160 OFFCURVE",
"428 62 OFFCURVE",
"307 62 CURVE SMOOTH",
"186 62 OFFCURVE",
"129 158 OFFCURVE",
"125 299 CURVE"
);
}
);
width = 645;
}
);
note = uni018F;
unicode = 018F;
},
{
glyphname = T;
layers = (
{
anchors = (
{
name = bottom;
position = "{256, 10}";
},
{
name = center;
position = "{256, 350}";
},
{
name = top;
position = "{256, 700}";
}
);
layerId = "B248ED2E-FA6D-462F-83C4-0CD4D6FD5656";
paths = (
{
closed = 1;
nodes = (
"22 643 OFFCURVE",
"23 633 OFFCURVE",
"26 624 CURVE",
"212 624 LINE",
"212 -2 LINE",
"223 -5 OFFCURVE",
"233 -6 OFFCURVE",
"241 -6 CURVE SMOOTH",
"279 -6 OFFCURVE",
"300 20 OFFCURVE",
"300 59 CURVE SMOOTH",
"300 624 LINE",
"433 624 LINE SMOOTH",
"466 624 OFFCURVE",
"490 641 OFFCURVE",
"490 674 CURVE SMOOTH",
"490 681 OFFCURVE",
"489 691 OFFCURVE",
"486 700 CURVE",
"79 700 LINE SMOOTH",
"46 700 OFFCURVE",
"22 683 OFFCURVE",
"22 650 CURVE SMOOTH"
);
}
);
width = 512;
}
);
leftKerningGroup = T;
note = T;
rightKerningGroup = T;
unicode = 0054;
},
{
glyphname = Tbar;
layers = (
{
anchors = (
{
name = bottom;
position = "{256, 10}";
},
{
name = center;
position = "{256, 350}";
},
{
name = top;
position = "{256, 700}";
}
);
layerId = "B248ED2E-FA6D-462F-83C4-0CD4D6FD5656";
paths = (
{
closed = 1;
nodes = (
"22 643 OFFCURVE",
"23 633 OFFCURVE",
"26 624 CURVE",
"212 624 LINE",
"212 369 LINE",
"68 369 LINE",
"68 319 LINE",
"212 319 LINE",
"212 -2 LINE",
"223 -5 OFFCURVE",
"233 -6 OFFCURVE",
"241 -6 CURVE SMOOTH",
"279 -6 OFFCURVE",
"300 20 OFFCURVE",
"300 59 CURVE SMOOTH",
"300 319 LINE",
"444 319 LINE",
"444 369 LINE",
"300 369 LINE",
"300 624 LINE",
"433 624 LINE SMOOTH",
"466 624 OFFCURVE",
"490 641 OFFCURVE",
"490 674 CURVE SMOOTH",
"490 681 OFFCURVE",
"489 691 OFFCURVE",
"486 700 CURVE",
"79 700 LINE SMOOTH",
"46 700 OFFCURVE",
"22 683 OFFCURVE",
"22 650 CURVE SMOOTH"
);
}
);
width = 566;
}
);
leftKerningGroup = T;
note = Tbar;
rightKerningGroup = T;
unicode = 0166;
},
{
glyphname = Tcaron;
layers = (
{
anchors = (
{
name = bottom;
position = "{256, 10}";
},
{
name = center;
position = "{256, 350}";
},
{
name = top;
position = "{256, 910}";
}
);
layerId = "B248ED2E-FA6D-462F-83C4-0CD4D6FD5656";
paths = (
{
closed = 1;
nodes = (
"22 643 OFFCURVE",
"23 633 OFFCURVE",
"26 624 CURVE",
"212 624 LINE",
"212 -2 LINE",
"223 -5 OFFCURVE",
"233 -6 OFFCURVE",
"241 -6 CURVE SMOOTH",
"279 -6 OFFCURVE",
"300 20 OFFCURVE",
"300 59 CURVE SMOOTH",
"300 624 LINE",
"433 624 LINE SMOOTH",
"466 624 OFFCURVE",
"490 641 OFFCURVE",
"490 674 CURVE SMOOTH",
"490 681 OFFCURVE",
"489 691 OFFCURVE",
"486 700 CURVE",
"79 700 LINE SMOOTH",
"46 700 OFFCURVE",
"22 683 OFFCURVE",
"22 650 CURVE SMOOTH"
);
},
{
closed = 1;
nodes = (
"216 752 LINE",
"296 752 LINE",
"416 900 LINE",
"376 900 LINE",
"256 812 LINE",
"136 900 LINE",
"96 900 LINE"
);
}
);
width = 512;
}
);
leftKerningGroup = T;
note = Tcaron;
rightKerningGroup = T;
unicode = 0164;
},
